<?xml version="1.0" encoding="UTF-8" standalone="no"?>
<!-- Created with Inkscape (http://www.inkscape.org/) -->

<svg
   xmlns:dc="http://purl.org/dc/elements/1.1/"
   xmlns:cc="http://creativecommons.org/ns#"
   xmlns:rdf="http://www.w3.org/1999/02/22-rdf-syntax-ns#"
   xmlns:svg="http://www.w3.org/2000/svg"
   xmlns="http://www.w3.org/2000/svg"
   xmlns:sodipodi="http://sodipodi.sourceforge.net/DTD/sodipodi-0.dtd"
   xmlns:inkscape="http://www.inkscape.org/namespaces/inkscape"
   id="svg2"
   sodipodi:version="0.32"
   inkscape:version="0.91 r13725"
   width="200.59453pt"
   height="285.30704pt"
   sodipodi:docname="1-fire.svg"
   version="1.1">
  <metadata
     id="metadata7">
    <rdf:RDF>
      <cc:Work
         rdf:about="">
        <dc:format>image/svg+xml</dc:format>
        <dc:type
           rdf:resource="http://purl.org/dc/dcmitype/StillImage" />
        <dc:title></dc:title>
      </cc:Work>
    </rdf:RDF>
  </metadata>
  <defs
     id="defs5" />
  <sodipodi:namedview
     inkscape:cy="176.51991"
     inkscape:cx="-11.004221"
     inkscape:zoom="0.86831672"
     inkscape:window-height="1000"
     inkscape:window-width="1215"
     inkscape:pageshadow="2"
     inkscape:pageopacity="0.0"
     borderopacity="1.0"
     bordercolor="#666666"
     pagecolor="#ffffff"
     id="base"
     showguides="true"
     inkscape:guide-bbox="true"
     inkscape:window-x="88"
     inkscape:window-y="24"
     inkscape:current-layer="svg2"
     showgrid="false"
     fit-margin-top="0"
     fit-margin-left="0"
     fit-margin-right="0"
     fit-margin-bottom="0"
     inkscape:window-maximized="1" />
  <path
     style="fill:#e73900;fill-opacity:1;fill-rule:evenodd;stroke:none;stroke-width:1.00000038pt;stroke-linecap:butt;stroke-linejoin:miter;stroke-opacity:1"
     d="M 27.50839,312.91672 C -40.483684,208.53364 41.613939,199.21124 20.672678,56.3068 c 51.357424,67.41694 65.695734,150.11136 87.256442,174.57 14.88035,19.20859 22.21919,42.39489 20.21849,66.21726 -0.20173,18.85366 23.6251,41.69831 17.1098,59.3005 C 110.61352,328.64579 51.024908,346.7323 27.50839,312.91672 Z"
     id="path2043"
     sodipodi:nodetypes="cccccc"
     inkscape:connector-curvature="0" />
  <path
     style="fill:#e73900;fill-opacity:1;fill-rule:evenodd;stroke:none;stroke-width:1.00000019pt;stroke-linecap:butt;stroke-linejoin:miter;stroke-opacity:1"
     d="M 130.33475,343.39645 C 130.72779,323.40621 106.53859,314.73408 96.808532,299.12198 80.693832,287.19702 75.589242,268.63514 75.233552,250.35615 73.923752,221.12246 99.981822,46.81356 137.94468,0 c -14.5484,71.885963 21.56903,167.64252 43.88285,199.32079 15.09957,24.61357 20.77625,52.95275 15.3373,80.83768 -2.67223,22.24724 -21.10113,35.61534 -31.07052,55.56907 -9.97252,12.01678 -23.54409,13.15533 -35.75956,7.66891 z"
     id="path2041"
     sodipodi:nodetypes="cccccccc"
     inkscape:connector-curvature="0" />
  <path
     style="fill:#e73900;fill-opacity:1;fill-rule:evenodd;stroke:none;stroke-width:1.00000019pt;stroke-linecap:butt;stroke-linejoin:miter;stroke-opacity:1"
     d="m 144.11455,353.17535 c 5.78662,-17.36703 -5.66486,-44.89494 -9.27092,-61.00222 -9.78333,-14.50379 -8.83797,-32.01615 -4.1256,-48.07773 6.93672,-25.87513 8.08193,-147.980867 120.02513,-205.32188 -86.81755,85.18262 -29.17042,154.41088 -19.77233,187.74548 5.49049,25.33327 2.68381,51.73715 -9.69747,74.51982 -17.09362,31.45379 -62.73308,48.78925 -77.15881,52.13653 z"
     id="path2063"
     sodipodi:nodetypes="cccccsc"
     inkscape:connector-curvature="0" />
  <path
     style="fill:#e78c00;fill-opacity:1;fill-rule:evenodd;stroke:none;stroke-width:1pt;stroke-linecap:butt;stroke-linejoin:miter;stroke-opacity:1"
     d="M 125.6698,342.99585 C 125.96709,326.6761 107.67083,319.5963 100.31119,306.8508 88.122332,297.11543 84.261322,281.96178 83.992282,267.03907 83.001572,243.1731 107.31802,116.99293 126.8192,62.651847 113.51175,185.83112 147.74022,199.51283 164.61798,225.37452 c 11.42103,20.09417 15.71477,43.22988 11.60085,65.99474 -2.02123,18.16233 -10.73397,34.71702 -18.27463,51.00696 -7.54302,9.81033 -23.03485,5.09867 -32.2744,0.61963 z"
     id="path1305"
     sodipodi:nodetypes="cccccccc"
     inkscape:connector-curvature="0" />
  <path
     style="fill:#e78c00;fill-opacity:1;fill-rule:evenodd;stroke:none;stroke-width:1.00000038pt;stroke-linecap:butt;stroke-linejoin:miter;stroke-opacity:1"
     d="m 55.516768,319.60929 c -69.840645,-71.70464 6.256738,-76.69827 -13.112495,-175.17471 23.002985,46.4166 42.077879,81.28576 50.453849,114.24383 12.395378,11.63807 55.225288,82.68294 52.658338,95.56353 -26.99224,-15.36667 -69.889688,-13.98593 -89.999692,-34.63265 z"
     id="path2061"
     sodipodi:nodetypes="ccccs"
     inkscape:connector-curvature="0" />
  <path
     style="fill:#e7e100;fill-opacity:1;fill-rule:evenodd;stroke:none;stroke-width:1.00000038pt;stroke-linecap:butt;stroke-linejoin:miter;stroke-opacity:1"
     d="M 69.463782,315.29179 C 27.685382,275.6324 58.885371,252.34682 58.512109,202.81193 c 11.549273,43.35274 48.079751,54.03502 47.610731,80.07767 6.03491,7.79028 37.6343,63.34456 34.99194,70.48334 -14.05024,-11.25385 -55.821758,-23.05478 -71.650998,-38.08115 z"
     id="path2051"
     sodipodi:nodetypes="ccccs"
     inkscape:connector-curvature="0" />
  <path
     style="fill:#e78c00;fill-opacity:1;fill-rule:evenodd;stroke:none;stroke-width:1.00000019pt;stroke-linecap:butt;stroke-linejoin:miter;stroke-opacity:1"
     d="m 136.61851,309.94663 c -7.34039,-10.88214 -6.63109,-24.0216 -3.09542,-36.07254 5.2046,-19.41401 28.07134,-127.32404 60.73809,-150.79486 -23.59103,44.36027 7.42986,112.59653 14.48121,137.60735 4.11949,19.00746 5.27165,41.48988 -7.27598,55.91194 -18.9554,21.78707 -42.88182,34.47506 -56.28999,37.51705 -8.52364,5.98155 -5.85229,-32.08371 -8.55791,-44.16894 z"
     id="path2045"
     sodipodi:nodetypes="ccccscc"
     inkscape:connector-curvature="0" />
  <path
     style="fill:#e7e100;fill-opacity:1;fill-rule:evenodd;stroke:none;stroke-width:0.99999981pt;stroke-linecap:butt;stroke-linejoin:miter;stroke-opacity:1"
     d="m 124.81648,344.19031 c 0.58986,-9.98438 -10.43516,-14.77626 -14.6226,-22.76365 -7.21937,-6.26512 -9.20458,-15.63948 -8.99637,-24.78268 -0.0101,-14.63677 -0.50958,-105.87648 18.02599,-128.55794 -8.20394,35.6561 22.69143,88.8079 32.37859,105.06359 6.49038,12.58815 8.54105,26.86036 5.45339,40.69541 -1.69139,11.06943 -7.43952,20.98736 -12.46341,30.77248 -4.86341,5.81789 -14.23058,2.54602 -19.77559,-0.42721 z"
     id="path1310"
     sodipodi:nodetypes="cccccccc"
     inkscape:connector-curvature="0" />
  <path
     style="fill:#e7e100;fill-opacity:1;fill-rule:evenodd;stroke:none;stroke-width:0.99999981pt;stroke-linecap:butt;stroke-linejoin:miter;stroke-opacity:1"
     d="m 133.63356,345.46562 c 4.74577,-6.95045 -1.13754,-15.17906 -0.70358,-22.75532 -2.49934,-7.6452 0.12406,-15.26957 4.23044,-21.77806 6.32576,-10.56763 17.44222,-89.10138 40.63311,-97.45039 -21.34853,22.18304 15.72363,81.49477 15.68122,97.41785 -0.76263,11.89305 -15.23012,27.96655 -23.44465,36.61523 -6.01023,7.25688 -17.90489,14.23077 -25.76444,19.11887 -6.02721,-3.66386 -7.91678,-6.6232 -10.6321,-11.16818 z"
     id="path2047"
     sodipodi:nodetypes="cccccccc"
     inkscape:connector-curvature="0" />
  <path
     style="fill:#ffff9e;fill-opacity:1;fill-rule:evenodd;stroke:none;stroke-width:1.00000105pt;stroke-linecap:butt;stroke-linejoin:miter;stroke-opacity:1"
     d="m 125.63335,337.51754 c -14.75607,-23.24143 -9.28153,-49.17026 -3.00634,-77.45115 2.85864,19.18916 14.76662,42.47567 21.49823,50.11206 4.64589,5.99724 6.9372,13.23638 6.31255,20.67411 -0.063,5.88643 -3.05125,13.0189 -5.08543,18.5146 -10.8164,-8.66363 -12.37677,-1.29185 -19.71901,-11.84962 z"
     id="path2049"
     sodipodi:nodetypes="cccccc"
     inkscape:connector-curvature="0" />
  <path
     style="fill:#ffff9e;fill-opacity:1;fill-rule:evenodd;stroke:none;stroke-width:1.00000105pt;stroke-linecap:butt;stroke-linejoin:miter;stroke-opacity:1"
     d="m 142.22127,325.9903 c 11.43123,-25.04462 0.11491,-44.76145 26.31412,-64.40898 -7.82358,18.2147 10.06971,46.97556 8.12273,56.94846 -3.27428,16.7716 -25.8851,29.25442 -31.60084,30.54705 1.36171,-13.79126 -7.68024,-11.174 -2.83601,-23.08653 z"
     id="path2065"
     sodipodi:nodetypes="ccscc"
     inkscape:connector-curvature="0" />
  <path
     style="fill:#ffff9e;fill-opacity:1;fill-rule:evenodd;stroke:none;stroke-width:1.00000105pt;stroke-linecap:butt;stroke-linejoin:miter;stroke-opacity:1"
     d="M 60.603387,244.01966 C 122.05662,321.73567 120.6984,282.50018 145.06831,349.05694 28.909623,297.33976 81.042362,302.00776 60.603387,244.01966 Z"
     id="path2067"
     sodipodi:nodetypes="ccc"
     inkscape:connector-curvature="0" />
</svg>
