<?xml version="1.0" encoding="UTF-8" standalone="no"?>
<!-- Generator: Adobe Illustrator 21.0.0, SVG Export Plug-In . SVG Version: 6.00 Build 0)  -->

<svg
   xmlns:dc="http://purl.org/dc/elements/1.1/"
   xmlns:cc="http://creativecommons.org/ns#"
   xmlns:rdf="http://www.w3.org/1999/02/22-rdf-syntax-ns#"
   xmlns:svg="http://www.w3.org/2000/svg"
   xmlns="http://www.w3.org/2000/svg"
   xmlns:xlink="http://www.w3.org/1999/xlink"
   xmlns:sodipodi="http://sodipodi.sourceforge.net/DTD/sodipodi-0.dtd"
   xmlns:inkscape="http://www.inkscape.org/namespaces/inkscape"
   version="1.1"
   x="0px"
   y="0px"
   viewBox="0 0 532.65607 429.00382"
   enable-background="new 0 0 595.3 595.3"
   xml:space="preserve"
   id="svg2"
   inkscape:version="0.91 r13725"
   sodipodi:docname="Timer-10xusecs.svg"
   width="532.65607"
   height="429.00381"><metadata
     id="metadata9449"><rdf:RDF><cc:Work
         rdf:about=""><dc:format>image/svg+xml</dc:format><dc:type
           rdf:resource="http://purl.org/dc/dcmitype/StillImage" /><dc:title></dc:title></cc:Work></rdf:RDF></metadata><defs
     id="defs9447" /><sodipodi:namedview
     pagecolor="#ffffff"
     bordercolor="#666666"
     borderopacity="1"
     objecttolerance="10"
     gridtolerance="10"
     guidetolerance="10"
     inkscape:pageopacity="0"
     inkscape:pageshadow="2"
     inkscape:window-width="1215"
     inkscape:window-height="1000"
     id="namedview9445"
     showgrid="false"
     inkscape:zoom="0.79287756"
     inkscape:cx="219.5247"
     inkscape:cy="297.3053"
     inkscape:window-x="88"
     inkscape:window-y="24"
     inkscape:window-maximized="1"
     inkscape:current-layer="g7"
     fit-margin-top="0"
     fit-margin-left="0"
     fit-margin-right="0"
     fit-margin-bottom="0" /><g
     id="Background"
     transform="translate(-92.9,-90.8)" /><g
     id="Capa_1"
     transform="translate(-92.9,-90.8)" /><g
     id="g7"
     transform="translate(-92.9,-90.8)"><defs
       id="defs9"><rect
         height="640"
         width="653.59998"
         y="-45"
         x="-58.299999"
         id="SVGID_1_" /></defs><clipPath
       id="SVGID_2_"><use
         height="100%"
         width="100%"
         y="0"
         x="0"
         style="overflow:visible"
         id="use13"
         overflow="visible"
         xlink:href="#SVGID_1_" /></clipPath><circle
       style="fill:#ffffff"
       id="circle9409"
       r="181.8"
       cy="290.5"
       cx="292.60001" /><path
       style="fill:#333333"
       inkscape:connector-curvature="0"
       id="path9411"
       d="m 292.6,90.8 c -110.3,0 -199.7,89.4 -199.7,199.7 0,110.3 89.4,199.7 199.7,199.7 110.3,0 199.7,-89.4 199.7,-199.7 0,-110.3 -89.4,-199.7 -199.7,-199.7 z m 0,376.5 c -97.7,0 -176.8,-79.2 -176.8,-176.8 0,-97.6 79.2,-176.8 176.8,-176.8 97.6,0 176.8,79.2 176.8,176.8 0,97.6 -79.2,176.8 -176.8,176.8 z" /><rect
       style="fill:#333333"
       id="rect9421"
       height="47.200001"
       width="12"
       y="134.89999"
       x="286.60001" /><rect
       style="fill:#333333"
       id="rect9423"
       height="47.200001"
       width="12"
       transform="matrix(0,-1,1,0,0,0)"
       y="137.09779"
       x="-296.4223" /><rect
       style="fill:#333333"
       id="rect9425"
       height="47.200001"
       width="12"
       transform="scale(-1,-1)"
       y="-445.97141"
       x="-298.56699" /><rect
       style="fill:#333333"
       id="rect9427"
       height="47.200001"
       width="12"
       transform="matrix(0,1,-1,0,0,0)"
       y="-448.06921"
       x="284.45541" /><rect
       style="fill:#333333"
       id="rect9429"
       height="47.199547"
       width="11.999885"
       transform="matrix(0.70710678,-0.70710678,0.70710678,0.70710678,0,0)"
       y="256.77228"
       x="-4.5014672" /><rect
       style="fill:#333333"
       id="rect9431"
       height="47.199547"
       width="11.999885"
       transform="matrix(-0.70710678,-0.70710678,0.70710678,-0.70710678,0,0)"
       y="-153.9731"
       x="-418.27701" /><rect
       style="fill:#333333"
       id="rect9433"
       height="47.199547"
       width="11.999885"
       transform="matrix(-0.70710678,0.70710678,-0.70710678,-0.70710678,0,0)"
       y="-567.74872"
       x="-7.4710279" /><rect
       style="fill:#333333"
       id="rect9435"
       height="47.199547"
       width="11.999885"
       transform="matrix(0.70710678,0.70710678,-0.70710678,0.70710678,0,0)"
       y="-157.00336"
       x="406.30453" /><circle
       style="fill:#333333"
       id="circle9437"
       r="12.4"
       cy="290.5"
       cx="292.60001" /><rect
       style="fill:#333333"
       id="rect9439"
       height="51.898457"
       width="7.0997887"
       transform="matrix(0.99442957,0.10540313,-0.10540313,0.99442957,0,0)"
       y="206.19299"
       x="317.94403" /><rect
       style="fill:#333333"
       id="rect9441"
       height="96.30085"
       width="7.1000624"
       transform="matrix(0.46579589,0.88489219,-0.88489219,0.46579589,0,0)"
       y="-219.8549"
       x="389.64532" /><path
       style="fill:#cf000f"
       inkscape:connector-curvature="0"
       id="path9443"
       d="m 300.2,263.8 c -2.8,0 -5,2.3 -5,5 0,1.7 0.8,3.2 2.1,4.1 l -38.1,107.5 2.6,0.9 38.1,-107.5 c 0.1,0 0.2,0 0.3,0 2.8,0 5,-2.3 5,-5 0,-2.7 -2.2,-5 -5,-5 z" /><text
       xml:space="preserve"
       style="font-style:normal;font-weight:normal;font-size:76.40260315px;line-height:125%;font-family:sans-serif;letter-spacing:0px;word-spacing:0px;fill:#0000ff;fill-opacity:1;stroke:none;stroke-width:1px;stroke-linecap:butt;stroke-linejoin:miter;stroke-opacity:1"
       x="486.13867"
       y="485.39578"
       id="text4153"
       sodipodi:linespacing="125%"><tspan
         sodipodi:role="line"
         id="tspan4155"
         x="486.13867"
         y="485.39578"
         style="font-style:normal;font-variant:normal;font-weight:bold;font-stretch:normal;font-family:sans-serif;-inkscape-font-specification:'sans-serif Bold';fill:#0000ff">sec</tspan></text>
<text
       xml:space="preserve"
       style="font-style:normal;font-weight:normal;font-size:11.68831158px;font-family:Lello;fill:#000000;fill-opacity:1;stroke:none;stroke-width:1px;stroke-linecap:butt;stroke-linejoin:miter;stroke-opacity:1"
       x="-2460.509"
       y="-3124.8994"
       id="text2171"><tspan
         sodipodi:role="line"
         id="tspan2173"
         x="-2460.509"
         y="-3124.8994" /></text>
<path
       inkscape:connector-curvature="0"
       style="font-style:normal;font-weight:normal;font-size:2050.27807617px;font-family:'Times New Roman';fill:#0000ff;fill-opacity:1;stroke:none;stroke-width:1px;stroke-linecap:butt;stroke-linejoin:miter;stroke-opacity:1"
       d="m 465.35513,487.76144 c -6.35932,6.81603 -11.89294,10.22403 -16.60089,10.22403 -3.02156,0 -5.83229,-1.15942 -8.4322,-3.47826 l 0,2.79315 c -2e-5,3.23234 0.49186,6.48226 1.47563,9.74973 1.12428,3.61882 1.68643,6.00794 1.68644,7.16738 -10e-6,1.61615 -0.50946,2.95123 -1.52833,4.00529 -1.01891,1.05399 -2.28374,1.58102 -3.79449,1.58104 -1.54591,-2e-5 -2.77561,-0.61488 -3.68909,-1.84455 -0.91349,-1.22973 -1.37024,-2.70534 -1.37023,-4.4269 -10e-6,-1.26484 0.45674,-3.54855 1.37023,-6.85116 1.05402,-3.65396 1.58103,-7.2025 1.58104,-10.64566 l 0,-47.80001 8.6957,0 0,31.25182 c -1e-5,3.16209 0.27228,5.48095 0.81687,6.95657 0.54456,1.47566 1.51076,2.679 2.89857,3.61005 1.38778,0.93105 2.96002,1.39657 4.71676,1.39657 3.12691,0 7.1849,-2.14318 12.17399,-6.42955 l 0,-36.78546 8.7484,0 0,36.62736 c -5e-5,3.09181 0.31616,5.2262 0.94862,6.40321 0.63237,1.17699 1.70396,1.76549 3.21478,1.76549 2.38906,0 3.93497,-2.33642 4.6377,-7.00927 l 1.89724,0 c -0.6676,7.97545 -4.04047,11.96316 -10.11863,11.96316 -2.6351,0 -4.8222,-0.88713 -6.5613,-2.6614 -1.73918,-1.77427 -2.66145,-4.29514 -2.76681,-7.56263 z"
       id="text2175"
       sodipodi:nodetypes="cscscccccscsccsccscccccsccsccc" /><text
       xml:space="preserve"
       style="font-style:normal;font-weight:normal;font-size:76.40260315px;line-height:125%;font-family:sans-serif;letter-spacing:0px;word-spacing:0px;fill:#0000ff;fill-opacity:1;stroke:none;stroke-width:1px;stroke-linecap:butt;stroke-linejoin:miter;stroke-opacity:1"
       x="471.18399"
       y="427.81293"
       id="text4153-6"
       sodipodi:linespacing="125%"><tspan
         sodipodi:role="line"
         id="tspan4155-7"
         x="471.18399"
         y="427.81293"
         style="font-style:normal;font-variant:normal;font-weight:bold;font-stretch:normal;font-family:sans-serif;-inkscape-font-specification:'sans-serif Bold';fill:#0000ff">10x</tspan></text>
</g></svg>