<?xml version="1.0" encoding="UTF-8" standalone="no"?>
<!-- Generator: Adobe Illustrator 21.0.0, SVG Export Plug-In . SVG Version: 6.00 Build 0)  -->

<svg
   xmlns:dc="http://purl.org/dc/elements/1.1/"
   xmlns:cc="http://creativecommons.org/ns#"
   xmlns:rdf="http://www.w3.org/1999/02/22-rdf-syntax-ns#"
   xmlns:svg="http://www.w3.org/2000/svg"
   xmlns="http://www.w3.org/2000/svg"
   xmlns:xlink="http://www.w3.org/1999/xlink"
   xmlns:sodipodi="http://sodipodi.sourceforge.net/DTD/sodipodi-0.dtd"
   xmlns:inkscape="http://www.inkscape.org/namespaces/inkscape"
   version="1.1"
   x="0px"
   y="0px"
   viewBox="0 0 505.89835 399.4"
   enable-background="new 0 0 595.3 595.3"
   xml:space="preserve"
   id="svg2"
   inkscape:version="0.91 r13725"
   sodipodi:docname="timer-secs.svg"
   width="505.89835"
   height="399.39999"><metadata
     id="metadata9449"><rdf:RDF><cc:Work
         rdf:about=""><dc:format>image/svg+xml</dc:format><dc:type
           rdf:resource="http://purl.org/dc/dcmitype/StillImage" /><dc:title></dc:title></cc:Work></rdf:RDF></metadata><defs
     id="defs9447" /><sodipodi:namedview
     pagecolor="#ffffff"
     bordercolor="#666666"
     borderopacity="1"
     objecttolerance="10"
     gridtolerance="10"
     guidetolerance="10"
     inkscape:pageopacity="0"
     inkscape:pageshadow="2"
     inkscape:window-width="1215"
     inkscape:window-height="1000"
     id="namedview9445"
     showgrid="false"
     inkscape:zoom="0.79287756"
     inkscape:cx="288.23815"
     inkscape:cy="193.02537"
     inkscape:window-x="88"
     inkscape:window-y="24"
     inkscape:window-maximized="1"
     inkscape:current-layer="g7"
     fit-margin-top="0"
     fit-margin-left="0"
     fit-margin-right="0"
     fit-margin-bottom="0" /><g
     id="Background"
     transform="translate(-92.9,-90.8)" /><g
     id="Capa_1"
     transform="translate(-92.9,-90.8)" /><g
     id="g7"
     transform="translate(-92.9,-90.8)"><defs
       id="defs9"><rect
         height="640"
         width="653.59998"
         y="-45"
         x="-58.299999"
         id="SVGID_1_" /></defs><clipPath
       id="SVGID_2_"><use
         height="100%"
         width="100%"
         y="0"
         x="0"
         style="overflow:visible"
         id="use13"
         overflow="visible"
         xlink:href="#SVGID_1_" /></clipPath><circle
       style="fill:#ffffff"
       id="circle9409"
       r="181.8"
       cy="290.5"
       cx="292.60001" /><path
       style="fill:#333333"
       inkscape:connector-curvature="0"
       id="path9411"
       d="m 292.6,90.8 c -110.3,0 -199.7,89.4 -199.7,199.7 0,110.3 89.4,199.7 199.7,199.7 110.3,0 199.7,-89.4 199.7,-199.7 0,-110.3 -89.4,-199.7 -199.7,-199.7 z m 0,376.5 c -97.7,0 -176.8,-79.2 -176.8,-176.8 0,-97.6 79.2,-176.8 176.8,-176.8 97.6,0 176.8,79.2 176.8,176.8 0,97.6 -79.2,176.8 -176.8,176.8 z" /><rect
       style="fill:#333333"
       id="rect9421"
       height="47.200001"
       width="12"
       y="134.89999"
       x="286.60001" /><rect
       style="fill:#333333"
       id="rect9423"
       height="47.200001"
       width="12"
       transform="matrix(0,-1,1,0,0,0)"
       y="137.09779"
       x="-296.4223" /><rect
       style="fill:#333333"
       id="rect9425"
       height="47.200001"
       width="12"
       transform="scale(-1,-1)"
       y="-445.97141"
       x="-298.56699" /><rect
       style="fill:#333333"
       id="rect9427"
       height="47.200001"
       width="12"
       transform="matrix(0,1,-1,0,0,0)"
       y="-448.06921"
       x="284.45541" /><rect
       style="fill:#333333"
       id="rect9429"
       height="47.199547"
       width="11.999885"
       transform="matrix(0.70710678,-0.70710678,0.70710678,0.70710678,0,0)"
       y="256.77228"
       x="-4.5014672" /><rect
       style="fill:#333333"
       id="rect9431"
       height="47.199547"
       width="11.999885"
       transform="matrix(-0.70710678,-0.70710678,0.70710678,-0.70710678,0,0)"
       y="-153.9731"
       x="-418.27701" /><rect
       style="fill:#333333"
       id="rect9433"
       height="47.199547"
       width="11.999885"
       transform="matrix(-0.70710678,0.70710678,-0.70710678,-0.70710678,0,0)"
       y="-567.74872"
       x="-7.4710279" /><rect
       style="fill:#333333"
       id="rect9435"
       height="47.199547"
       width="11.999885"
       transform="matrix(0.70710678,0.70710678,-0.70710678,0.70710678,0,0)"
       y="-157.00336"
       x="406.30453" /><circle
       style="fill:#333333"
       id="circle9437"
       r="12.4"
       cy="290.5"
       cx="292.60001" /><rect
       style="fill:#333333"
       id="rect9439"
       height="51.898457"
       width="7.0997887"
       transform="matrix(0.99442957,0.10540313,-0.10540313,0.99442957,0,0)"
       y="206.19299"
       x="317.94403" /><rect
       style="fill:#333333"
       id="rect9441"
       height="96.30085"
       width="7.1000624"
       transform="matrix(0.46579589,0.88489219,-0.88489219,0.46579589,0,0)"
       y="-219.8549"
       x="389.64532" /><path
       style="fill:#cf000f"
       inkscape:connector-curvature="0"
       id="path9443"
       d="m 300.2,263.8 c -2.8,0 -5,2.3 -5,5 0,1.7 0.8,3.2 2.1,4.1 l -38.1,107.5 2.6,0.9 38.1,-107.5 c 0.1,0 0.2,0 0.3,0 2.8,0 5,-2.3 5,-5 0,-2.7 -2.2,-5 -5,-5 z" /><text
       xml:space="preserve"
       style="font-style:normal;font-weight:normal;font-size:76.40260315px;line-height:125%;font-family:sans-serif;letter-spacing:0px;word-spacing:0px;fill:#0000ff;fill-opacity:1;stroke:none;stroke-width:1px;stroke-linecap:butt;stroke-linejoin:miter;stroke-opacity:1"
       x="434.42828"
       y="486.65704"
       id="text4153"
       sodipodi:linespacing="125%"><tspan
         sodipodi:role="line"
         id="tspan4155"
         x="434.42828"
         y="486.65704"
         style="font-style:normal;font-variant:normal;font-weight:bold;font-stretch:normal;font-family:sans-serif;-inkscape-font-specification:'sans-serif Bold';fill:#0000ff">SEG</tspan></text>
</g></svg>