<?xml version="1.0" encoding="UTF-8" standalone="no"?>
<!-- Created with Inkscape (http://www.inkscape.org/) -->

<svg
   xmlns:dc="http://purl.org/dc/elements/1.1/"
   xmlns:cc="http://creativecommons.org/ns#"
   xmlns:rdf="http://www.w3.org/1999/02/22-rdf-syntax-ns#"
   xmlns:svg="http://www.w3.org/2000/svg"
   xmlns="http://www.w3.org/2000/svg"
   xmlns:sodipodi="http://sodipodi.sourceforge.net/DTD/sodipodi-0.dtd"
   xmlns:inkscape="http://www.inkscape.org/namespaces/inkscape"
   width="35.42635mm"
   height="19.731913mm"
   viewBox="0 0 125.52643 69.916225"
   id="svg2"
   version="1.1"
   inkscape:version="0.91 r13725"
   sodipodi:docname="divisor_2.svg">
  <defs
     id="defs4">
    <marker
       inkscape:isstock="true"
       style="overflow:visible"
       id="Arrow2Sstart"
       refX="0"
       refY="0"
       orient="auto"
       inkscape:stockid="Arrow2Sstart">
      <path
         inkscape:connector-curvature="0"
         transform="matrix(0.3,0,0,0.3,-0.69,0)"
         d="M 8.7185878,4.0337352 -2.2072895,0.01601326 8.7185884,-4.0017078 c -1.7454984,2.3720609 -1.7354408,5.6174519 -6e-7,8.035443 z"
         style="fill:#0000ff;fill-opacity:1;fill-rule:evenodd;stroke:#0000ff;stroke-width:0.625;stroke-linejoin:round;stroke-opacity:1"
         id="path4321" />
    </marker>
    <marker
       inkscape:isstock="true"
       style="overflow:visible"
       id="Arrow1Sstart"
       refX="0"
       refY="0"
       orient="auto"
       inkscape:stockid="Arrow1Sstart">
      <path
         inkscape:connector-curvature="0"
         transform="matrix(0.2,0,0,0.2,1.2,0)"
         style="fill:#000000;fill-opacity:1;fill-rule:evenodd;stroke:#000000;stroke-width:1pt;stroke-opacity:1"
         d="M 0,0 5,-5 -12.5,0 5,5 0,0 Z"
         id="path4303" />
    </marker>
    <marker
       inkscape:isstock="true"
       style="overflow:visible"
       id="Arrow2Send"
       refX="0"
       refY="0"
       orient="auto"
       inkscape:stockid="Arrow2Send">
      <path
         inkscape:connector-curvature="0"
         transform="matrix(-0.3,0,0,-0.3,0.69,0)"
         d="M 8.7185878,4.0337352 -2.2072895,0.01601326 8.7185884,-4.0017078 c -1.7454984,2.3720609 -1.7354408,5.6174519 -6e-7,8.035443 z"
         style="fill:#0000ff;fill-opacity:1;fill-rule:evenodd;stroke:#0000ff;stroke-width:0.625;stroke-linejoin:round;stroke-opacity:1"
         id="path4324" />
    </marker>
    <marker
       inkscape:isstock="true"
       style="overflow:visible"
       id="Arrow1Send"
       refX="0"
       refY="0"
       orient="auto"
       inkscape:stockid="Arrow1Send">
      <path
         inkscape:connector-curvature="0"
         transform="matrix(-0.2,0,0,-0.2,-1.2,0)"
         style="fill:#000000;fill-opacity:1;fill-rule:evenodd;stroke:#000000;stroke-width:1pt;stroke-opacity:1"
         d="M 0,0 5,-5 -12.5,0 5,5 0,0 Z"
         id="path4306" />
    </marker>
    <marker
       inkscape:isstock="true"
       style="overflow:visible"
       id="Arrow1Mend"
       refX="0"
       refY="0"
       orient="auto"
       inkscape:stockid="Arrow1Mend">
      <path
         inkscape:connector-curvature="0"
         transform="matrix(-0.4,0,0,-0.4,-4,0)"
         style="fill:#000000;fill-opacity:1;fill-rule:evenodd;stroke:#000000;stroke-width:1pt;stroke-opacity:1"
         d="M 0,0 5,-5 -12.5,0 5,5 0,0 Z"
         id="path4300" />
    </marker>
  </defs>
  <sodipodi:namedview
     id="base"
     pagecolor="#ffffff"
     bordercolor="#666666"
     borderopacity="1.0"
     inkscape:pageopacity="0.0"
     inkscape:pageshadow="2"
     inkscape:zoom="2.8"
     inkscape:cx="35.003608"
     inkscape:cy="68.09067"
     inkscape:document-units="px"
     inkscape:current-layer="g4240"
     showgrid="false"
     fit-margin-top="0"
     fit-margin-left="0"
     fit-margin-right="0"
     fit-margin-bottom="0"
     inkscape:window-width="1215"
     inkscape:window-height="1000"
     inkscape:window-x="65"
     inkscape:window-y="24"
     inkscape:window-maximized="1" />
  <metadata
     id="metadata7">
    <rdf:RDF>
      <cc:Work
         rdf:about="">
        <dc:format>image/svg+xml</dc:format>
        <dc:type
           rdf:resource="http://purl.org/dc/dcmitype/StillImage" />
        <dc:title />
      </cc:Work>
    </rdf:RDF>
  </metadata>
  <g
     inkscape:label="Layer 1"
     inkscape:groupmode="layer"
     id="layer1"
     transform="translate(-300.64558,-453.30613)">
    <path
       style="fill:#000000"
       d="m 359.03807,522.79841 c -0.80473,-0.21004 -1.67365,-0.57218 -1.93092,-0.80502 -1.13956,-1.03127 -1.96415,-3.25739 -2.28046,-6.15639 -0.12403,-1.13539 -0.21113,-1.35165 -0.50888,-1.25965 -0.19761,0.0611 -1.07032,0.25943 -1.93924,0.44053 -6.21318,1.29576 -13.91609,1.37077 -20.85441,0.20309 -1.06348,-0.17894 -1.97108,-0.28799 -2.0169,-0.24225 -0.0966,0.0966 0.85787,3.37277 1.33057,4.56685 0.4106,1.03723 0.27152,1.36733 -0.74754,1.77511 -3.92596,1.57083 -9.50926,1.45842 -13.41711,-0.27041 -1.48432,-0.65661 -1.75905,-1.35504 -1.72602,-4.38813 0.0183,-1.79919 0.15845,-2.99564 0.4907,-4.2332 0.25468,-0.94878 0.4634,-1.79121 0.4634,-1.87204 0,-0.0808 -0.53812,-0.51756 -1.19582,-0.97054 -1.17418,-0.80867 -5.0017,-4.62586 -5.68671,-5.67126 -0.25248,-0.38553 -0.92925,-0.72313 -2.45796,-1.22631 -2.17043,-0.71438 -2.82451,-1.097 -4.23762,-2.47892 -1.61532,-1.57969 -2.12168,-3.49583 -1.2666,-4.79295 0.63733,-0.9668 2.10389,-1.83908 4.157,-2.47253 l 1.85497,-0.5723 1.88973,-3.83027 c 8.06657,-16.35012 19.02346,-26.67996 30.7057,-28.94841 2.71155,-0.52656 7.33559,-0.47054 10.19181,0.12333 10.80049,2.24601 21.53233,10.28903 33.18249,24.86878 l 1.99064,2.49123 1.58503,0.40014 c 1.64404,0.41503 2.47424,0.8789 2.87676,1.60737 0.12916,0.23383 0.26053,0.46714 0.29164,0.51838 0.11935,0.19576 1.41849,-1.21856 1.78828,-1.94692 0.9005,-1.77359 0.77983,-3.50707 -0.56864,-8.16692 -1.63712,-5.65751 -2.14444,-9.33556 -1.98072,-14.36027 0.12077,-3.70544 0.39761,-5.19664 1.35357,-7.29003 0.70243,-1.53807 2.30611,-3.19906 3.79446,-3.92999 1.11376,-0.54694 1.44747,-0.60238 3.6257,-0.60238 2.05697,0 2.66327,0.0885 4.25279,0.62063 8.58627,2.87465 18.93231,11.35465 22.44387,18.3958 2.61714,5.24778 2.16739,9.81297 -1.2805,12.99782 -2.17705,2.01095 -4.87014,2.97968 -8.2959,2.98419 -3.18246,0.004 -5.96996,-0.68201 -9.04246,-2.22587 -0.95498,-0.47983 -1.76473,-0.78749 -1.79941,-0.68365 -0.033,0.10387 -0.55917,1.02297 -1.16546,2.04257 -3.87056,6.50901 -9.80199,11.34443 -16.69474,13.60981 -2.00133,0.65779 -2.2671,0.97701 -2.2671,2.72326 0,1.94903 1.4074,5.19813 3.91253,9.0325 0.84689,1.29623 1.5398,2.52829 1.5398,2.73789 0,0.73031 -2.31394,2.58345 -4.10537,3.28784 -2.37077,0.93222 -5.25793,0.97565 -7.97833,0.12006 -2.75341,-0.86605 -4.05517,-3.63505 -4.05517,-8.62582 0,-1.19165 -0.0882,-2.16665 -0.19576,-2.16665 -0.14382,0 -3.72922,2.08765 -4.35216,2.53422 -0.12773,0.0915 1.06555,3.53195 2.06931,5.96547 l 0.94214,2.28404 -1.24911,1.20546 c -2.79772,2.69983 -7.27409,3.73805 -11.43597,2.65237 z m 6.95832,-1.57075 c 1.30696,-0.44964 3.02888,-1.46361 3.64871,-2.14851 0.35605,-0.39358 0.32713,-0.53295 -0.60058,-2.88722 -1.71079,-4.34125 -2.67485,-8.43816 -2.49526,-10.60383 0.0644,-0.77704 0.0183,-1.12909 -0.1408,-1.07011 -0.33958,0.12631 -6.98287,1.61936 -8.44762,1.89885 -1.44151,0.27517 -1.36664,0.0885 -1.7041,4.24617 -0.43859,5.40338 0.51792,9.74747 2.31128,10.49678 1.91672,0.80085 5.21041,0.83097 7.42837,0.068 z m -38.47337,-0.6132 c 0.93424,-0.22358 1.75134,-0.45927 1.81585,-0.52379 0.0644,-0.0644 -0.176,-1.03398 -0.53442,-2.15439 -1.24337,-3.88644 -1.45787,-7.83016 -0.51303,-9.43158 0.25066,-0.4245 0.3867,-0.81095 0.30262,-0.85882 -0.0838,-0.0479 -0.88867,-0.15697 -1.7883,-0.2426 -0.89965,-0.0857 -2.99945,-0.39475 -4.66629,-0.68702 -1.66685,-0.29236 -3.0539,-0.50479 -3.0824,-0.47232 -0.18589,0.21223 -1.67746,4.50898 -2.06431,5.94757 -0.53201,1.97853 -0.7856,4.80564 -0.56371,6.2852 0.14637,0.97638 0.1771,1.00859 1.39208,1.46702 3.01479,1.13746 6.68959,1.39149 9.70177,0.67066 z m 57.52285,-3.26636 c 0.77459,-0.37862 1.72722,-0.96475 2.11693,-1.30245 l 0.70852,-0.61403 -1.22162,-1.83812 c -2.6553,-3.99531 -4.47635,-8.63325 -4.15858,-10.59141 l 0.1229,-0.75836 -0.73727,0.64734 c -0.4055,0.35604 -0.96456,0.71685 -1.24233,0.80181 -0.27774,0.085 -1.75635,0.88835 -3.28572,1.78533 l -2.78067,1.63083 0,1.92573 c 0,3.82798 0.69379,6.75604 1.8606,7.85219 0.86746,0.81494 2.98296,1.30949 5.23662,1.2242 1.68089,-0.0637 2.18002,-0.17638 3.38046,-0.76306 z m -35.88546,-3.19167 c 1.19949,-0.1815 2.31153,-0.37877 2.47117,-0.43853 0.18844,-0.0706 -0.12077,-0.4844 -0.88223,-1.18019 -1.17688,-1.0756 -2.15796,-2.72472 -2.45924,-4.13389 -0.15406,-0.72075 -0.17383,-0.73188 -1.06099,-0.59791 -0.49715,0.075 -3.43106,0.20015 -6.51981,0.27773 -6.30053,0.15844 -5.90841,0.0219 -5.28188,1.83371 0.45659,1.32016 1.61298,2.84199 2.98822,3.93258 l 1.14866,0.91089 3.70759,-0.13725 c 2.03917,-0.0753 4.68899,-0.28579 5.88851,-0.46714 z m -12.02735,-0.22103 c -1.07152,-0.84465 -2.32115,-2.89958 -2.71832,-4.47012 l -0.3586,-1.41757 -1.57631,-0.0644 c -1.75672,-0.072 -2.39671,0.19395 -2.91757,1.21157 -0.43079,0.8418 -0.63911,2.30234 -0.47056,3.29976 l 0.14343,0.84825 1.89324,0.36006 c 2.57762,0.49005 4.30279,0.72102 5.60079,0.74978 l 1.09044,0.0256 -0.6865,-0.54121 z m 17.38892,-0.95424 c 0.12475,-0.13285 0.68315,-5.94625 0.5797,-6.03773 -0.0293,-0.0256 -0.93605,0.086 -2.01564,0.24773 -1.07953,0.1621 -2.38566,0.31689 -2.90244,0.34432 -0.5168,0.0256 -0.99012,0.13143 -1.05185,0.23127 -0.2437,0.3941 0.64615,2.37344 1.50585,3.35009 1.34801,1.53144 2.49108,2.29702 3.18581,2.13378 0.31433,-0.0739 0.62851,-0.19504 0.69857,-0.26969 z m 17.81696,-6.15369 c 2.00575,-1.21087 3.87206,-2.34463 4.14735,-2.51948 l 0.50047,-0.31798 -0.57435,-0.68255 c -0.44021,-0.52317 -0.54454,-0.83141 -0.4468,-1.32014 0.1087,-0.54258 0.071,-0.61551 -0.25322,-0.48941 -0.2093,0.0815 -1.94336,0.67757 -3.85317,1.3247 -1.90982,0.64709 -3.55218,1.30231 -3.64974,1.45604 -0.21004,0.33078 -0.2426,3.09514 -0.0476,4.06882 0.075,0.37485 0.22504,0.68153 0.33335,0.68153 0.10827,0 1.83813,-0.99074 3.84389,-2.20164 z m -55.25161,0.53933 c 0.31798,-0.79431 0.5492,-1.4649 0.51389,-1.49017 -0.16832,-0.12035 -6.18081,-1.58708 -6.24915,-1.5244 -0.2675,0.24517 4.3587,4.45879 4.89557,4.45879 0.14382,0 0.5217,-0.64987 0.83969,-1.44422 z m 30.98259,-1.06535 c 8.1213,-0.71507 16.36914,-2.44969 23.87894,-5.022 4.97591,-1.70439 5.93802,-2.17581 6.57224,-3.22025 1.56922,-2.58424 4.81065,-5.60185 7.91418,-7.3676 0.91004,-0.51778 1.65465,-1.00431 1.65465,-1.08112 0,-0.22723 -0.91937,-0.57947 -2.21547,-0.84853 -1.13519,-0.23565 -1.32716,-0.20967 -3.02971,0.41177 -2.82722,1.03183 -4.65624,2.22666 -6.9226,4.52235 -2.17863,2.20679 -2.55586,2.42795 -6.05249,3.54801 -15.21082,4.87248 -34.14078,5.5502 -51.24224,1.83457 -3.04037,-0.66059 -7.91857,-1.97568 -10.5775,-2.85159 -1.83688,-0.60507 -1.85349,-0.61712 -1.82162,-1.31946 0.0183,-0.38982 -0.0523,-0.7088 -0.15553,-0.7088 -0.51817,0 -2.69223,0.9757 -3.2845,1.47404 -0.61614,0.51847 -0.66503,0.65435 -0.56256,1.56336 0.0985,0.87229 0.27114,1.14424 1.39449,2.19596 1.13208,1.05978 1.56232,1.29505 3.6738,2.00873 8.31618,2.81093 14.65807,4.11595 24.5279,5.04737 2.38673,0.2254 12.94738,0.10387 16.24792,-0.18662 z m 34.76001,-5.81009 c 4.68195,-1.00741 9.04374,-3.21165 12.82926,-6.48323 2.5505,-2.20432 6.02448,-6.72845 7.0293,-9.15433 0.26823,-0.64757 0.24371,-0.70919 -0.63948,-1.60724 -0.98975,-1.00631 -1.99028,-2.79208 -2.38431,-4.25539 l -0.24553,-0.91154 -1.46639,-0.0644 c -1.40155,-0.0615 -1.46635,-0.0885 -1.46635,-0.60959 0,-0.52085 0.0746,-0.55199 1.66779,-0.69649 2.25942,-0.20491 3.13668,-0.59861 3.55272,-1.59428 0.26274,-0.62895 0.43476,-0.77945 0.82703,-0.72376 1.15408,0.16394 0.18186,2.70391 -1.20315,3.14348 -0.36043,0.11452 -0.4012,0.26456 -0.27883,1.02901 0.31614,1.97751 2.48478,4.59875 5.01012,6.05588 1.54363,0.89073 4.80852,1.90571 6.87301,2.13668 5.17332,0.57879 9.18147,-1.12029 10.97781,-4.65352 1.65126,-3.24784 0.73316,-7.58949 -2.58951,-12.2458 -2.35579,-3.30134 -6.80166,-7.36391 -11.20607,-10.23986 -9.75253,-6.36815 -15.9554,-6.66306 -18.53328,-0.88113 -0.95977,2.15267 -1.20688,3.78077 -1.17852,7.76517 0.033,4.7517 0.70689,8.70134 2.39718,14.06698 0.67256,2.13494 0.89973,4.85699 0.53294,6.38594 -0.58822,2.4519 -2.09559,3.86043 -4.99043,4.66312 -0.78872,0.21882 -1.97847,0.7564 -2.64389,1.19484 -1.59962,1.05397 -4.98922,4.45641 -5.96316,5.98573 -0.42677,0.67012 -1.03165,1.38597 -1.34421,1.59074 -1.42204,0.93179 0.38864,0.97379 4.43598,0.10286 z m 18.5838,-33.42366 c -1.0334,-1.09999 -0.70864,-3.369 0.55068,-3.8478 1.77453,-0.67465 3.16005,1.55633 2.1634,3.48364 -0.54131,1.04675 -1.90137,1.22925 -2.71408,0.36409 z m 8.27292,-1.43349 c -0.85146,-0.85146 -0.82986,-2.28122 0.0487,-3.22241 1.25126,-1.34052 3.09901,0.35348 2.56176,2.34877 -0.35201,1.30704 -1.71934,1.7647 -2.6104,0.87364 z m -65.19891,23.46567 c -1.1e-4,-5.98309 -0.0293,-10.90569 -0.0629,-10.93903 -0.32493,-0.31468 -3.45103,-1.69479 -4.45372,-1.96617 -2.75283,-0.74505 -6.69681,-0.60643 -8.58359,0.30153 -0.91965,0.44262 -2.1973,2.55545 -4.30855,7.125 -2.12816,4.60609 -5.94687,14.37482 -5.70255,14.58776 0.1676,0.14601 7.97455,1.22426 10.44547,1.4425 3.72922,0.32932 4.54668,0.36116 8.7865,0.34323 l 3.87938,-0.0183 -1.4e-4,-10.87838 z m 6.12168,10.54262 c 2.81341,-0.28249 7.44338,-0.95754 9.70535,-1.4152 4.16624,-0.843 10.54585,-2.63745 10.54585,-2.96637 0,-0.56686 -1.49417,-4.10165 -2.78125,-6.57974 -1.66459,-3.20488 -3.96143,-6.8204 -6.6238,-10.42662 -1.55985,-2.1129 -1.92523,-2.47509 -3.10583,-3.079 -1.13435,-0.58021 -1.6368,-0.69837 -3.30086,-0.77606 -2.83588,-0.13242 -4.95015,0.63038 -7.90584,2.85219 l -1.145,0.86068 0,10.87842 0,10.87842 1.1764,0 c 0.64702,0 2.19275,-0.10201 3.43498,-0.22686 z m -30.56439,-2.06193 c 0,-0.47704 2.41859,-6.89084 4.06879,-10.78979 1.47294,-3.48021 3.6404,-7.95074 4.56456,-9.41475 0.28945,-0.45873 0.52653,-0.97537 0.52653,-1.14808 0,-0.45693 -2.31808,-2.45049 -3.58142,-3.08003 -1.2805,-0.63812 -2.94968,-0.71596 -4.24436,-0.19797 -1.30728,0.5231 -4.82847,5.11247 -8.10379,10.56228 -1.76878,2.94306 -5.5236,10.59942 -5.38075,10.97173 0.12446,0.32385 3.51195,1.36954 8.33382,2.57269 3.80494,0.94941 3.81662,0.95102 3.81662,0.52389 z m 52.96215,-2.94559 c 0.0813,0 0.58866,-0.5529 1.12714,-1.22865 0.5385,-0.67578 1.65149,-1.75524 2.47326,-2.39884 1.42538,-1.11627 5.52431,-3.35146 6.14594,-3.35146 0.71469,0 0.44797,-0.57515 -1.23827,-2.67013 -2.94431,-3.65804 -5.43309,-6.45989 -8.21709,-9.2507 -3.51815,-3.52678 -4.87677,-4.65893 -5.86692,-4.88881 -1.11474,-0.2587 -3.04746,-0.24773 -4.02235,0.0219 -1.01558,0.28212 -2.08161,1.4847 -2.26169,2.55142 -0.0764,0.45235 -0.17892,0.97171 -0.2276,1.15404 -0.049,0.18224 0.86274,1.65451 2.0257,3.27142 4.20129,5.84112 7.8623,12.30854 8.92115,15.75994 0.27408,0.89362 0.47523,1.22734 0.68984,1.14498 0.1665,-0.0641 0.3695,-0.11637 0.45093,-0.11637 z M 346.6985,475.82203 c 4.01568,-2.88114 8.02112,-3.67732 11.4771,-2.28141 l 1.32259,0.53422 0.14636,-0.67909 c 0.52284,-2.42407 2.27548,-3.92958 4.89329,-4.20317 l 1.31591,-0.13754 -1.47682,-1.07057 c -4.5811,-3.32095 -9.88022,-5.8102 -14.56236,-6.8406 -2.39566,-0.52722 -6.81953,-0.63762 -9.26897,-0.23127 -4.02955,0.6684 -7.45336,2.07123 -11.22664,4.59975 -2.2249,1.49094 -6.43885,4.98453 -6.43885,5.33812 0,0.0845 0.5918,0.26383 1.31516,0.3982 1.83034,0.3403 3.08614,1.02508 4.81416,2.62475 l 1.48505,1.37477 1.37353,-0.42422 c 3.71438,-1.14728 8.51216,-0.5611 12.05804,1.4732 0.59974,0.34397 1.10904,0.63612 1.13176,0.64899 0.0219,0.0146 0.76094,-0.49293 1.64057,-1.12403 z"
       id="path4147"
       inkscape:connector-curvature="0" />
    <g
       id="g4240"
       transform="translate(556.02513,57.199615)">
      <text
         sodipodi:linespacing="125%"
         id="text4155-5-3"
         y="458.09741"
         x="-144.75912"
         style="font-style:normal;font-weight:normal;font-size:39.15548325px;line-height:125%;font-family:sans-serif;letter-spacing:0px;word-spacing:0px;fill:#ff0000;fill-opacity:1;stroke:none;stroke-width:1px;stroke-linecap:butt;stroke-linejoin:miter;stroke-opacity:1"
         xml:space="preserve"><tspan
           style="font-style:normal;font-variant:normal;font-weight:bold;font-stretch:normal;font-size:22.37456131px;font-family:sans-serif;-inkscape-font-specification:'sans-serif Bold';fill:#ff0000"
           y="458.09741"
           x="-144.75912"
           id="tspan4157-6-6"
           sodipodi:role="line">2</tspan></text>
      <circle
         style="opacity:1;fill:#ff0000;fill-opacity:1;stroke:none;stroke-width:2;stroke-linecap:round;stroke-linejoin:round;stroke-miterlimit:4;stroke-dasharray:none;stroke-dashoffset:0;stroke-opacity:1"
         id="path4195"
         cx="-155.91299"
         cy="443.44415"
         r="3.661803" />
      <path
         style="fill:#ff0000;fill-rule:evenodd;stroke:#ff0000;stroke-width:3.99999952;stroke-linecap:round;stroke-linejoin:miter;stroke-miterlimit:4;stroke-dasharray:none;stroke-opacity:1"
         d="m -164.85761,451.14656 17.24897,0"
         id="path4197"
         inkscape:connector-curvature="0" />
      <circle
         style="opacity:1;fill:#ff0000;fill-opacity:1;stroke:none;stroke-width:2;stroke-linecap:round;stroke-linejoin:round;stroke-miterlimit:4;stroke-dasharray:none;stroke-dashoffset:0;stroke-opacity:1"
         id="path4195-7"
         cx="-155.91299"
         cy="458.59644"
         r="3.6618025" />
    </g>
  </g>
</svg>
