<?xml version="1.0" encoding="UTF-8" standalone="no"?>
<svg
   xmlns:dc="http://purl.org/dc/elements/1.1/"
   xmlns:cc="http://creativecommons.org/ns#"
   xmlns:rdf="http://www.w3.org/1999/02/22-rdf-syntax-ns#"
   xmlns:svg="http://www.w3.org/2000/svg"
   xmlns="http://www.w3.org/2000/svg"
   xmlns:sodipodi="http://sodipodi.sourceforge.net/DTD/sodipodi-0.dtd"
   xmlns:inkscape="http://www.inkscape.org/namespaces/inkscape"
   viewBox="-252 400.9 74.053115 53.880894"
   width="74.053116"
   height="53.880894"
   id="svg4332"
   version="1.1"
   inkscape:version="0.91 r13725"
   sodipodi:docname="Timer-1_4.svg">
  <metadata
     id="metadata4340">
    <rdf:RDF>
      <cc:Work
         rdf:about="">
        <dc:format>image/svg+xml</dc:format>
        <dc:type
           rdf:resource="http://purl.org/dc/dcmitype/StillImage" />
        <dc:title></dc:title>
      </cc:Work>
    </rdf:RDF>
  </metadata>
  <defs
     id="defs4338">
    <marker
       inkscape:stockid="Arrow2Sstart"
       orient="auto"
       refY="0"
       refX="0"
       id="Arrow2Sstart"
       style="overflow:visible"
       inkscape:isstock="true">
      <path
         id="path4321"
         style="fill:#0000ff;fill-opacity:1;fill-rule:evenodd;stroke:#0000ff;stroke-width:0.625;stroke-linejoin:round;stroke-opacity:1"
         d="M 8.7185878,4.0337352 -2.2072895,0.01601326 8.7185884,-4.0017078 c -1.7454984,2.3720609 -1.7354408,5.6174519 -6e-7,8.035443 z"
         transform="matrix(0.3,0,0,0.3,-0.69,0)"
         inkscape:connector-curvature="0" />
    </marker>
    <marker
       inkscape:stockid="Arrow1Sstart"
       orient="auto"
       refY="0"
       refX="0"
       id="Arrow1Sstart"
       style="overflow:visible"
       inkscape:isstock="true">
      <path
         id="path4303"
         d="M 0,0 5,-5 -12.5,0 5,5 0,0 Z"
         style="fill:#000000;fill-opacity:1;fill-rule:evenodd;stroke:#000000;stroke-width:1pt;stroke-opacity:1"
         transform="matrix(0.2,0,0,0.2,1.2,0)"
         inkscape:connector-curvature="0" />
    </marker>
    <marker
       inkscape:stockid="Arrow2Send"
       orient="auto"
       refY="0"
       refX="0"
       id="Arrow2Send"
       style="overflow:visible"
       inkscape:isstock="true">
      <path
         id="path4324"
         style="fill:#0000ff;fill-opacity:1;fill-rule:evenodd;stroke:#0000ff;stroke-width:0.625;stroke-linejoin:round;stroke-opacity:1"
         d="M 8.7185878,4.0337352 -2.2072895,0.01601326 8.7185884,-4.0017078 c -1.7454984,2.3720609 -1.7354408,5.6174519 -6e-7,8.035443 z"
         transform="matrix(-0.3,0,0,-0.3,0.69,0)"
         inkscape:connector-curvature="0" />
    </marker>
    <marker
       inkscape:stockid="Arrow1Send"
       orient="auto"
       refY="0"
       refX="0"
       id="Arrow1Send"
       style="overflow:visible"
       inkscape:isstock="true">
      <path
         id="path4306"
         d="M 0,0 5,-5 -12.5,0 5,5 0,0 Z"
         style="fill:#000000;fill-opacity:1;fill-rule:evenodd;stroke:#000000;stroke-width:1pt;stroke-opacity:1"
         transform="matrix(-0.2,0,0,-0.2,-1.2,0)"
         inkscape:connector-curvature="0" />
    </marker>
    <marker
       inkscape:stockid="Arrow1Mend"
       orient="auto"
       refY="0"
       refX="0"
       id="Arrow1Mend"
       style="overflow:visible"
       inkscape:isstock="true">
      <path
         id="path4300"
         d="M 0,0 5,-5 -12.5,0 5,5 0,0 Z"
         style="fill:#000000;fill-opacity:1;fill-rule:evenodd;stroke:#000000;stroke-width:1pt;stroke-opacity:1"
         transform="matrix(-0.4,0,0,-0.4,-4,0)"
         inkscape:connector-curvature="0" />
    </marker>
  </defs>
  <sodipodi:namedview
     pagecolor="#ffffff"
     bordercolor="#666666"
     borderopacity="1"
     objecttolerance="10"
     gridtolerance="10"
     guidetolerance="10"
     inkscape:pageopacity="0"
     inkscape:pageshadow="2"
     inkscape:window-width="1855"
     inkscape:window-height="1056"
     id="namedview4336"
     showgrid="false"
     inkscape:zoom="4.1588066"
     inkscape:cx="-2.8276447"
     inkscape:cy="-14.859213"
     inkscape:window-x="69"
     inkscape:window-y="1048"
     inkscape:window-maximized="1"
     inkscape:current-layer="svg4332"
     showguides="true"
     inkscape:guide-bbox="true"
     fit-margin-top="0"
     fit-margin-left="0"
     fit-margin-right="0"
     fit-margin-bottom="0" />
  <text
     xml:space="preserve"
     style="font-style:normal;font-weight:normal;font-size:17.5px;line-height:125%;font-family:sans-serif;letter-spacing:0px;word-spacing:0px;fill:#000000;fill-opacity:1;stroke:none;stroke-width:1px;stroke-linecap:butt;stroke-linejoin:miter;stroke-opacity:1"
     x="-210.31017"
     y="418.08066"
     id="text4155"
     sodipodi:linespacing="125%"><tspan
       sodipodi:role="line"
       id="tspan4157"
       x="-210.31017"
       y="418.08066"
       style="font-style:normal;font-variant:normal;font-weight:bold;font-stretch:normal;font-size:10px;font-family:sans-serif;-inkscape-font-specification:'sans-serif Bold'">Timer</tspan></text>
  <text
     xml:space="preserve"
     style="font-style:normal;font-weight:normal;font-size:17.5px;line-height:125%;font-family:sans-serif;letter-spacing:0px;word-spacing:0px;fill:#ff0000;fill-opacity:1;stroke:none;stroke-width:1px;stroke-linecap:butt;stroke-linejoin:miter;stroke-opacity:1"
     x="-203.32765"
     y="432.53925"
     id="text4155-5"
     sodipodi:linespacing="125%"><tspan
       sodipodi:role="line"
       id="tspan4157-6"
       x="-203.32765"
       y="432.53925"
       style="font-style:normal;font-variant:normal;font-weight:bold;font-stretch:normal;font-size:10px;font-family:sans-serif;-inkscape-font-specification:'sans-serif Bold';fill:#ff0000">1.4 </tspan></text>
  <g
     id="g4550"
     transform="matrix(0.04569134,0,0,0.04569134,-207.89542,422.90159)">
    <path
       id="path4552"
       d="m -22.855,28.257 c 0,13.668 -11.08,24.749 -24.749,24.749 -13.669,0 -24.749,-11.08 -24.749,-24.749 0,-13.669 11.08,-24.749 24.749,-24.749 13.669,0 24.749,11.08 24.749,24.749 z"
       transform="matrix(18.312,0,0,18.312,396.28,-309.56)"
       inkscape:connector-curvature="0"
       style="fill:none;stroke:#000000;stroke-width:4" />
    <g
       id="g4554"
       transform="matrix(18.312,0,0,18.312,396.28,-17699)">
      <path
         id="path4556"
         d="m -51.392,-9.371 7.3236,0 a 1.2627,1.2627 0 0 1 1.2627,1.2627 l 0,5.8084 a 1.2627,1.2627 0 0 1 -1.2627,1.2627 l -7.3236,0 a 1.2627,1.2627 0 0 1 -1.2627,-1.2627 l 0,-5.8084 a 1.2627,1.2627 0 0 1 1.2627,-1.2627"
         transform="translate(0,949.6)"
         inkscape:connector-curvature="0" />
      <path
         id="path4558"
         d="m -49.624,-1.2267 3.7881,0 0,2.9042 -3.7881,0 z"
         transform="translate(0,949.6)"
         inkscape:connector-curvature="0" />
    </g>
    <g
       id="g4560"
       transform="matrix(9.1687,-9.1687,9.1687,9.1687,-9079.2,-9297.1)">
      <path
         id="path4562"
         d="m -51.392,-9.371 7.3236,0 a 1.2627,1.2627 0 0 1 1.2627,1.2627 l 0,5.8084 a 1.2627,1.2627 0 0 1 -1.2627,1.2627 l -7.3236,0 a 1.2627,1.2627 0 0 1 -1.2627,-1.2627 l 0,-5.8084 a 1.2627,1.2627 0 0 1 1.2627,-1.2627"
         transform="translate(0,949.6)"
         inkscape:connector-curvature="0" />
      <path
         id="path4564"
         d="m -49.624,-1.2267 3.7881,0 0,2.9042 -3.7881,0 z"
         transform="translate(0,949.6)"
         inkscape:connector-curvature="0" />
    </g>
    <path
       id="path4566"
       d="m -22.855,28.257 a 24.749,24.749 0 1 1 -49.497,0 24.749,24.749 0 1 1 49.497,0 z"
       transform="matrix(1.4389,0,0,1.4389,-406.93,167.22)"
       inkscape:connector-curvature="0"
       style="fill:none;stroke:#000000;stroke-width:25.45299911" />
    <path
       id="path4568"
       d="m -488.89,156.58 6.9578,-253.53 6.7921,-13.013 6.5712,13.013 6.5002,253.53 z"
       inkscape:connector-curvature="0"
       style="stroke:#000000;stroke-width:14.13599968" />
    <path
       id="path4570"
       d="m -475.31,-186.47 0,44.106"
       inkscape:connector-curvature="0"
       style="fill:none;stroke:#000000;stroke-width:9.1559" />
    <path
       id="path4572"
       d="m -81.601,207.24 -44.105,0"
       inkscape:connector-curvature="0"
       style="fill:none;stroke:#000000;stroke-width:9.1559" />
    <path
       id="path4574"
       d="m -475.31,600.95 0,-44.105"
       inkscape:connector-curvature="0"
       style="fill:none;stroke:#000000;stroke-width:9.1559" />
    <path
       id="path4576"
       d="m -869.03,207.24 44.105,0"
       inkscape:connector-curvature="0"
       style="fill:none;stroke:#000000;stroke-width:9.1559" />
    <path
       id="path4578"
       d="m -278.46,-133.72 -22.053,38.196"
       inkscape:connector-curvature="0"
       style="fill:none;stroke:#000000;stroke-width:9.1559" />
    <path
       id="path4580"
       d="m -134.35,10.384 -38.196,22.053"
       inkscape:connector-curvature="0"
       style="fill:none;stroke:#000000;stroke-width:9.1559" />
    <path
       id="path4582"
       d="m -134.35,404.1 -38.196,-22.053"
       inkscape:connector-curvature="0"
       style="fill:none;stroke:#000000;stroke-width:9.1559" />
    <path
       id="path4584"
       d="m -278.46,548.21 -22.053,-38.197"
       inkscape:connector-curvature="0"
       style="fill:none;stroke:#000000;stroke-width:9.1559" />
    <path
       id="path4586"
       d="m -672.17,548.21 22.053,-38.197"
       inkscape:connector-curvature="0"
       style="fill:none;stroke:#000000;stroke-width:9.1559" />
    <path
       id="path4588"
       d="m -816.28,404.1 38.197,-22.053"
       inkscape:connector-curvature="0"
       style="fill:none;stroke:#000000;stroke-width:9.1559" />
    <path
       id="path4590"
       d="m -816.28,10.384 38.196,22.053"
       inkscape:connector-curvature="0"
       style="fill:none;stroke:#000000;stroke-width:9.1559" />
    <path
       id="path4592"
       d="m -672.17,-133.72 22.053,38.197"
       inkscape:connector-curvature="0"
       style="fill:none;stroke:#000000;stroke-width:9.1559" />
    <path
       id="path4594"
       d="m -672.17,-133.72 22.053,38.197"
       inkscape:connector-curvature="0"
       style="fill:none;stroke:#000000;stroke-width:9.1559" />
  </g>
  <text
     xml:space="preserve"
     style="font-style:normal;font-weight:normal;font-size:17.5px;line-height:125%;font-family:sans-serif;letter-spacing:0px;word-spacing:0px;fill:#ff0000;fill-opacity:1;stroke:none;stroke-width:1px;stroke-linecap:butt;stroke-linejoin:miter;stroke-opacity:1"
     x="-203.80856"
     y="441.19556"
     id="text4155-5-3"
     sodipodi:linespacing="125%"><tspan
       sodipodi:role="line"
       id="tspan4157-6-6"
       x="-203.80856"
       y="441.19556"
       style="font-style:normal;font-variant:normal;font-weight:bold;font-stretch:normal;font-size:10px;font-family:sans-serif;-inkscape-font-specification:'sans-serif Bold';fill:#ff0000">seg</tspan></text>
</svg>
