<?xml version="1.0" encoding="UTF-8" standalone="no"?>
<!-- Created with Inkscape (http://www.inkscape.org/) -->

<svg
   xmlns:dc="http://purl.org/dc/elements/1.1/"
   xmlns:cc="http://creativecommons.org/ns#"
   xmlns:rdf="http://www.w3.org/1999/02/22-rdf-syntax-ns#"
   xmlns:svg="http://www.w3.org/2000/svg"
   xmlns="http://www.w3.org/2000/svg"
   xmlns:sodipodi="http://sodipodi.sourceforge.net/DTD/sodipodi-0.dtd"
   xmlns:inkscape="http://www.inkscape.org/namespaces/inkscape"
   width="25.4mm"
   height="11.288889mm"
   viewBox="0 0 89.999999 40"
   id="svg2"
   version="1.1"
   inkscape:version="0.91 r13725"
   sodipodi:docname="xor.svg">
  <defs
     id="defs4">
    <inkscape:perspective
       inkscape:persp3d-origin="25 : 9.9999998 : 1"
       inkscape:vp_x="0 : 15 : 1"
       inkscape:vp_y="0 : 999.99998 : 0"
       sodipodi:type="inkscape:persp3d"
       id="perspective2714"
       inkscape:vp_z="49.999999 : 15 : 1" />
    <inkscape:perspective
       inkscape:persp3d-origin="0.49999999 : 0.33333332 : 1"
       inkscape:vp_x="0 : 0.49999999 : 1"
       inkscape:vp_y="0 : 999.99998 : 0"
       sodipodi:type="inkscape:persp3d"
       id="perspective2806"
       inkscape:vp_z="0.99999998 : 0.49999999 : 1" />
    <inkscape:perspective
       inkscape:persp3d-origin="372.04723 : 350.78738 : 1"
       inkscape:vp_x="0 : 526.18108 : 1"
       inkscape:vp_y="0 : 999.99998 : 0"
       sodipodi:type="inkscape:persp3d"
       id="perspective2819"
       inkscape:vp_z="744.09447 : 526.18108 : 1" />
    <inkscape:perspective
       inkscape:persp3d-origin="74.999999 : 39.999999 : 1"
       inkscape:vp_x="0 : 59.999999 : 1"
       inkscape:vp_y="0 : 999.99998 : 0"
       sodipodi:type="inkscape:persp3d"
       id="perspective2777"
       inkscape:vp_z="150 : 59.999999 : 1" />
    <inkscape:perspective
       inkscape:persp3d-origin="49.999999 : 33.333332 : 1"
       inkscape:vp_x="0 : 49.999999 : 1"
       inkscape:vp_y="0 : 999.99998 : 0"
       sodipodi:type="inkscape:persp3d"
       id="perspective3275"
       inkscape:vp_z="99.999998 : 49.999999 : 1" />
    <inkscape:perspective
       inkscape:persp3d-origin="31.999999 : 21.333333 : 1"
       inkscape:vp_x="0 : 31.999999 : 1"
       inkscape:vp_y="0 : 999.99998 : 0"
       sodipodi:type="inkscape:persp3d"
       id="perspective5533"
       inkscape:vp_z="63.999999 : 31.999999 : 1" />
    <inkscape:perspective
       inkscape:persp3d-origin="25 : 16.666667 : 1"
       inkscape:vp_x="0 : 24.999999 : 1"
       inkscape:vp_y="0 : 999.99998 : 0"
       sodipodi:type="inkscape:persp3d"
       id="perspective2557"
       inkscape:vp_z="49.999999 : 25 : 1" />
  </defs>
  <sodipodi:namedview
     id="base"
     pagecolor="#ffffff"
     bordercolor="#666666"
     borderopacity="1.0"
     inkscape:pageopacity="0.0"
     inkscape:pageshadow="2"
     inkscape:zoom="1.4"
     inkscape:cx="75.390308"
     inkscape:cy="68.18251"
     inkscape:document-units="px"
     inkscape:current-layer="layer1"
     showgrid="false"
     fit-margin-top="0"
     fit-margin-left="0"
     fit-margin-right="0"
     fit-margin-bottom="0"
     inkscape:window-width="1855"
     inkscape:window-height="1056"
     inkscape:window-x="65"
     inkscape:window-y="24"
     inkscape:window-maximized="1" />
  <metadata
     id="metadata7">
    <rdf:RDF>
      <cc:Work
         rdf:about="">
        <dc:format>image/svg+xml</dc:format>
        <dc:type
           rdf:resource="http://purl.org/dc/dcmitype/StillImage" />
        <dc:title></dc:title>
      </cc:Work>
    </rdf:RDF>
  </metadata>
  <g
     inkscape:label="Layer 1"
     inkscape:groupmode="layer"
     id="layer1"
     transform="translate(-169.28576,-229.50507)">
    <g
       id="g4169"
       transform="translate(421.28576,-171.39493)">
      <g
         id="path3061">
        <rect
           id="rect4149"
           height="2"
           width="26"
           y="409.89999"
           x="-252" />
      </g>
      <g
         id="path3944">
        <rect
           id="rect4152"
           height="2"
           width="27"
           y="429.89999"
           x="-252" />
      </g>
      <rect
         id="rect4154"
         height="2"
         width="24.5"
         y="419.89999"
         x="-186.5" />
      <path
         id="path4156"
         d="m -184.6,420.9 c 0,-1 -0.6,-2 -0.6,-2 -10.3,-17.8 -26,-18 -30.6,-18 l -14,0 -3.2,0 2,2.4 c 0,0 5.7,7 5.7,17.6 0,10.6 -5.7,17.6 -5.7,17.6 l -2,2.4 3.2,0 14,0 c 2.4,0 7.7,0 13.6,-2.4 5.7,-2.3 12,-6.9 17,-15.7 0.1,0 0.6,-1 0.6,-1.9 z m -18.9,14.8 c -5.4,2.2 -9.8,2.2 -12.3,2.2 l -11.2,0 c 1.9,-3.1 4.8,-9 4.8,-17 0,-8 -2.9,-13.9 -4.8,-17 l 11.3,0 c 4.7,0 18.3,-0.1 28,17 -4.8,8.4 -10.6,12.7 -15.8,14.8 z"
         inkscape:connector-curvature="0" />
      <path
         id="path4158"
         d="m -238.3,440.9 3.6,0 c 2.3,-3.7 6.5,-11.6 6.5,-19.8 0,-8.5 -4.4,-16.5 -6.8,-20.2 l -3.6,0 c 1.4,2 7.4,11 7.4,20.2 0,8.9 -5.7,17.7 -7.1,19.8 z"
         inkscape:connector-curvature="0" />
    </g>
    <text
       xml:space="preserve"
       style="font-style:normal;font-weight:normal;font-size:10.85148811px;line-height:125%;font-family:sans-serif;letter-spacing:0px;word-spacing:0px;fill:#0000ff;fill-opacity:1;stroke:none;stroke-width:1px;stroke-linecap:butt;stroke-linejoin:miter;stroke-opacity:1"
       x="201.89597"
       y="252.84879"
       id="text4142-5-6"
       sodipodi:linespacing="125%"><tspan
         sodipodi:role="line"
         id="tspan4144-6-2"
         x="201.89597"
         y="252.84879"
         style="font-style:normal;font-variant:normal;font-weight:bold;font-stretch:normal;font-family:sans-serif;-inkscape-font-specification:'sans-serif Bold'">XOR</tspan></text>
  </g>
</svg>
