<?xml version="1.0" encoding="UTF-8" standalone="no"?>
<!-- Created with Inkscape (http://www.inkscape.org/) -->

<svg
   xmlns:dc="http://purl.org/dc/elements/1.1/"
   xmlns:cc="http://creativecommons.org/ns#"
   xmlns:rdf="http://www.w3.org/1999/02/22-rdf-syntax-ns#"
   xmlns:svg="http://www.w3.org/2000/svg"
   xmlns="http://www.w3.org/2000/svg"
   xmlns:sodipodi="http://sodipodi.sourceforge.net/DTD/sodipodi-0.dtd"
   xmlns:inkscape="http://www.inkscape.org/namespaces/inkscape"
   id="svg4322"
   version="1.1"
   inkscape:version="0.91 r13725"
   xml:space="preserve"
   width="1243.5524"
   height="216.21249"
   viewBox="0 0 1243.5523 216.2125"
   sodipodi:docname="TEDxValladolid.svg"><metadata
     id="metadata4328"><rdf:RDF><cc:Work
         rdf:about=""><dc:format>image/svg+xml</dc:format><dc:type
           rdf:resource="http://purl.org/dc/dcmitype/StillImage" /><dc:title></dc:title></cc:Work></rdf:RDF></metadata><defs
     id="defs4326" /><sodipodi:namedview
     pagecolor="#ffffff"
     bordercolor="#666666"
     borderopacity="1"
     objecttolerance="10"
     gridtolerance="10"
     guidetolerance="10"
     inkscape:pageopacity="0"
     inkscape:pageshadow="2"
     inkscape:window-width="1366"
     inkscape:window-height="706"
     id="namedview4324"
     showgrid="false"
     inkscape:zoom="0.32328028"
     inkscape:cx="377.03882"
     inkscape:cy="40.461242"
     inkscape:window-x="-8"
     inkscape:window-y="-8"
     inkscape:window-maximized="1"
     inkscape:current-layer="g4330"
     fit-margin-top="0"
     fit-margin-left="0"
     fit-margin-right="0"
     fit-margin-bottom="0" /><g
     id="g4330"
     inkscape:groupmode="layer"
     inkscape:label="ink_ext_XXXXXX"
     transform="matrix(1.25,0,0,-1.25,-62.2085,397.52)"><path
       inkscape:connector-curvature="0"
       id="path4336"
       style="fill:#ee2922;fill-opacity:1;fill-rule:nonzero;stroke:none"
       d="m 60.3711,165.876 -7.5668,10.905 7.2109,0 4.05,-6.009 4.0063,6.009 6.9883,0 -7.5672,-10.771 8.5015,-12.241 -7.2105,0 -4.807,7.255 -4.8071,-7.255 -7.0773,0 8.2789,12.107"
       inkscape:export-xdpi="14.474662"
       inkscape:export-ydpi="14.474662" /><path
       inkscape:connector-curvature="0"
       id="path4338"
       style="fill:#100f0d;fill-opacity:1;fill-rule:nonzero;stroke:none"
       d="m 105.947,157.864 -22.4779,0 0,4.763 22.4779,0 0,-4.763 z m 0,9.526 -22.4779,0 0,4.762 22.4779,0 0,-4.762"
       inkscape:export-xdpi="14.474662"
       inkscape:export-ydpi="14.474662" /><path
       inkscape:connector-curvature="0"
       id="path4340"
       style="fill:#100f0d;fill-opacity:1;fill-rule:nonzero;stroke:none"
       d="m 116.85,176.781 6.32,0 0,-23.012 -6.32,0 0,23.012 z m 6.32,3.561 -6.32,0 0,5.208 6.32,0 0,-5.208"
       inkscape:export-xdpi="14.474662"
       inkscape:export-ydpi="14.474662" /><path
       inkscape:connector-curvature="0"
       id="path4342"
       style="fill:#100f0d;fill-opacity:1;fill-rule:nonzero;stroke:none"
       d="m 127.264,176.781 6.009,0 0,-3.204 0.134,0 c 1.602,2.581 4.362,3.827 7.032,3.827 6.721,0 8.413,-3.783 8.413,-9.48 l 0,-14.155 -6.321,0 0,12.998 c 0,3.783 -1.113,5.652 -4.05,5.652 -3.427,0 -4.896,-1.914 -4.896,-6.588 l 0,-12.062 -6.321,0 0,23.012"
       inkscape:export-xdpi="14.474662"
       inkscape:export-ydpi="14.474662" /><path
       inkscape:connector-curvature="0"
       id="path4344"
       style="fill:#100f0d;fill-opacity:1;fill-rule:nonzero;stroke:none"
       d="m 163.671,172.642 c -4.139,0 -5.564,-3.561 -5.564,-7.345 0,-3.605 1.647,-7.388 5.564,-7.388 4.184,0 5.431,3.65 5.431,7.433 0,3.739 -1.336,7.3 -5.431,7.3 z m 5.519,-15.935 -0.088,0 c -1.469,-2.492 -4.051,-3.561 -6.989,-3.561 -6.943,0 -10.326,5.965 -10.326,12.33 0,6.187 3.427,11.928 10.193,11.928 2.715,0 5.386,-1.157 6.854,-3.427 l -0.044,0 0.089,0 0,11.573 6.32,0 0,-31.781 -6.009,0 0,2.938"
       inkscape:export-xdpi="14.474662"
       inkscape:export-ydpi="14.474662" /><path
       inkscape:connector-curvature="0"
       id="path4346"
       style="fill:#100f0d;fill-opacity:1;fill-rule:nonzero;stroke:none"
       d="m 194.559,167.746 c -0.579,3.204 -1.958,4.896 -5.03,4.896 -4.006,0 -5.163,-3.116 -5.252,-4.896 l 10.282,0 z m -10.282,-4.006 c 0.178,-4.006 2.137,-5.831 5.653,-5.831 2.537,0 4.585,1.558 4.985,2.982 l 5.564,0 c -1.781,-5.43 -5.564,-7.745 -10.771,-7.745 -7.256,0 -11.751,4.985 -11.751,12.107 0,6.899 4.762,12.151 11.751,12.151 7.833,0 11.617,-6.587 11.171,-13.664 l -16.602,0"
       inkscape:export-xdpi="14.474662"
       inkscape:export-ydpi="14.474662" /><path
       inkscape:connector-curvature="0"
       id="path4348"
       style="fill:#100f0d;fill-opacity:1;fill-rule:nonzero;stroke:none"
       d="m 220.818,165.208 c 0,3.65 -1.469,7.434 -5.519,7.434 -4.139,0 -5.475,-3.695 -5.475,-7.434 0,-3.738 1.425,-7.299 5.519,-7.299 4.14,0 5.475,3.561 5.475,7.299 z m -17.092,11.573 6.009,0 0,-2.938 0.089,0 c 1.513,2.448 4.006,3.561 6.855,3.561 7.21,0 10.46,-5.831 10.46,-12.373 0,-6.143 -3.383,-11.885 -10.104,-11.885 -2.76,0 -5.386,1.202 -6.899,3.472 l -0.089,0 0,-10.949 -6.321,0 0,31.112"
       inkscape:export-xdpi="14.474662"
       inkscape:export-ydpi="14.474662" /><path
       inkscape:connector-curvature="0"
       id="path4350"
       style="fill:#100f0d;fill-opacity:1;fill-rule:nonzero;stroke:none"
       d="m 245.519,167.746 c -0.579,3.204 -1.958,4.896 -5.03,4.896 -4.006,0 -5.163,-3.116 -5.252,-4.896 l 10.282,0 z m -10.282,-4.006 c 0.178,-4.006 2.137,-5.831 5.653,-5.831 2.537,0 4.585,1.558 4.985,2.982 l 5.564,0 c -1.781,-5.43 -5.564,-7.745 -10.772,-7.745 -7.255,0 -11.75,4.985 -11.75,12.107 0,6.899 4.762,12.151 11.75,12.151 7.834,0 11.618,-6.587 11.172,-13.664 l -16.602,0"
       inkscape:export-xdpi="14.474662"
       inkscape:export-ydpi="14.474662" /><path
       inkscape:connector-curvature="0"
       id="path4352"
       style="fill:#100f0d;fill-opacity:1;fill-rule:nonzero;stroke:none"
       d="m 254.686,176.781 6.009,0 0,-3.204 0.134,0 c 1.602,2.581 4.361,3.827 7.032,3.827 6.721,0 8.412,-3.783 8.412,-9.48 l 0,-14.155 -6.32,0 0,12.998 c 0,3.783 -1.113,5.652 -4.05,5.652 -3.427,0 -4.896,-1.914 -4.896,-6.588 l 0,-12.062 -6.321,0 0,23.012"
       inkscape:export-xdpi="14.474662"
       inkscape:export-ydpi="14.474662" /><path
       inkscape:connector-curvature="0"
       id="path4354"
       style="fill:#100f0d;fill-opacity:1;fill-rule:nonzero;stroke:none"
       d="m 291.093,172.642 c -4.139,0 -5.564,-3.561 -5.564,-7.345 0,-3.605 1.647,-7.388 5.564,-7.388 4.184,0 5.43,3.65 5.43,7.433 0,3.739 -1.335,7.3 -5.43,7.3 z m 5.519,-15.935 -0.089,0 c -1.468,-2.492 -4.05,-3.561 -6.988,-3.561 -6.943,0 -10.326,5.965 -10.326,12.33 0,6.187 3.427,11.928 10.193,11.928 2.715,0 5.386,-1.157 6.854,-3.427 l -0.044,0 0.089,0 0,11.573 6.32,0 0,-31.781 -6.009,0 0,2.938"
       inkscape:export-xdpi="14.474662"
       inkscape:export-ydpi="14.474662" /><path
       inkscape:connector-curvature="0"
       id="path4356"
       style="fill:#100f0d;fill-opacity:1;fill-rule:nonzero;stroke:none"
       d="m 321.981,167.746 c -0.579,3.204 -1.959,4.896 -5.03,4.896 -4.006,0 -5.163,-3.116 -5.252,-4.896 l 10.282,0 z m -10.282,-4.006 c 0.178,-4.006 2.136,-5.831 5.653,-5.831 2.537,0 4.585,1.558 4.985,2.982 l 5.564,0 c -1.781,-5.43 -5.564,-7.745 -10.772,-7.745 -7.255,0 -11.75,4.985 -11.75,12.107 0,6.899 4.762,12.151 11.75,12.151 7.834,0 11.618,-6.587 11.172,-13.664 l -16.602,0"
       inkscape:export-xdpi="14.474662"
       inkscape:export-ydpi="14.474662" /><path
       inkscape:connector-curvature="0"
       id="path4358"
       style="fill:#100f0d;fill-opacity:1;fill-rule:nonzero;stroke:none"
       d="m 331.148,176.781 6.009,0 0,-3.204 0.134,0 c 1.602,2.581 4.361,3.827 7.032,3.827 6.721,0 8.412,-3.783 8.412,-9.48 l 0,-14.155 -6.32,0 0,12.998 c 0,3.783 -1.113,5.652 -4.05,5.652 -3.427,0 -4.896,-1.914 -4.896,-6.588 l 0,-12.062 -6.321,0 0,23.012"
       inkscape:export-xdpi="14.474662"
       inkscape:export-ydpi="14.474662" /><path
       inkscape:connector-curvature="0"
       id="path4360"
       style="fill:#100f0d;fill-opacity:1;fill-rule:nonzero;stroke:none"
       d="m 364.662,176.781 4.629,0 0,-4.228 -4.629,0 0,-11.395 c 0,-2.137 0.534,-2.67 2.671,-2.67 0.667,0 1.29,0.044 1.958,0.177 l 0,-4.94 c -1.068,-0.178 -2.448,-0.223 -3.694,-0.223 -3.873,0 -7.256,0.89 -7.256,5.475 l 0,13.576 -3.827,0 0,4.228 3.827,0 0,6.899 6.321,0 0,-6.899"
       inkscape:export-xdpi="14.474662"
       inkscape:export-ydpi="14.474662" /><path
       inkscape:connector-curvature="0"
       id="path4362"
       style="fill:#100f0d;fill-opacity:1;fill-rule:nonzero;stroke:none"
       d="m 371.604,153.769 6.32031,0 0,31.7809 -6.32031,0 0,-31.7809 z"
       inkscape:export-xdpi="14.474662"
       inkscape:export-ydpi="14.474662" /><path
       inkscape:connector-curvature="0"
       id="path4364"
       style="fill:#100f0d;fill-opacity:1;fill-rule:nonzero;stroke:none"
       d="m 393.369,150.876 c -1.38,-3.694 -3.561,-5.207 -7.923,-5.207 -1.291,0 -2.582,0.089 -3.872,0.223 l 0,5.207 c 1.201,-0.089 2.447,-0.267 3.694,-0.223 2.181,0.223 2.893,2.493 2.181,4.318 l -8.101,21.587 6.766,0 5.207,-15.757 0.089,0 5.03,15.757 6.543,0 -9.614,-25.905"
       inkscape:export-xdpi="14.474662"
       inkscape:export-ydpi="14.474662" /><path
       inkscape:connector-curvature="0"
       id="path4366"
       style="fill:#100f0d;fill-opacity:1;fill-rule:nonzero;stroke:none"
       d="m 426.883,157.909 c 4.317,0 5.608,3.694 5.608,7.344 0,3.694 -1.291,7.389 -5.608,7.389 -4.273,0 -5.564,-3.695 -5.564,-7.389 0,-3.65 1.291,-7.344 5.564,-7.344 z m 0,19.495 c 7.255,0 11.929,-4.807 11.929,-12.151 0,-7.299 -4.674,-12.107 -11.929,-12.107 -7.211,0 -11.884,4.808 -11.884,12.107 0,7.344 4.673,12.151 11.884,12.151"
       inkscape:export-xdpi="14.474662"
       inkscape:export-ydpi="14.474662" /><path
       inkscape:connector-curvature="0"
       id="path4368"
       style="fill:#100f0d;fill-opacity:1;fill-rule:nonzero;stroke:none"
       d="m 441.124,176.781 6.009,0 0,-4.273 0.089,0 c 1.157,2.893 4.273,4.896 7.344,4.896 0.445,0 0.979,-0.089 1.379,-0.222 l 0,-5.875 c -0.578,0.133 -1.513,0.222 -2.27,0.222 -4.629,0 -6.231,-3.338 -6.231,-7.389 l 0,-10.371 -6.32,0 0,23.012"
       inkscape:export-xdpi="14.474662"
       inkscape:export-ydpi="14.474662" /><path
       inkscape:connector-curvature="0"
       id="path4370"
       style="fill:#100f0d;fill-opacity:1;fill-rule:nonzero;stroke:none"
       d="m 473.659,165.564 c 0,3.74 -1.291,7.078 -5.386,7.078 -3.56,0 -5.118,-3.116 -5.118,-6.543 0,-3.294 1.246,-6.899 5.118,-6.899 3.606,0 5.386,3.071 5.386,6.364 z m 6.009,-10.326 c 0,-3.783 -1.335,-10.192 -11.929,-10.192 -4.54,0 -9.836,2.136 -10.148,7.388 l 6.276,0 c 0.579,-2.359 2.492,-3.161 4.718,-3.161 3.517,0 5.119,2.405 5.074,5.698 l 0,3.027 -0.089,0 c -1.38,-2.404 -4.139,-3.561 -6.899,-3.561 -6.899,0 -9.837,5.252 -9.837,11.573 0,5.964 3.428,11.394 9.882,11.394 3.026,0 5.341,-1.024 6.854,-3.694 l 0.089,0 0,3.071 6.009,0 0,-21.543"
       inkscape:export-xdpi="14.474662"
       inkscape:export-ydpi="14.474662" /><path
       inkscape:connector-curvature="0"
       id="path4372"
       style="fill:#100f0d;fill-opacity:1;fill-rule:nonzero;stroke:none"
       d="m 497.292,165.031 c -1.068,-0.935 -3.294,-0.98 -5.252,-1.336 -1.959,-0.401 -3.739,-1.068 -3.739,-3.383 0,-2.358 1.825,-2.937 3.872,-2.937 4.941,0 5.119,3.916 5.119,5.296 l 0,2.36 z m -14.599,4.673 c 0.356,5.92 5.652,7.7 10.815,7.7 4.585,0 10.104,-1.024 10.104,-6.543 l 0,-11.973 c 0,-2.092 0.223,-4.184 0.802,-5.119 l -6.41,0 c -0.223,0.712 -0.4,1.469 -0.445,2.226 -2.003,-2.092 -4.941,-2.849 -7.745,-2.849 -4.362,0 -7.834,2.181 -7.834,6.899 0,5.208 3.917,6.454 7.834,6.989 3.873,0.578 7.478,0.444 7.478,3.026 0,2.715 -1.87,3.116 -4.095,3.116 -2.404,0 -3.962,-0.979 -4.184,-3.472 l -6.32,0"
       inkscape:export-xdpi="14.474662"
       inkscape:export-ydpi="14.474662" /><path
       inkscape:connector-curvature="0"
       id="path4374"
       style="fill:#100f0d;fill-opacity:1;fill-rule:nonzero;stroke:none"
       d="m 507.616,176.781 6.009,0 0,-3.204 0.134,0 c 1.602,2.581 4.362,3.827 7.033,3.827 6.72,0 8.412,-3.783 8.412,-9.48 l 0,-14.155 -6.321,0 0,12.998 c 0,3.783 -1.112,5.652 -4.05,5.652 -3.427,0 -4.896,-1.914 -4.896,-6.588 l 0,-12.062 -6.321,0 0,23.012"
       inkscape:export-xdpi="14.474662"
       inkscape:export-ydpi="14.474662" /><path
       inkscape:connector-curvature="0"
       id="path4376"
       style="fill:#100f0d;fill-opacity:1;fill-rule:nonzero;stroke:none"
       d="m 532.406,176.781 6.321,0 0,-23.012 -6.321,0 0,23.012 z m 6.321,3.561 -6.321,0 0,5.208 6.321,0 0,-5.208"
       inkscape:export-xdpi="14.474662"
       inkscape:export-ydpi="14.474662" /><path
       inkscape:connector-curvature="0"
       id="path4378"
       style="fill:#100f0d;fill-opacity:1;fill-rule:nonzero;stroke:none"
       d="m 541.396,158.532 11.974,13.486 -11.083,0 0,4.763 19.406,0 0,-4.763 -11.973,-13.486 12.819,0 0,-4.763 -21.143,0 0,4.763"
       inkscape:export-xdpi="14.474662"
       inkscape:export-ydpi="14.474662" /><path
       inkscape:connector-curvature="0"
       id="path4380"
       style="fill:#100f0d;fill-opacity:1;fill-rule:nonzero;stroke:none"
       d="m 580.519,167.746 c -0.578,3.204 -1.958,4.896 -5.029,4.896 -4.006,0 -5.163,-3.116 -5.252,-4.896 l 10.281,0 z m -10.281,-4.006 c 0.178,-4.006 2.137,-5.831 5.652,-5.831 2.537,0 4.585,1.558 4.985,2.982 l 5.564,0 c -1.78,-5.43 -5.564,-7.745 -10.772,-7.745 -7.254,0 -11.75,4.985 -11.75,12.107 0,6.899 4.763,12.151 11.75,12.151 7.834,0 11.618,-6.587 11.173,-13.664 l -16.602,0"
       inkscape:export-xdpi="14.474662"
       inkscape:export-ydpi="14.474662" /><path
       inkscape:connector-curvature="0"
       id="path4382"
       style="fill:#100f0d;fill-opacity:1;fill-rule:nonzero;stroke:none"
       d="m 600.592,172.642 c -4.139,0 -5.563,-3.561 -5.563,-7.345 0,-3.605 1.646,-7.388 5.563,-7.388 4.184,0 5.43,3.65 5.43,7.433 0,3.739 -1.335,7.3 -5.43,7.3 z m 5.52,-15.935 -0.09,0 c -1.469,-2.492 -4.05,-3.561 -6.987,-3.561 -6.945,0 -10.327,5.965 -10.327,12.33 0,6.187 3.427,11.928 10.193,11.928 2.715,0 5.386,-1.157 6.854,-3.427 l -0.045,0 0.089,0 0,11.573 6.322,0 0,-31.781 -6.009,0 0,2.938"
       inkscape:export-xdpi="14.474662"
       inkscape:export-ydpi="14.474662" /><path
       inkscape:connector-curvature="0"
       id="path4384"
       style="fill:#100f0d;fill-opacity:1;fill-rule:nonzero;stroke:none"
       d="m 635.173,179.674 -9.524,0 0,5.876 26.038,0 0,-5.876 -9.525,0 0,-25.905 -6.989,0 0,25.905"
       inkscape:export-xdpi="14.474662"
       inkscape:export-ydpi="14.474662" /><path
       inkscape:connector-curvature="0"
       id="path4386"
       style="fill:#100f0d;fill-opacity:1;fill-rule:nonzero;stroke:none"
       d="m 654.444,185.55 23.768,0 0,-5.876 -16.78,0 0,-6.81 15.401,0 0,-5.43 -15.401,0 0,-7.789 17.136,0 0,-5.876 -24.124,0 0,31.781"
       inkscape:export-xdpi="14.474662"
       inkscape:export-ydpi="14.474662" /><path
       inkscape:connector-curvature="0"
       id="path4388"
       style="fill:#100f0d;fill-opacity:1;fill-rule:nonzero;stroke:none"
       d="m 688.493,159.645 6.231,0 c 4.05,0 7.923,2.492 7.923,9.525 0,6.41 -2.226,10.504 -9.17,10.504 l -4.984,0 0,-20.029 z m -6.989,25.905 13.709,0 c 8.235,0 14.421,-5.164 14.421,-15.713 0,-9.213 -4.717,-16.068 -14.421,-16.068 l -13.709,0 0,31.781"
       inkscape:export-xdpi="14.474662"
       inkscape:export-ydpi="14.474662" /><path
       inkscape:connector-curvature="0"
       id="path4390"
       style="fill:#100f0d;fill-opacity:1;fill-rule:nonzero;stroke:none"
       d="m 739.898,167.746 c -0.578,3.204 -1.958,4.896 -5.029,4.896 -4.006,0 -5.163,-3.116 -5.252,-4.896 l 10.281,0 z m -10.281,-4.006 c 0.177,-4.006 2.136,-5.831 5.652,-5.831 2.537,0 4.585,1.558 4.985,2.982 l 5.564,0 c -1.78,-5.43 -5.564,-7.745 -10.772,-7.745 -7.254,0 -11.75,4.985 -11.75,12.107 0,6.899 4.763,12.151 11.75,12.151 7.834,0 11.618,-6.587 11.173,-13.664 l -16.602,0"
       inkscape:export-xdpi="14.474662"
       inkscape:export-ydpi="14.474662" /><path
       inkscape:connector-curvature="0"
       id="path4392"
       style="fill:#100f0d;fill-opacity:1;fill-rule:nonzero;stroke:none"
       d="m 760.906,153.769 -7.033,0 -7.878,23.012 6.631,0 4.852,-15.712 0.089,0 4.851,15.712 6.277,0 -7.789,-23.012"
       inkscape:export-xdpi="14.474662"
       inkscape:export-ydpi="14.474662" /><path
       inkscape:connector-curvature="0"
       id="path4394"
       style="fill:#100f0d;fill-opacity:1;fill-rule:nonzero;stroke:none"
       d="m 785.028,167.746 c -0.578,3.204 -1.958,4.896 -5.029,4.896 -4.006,0 -5.164,-3.116 -5.252,-4.896 l 10.281,0 z m -10.281,-4.006 c 0.177,-4.006 2.136,-5.831 5.652,-5.831 2.537,0 4.585,1.558 4.985,2.982 l 5.564,0 c -1.781,-5.43 -5.564,-7.745 -10.772,-7.745 -7.255,0 -11.75,4.985 -11.75,12.107 0,6.899 4.763,12.151 11.75,12.151 7.834,0 11.617,-6.587 11.172,-13.664 l -16.601,0"
       inkscape:export-xdpi="14.474662"
       inkscape:export-ydpi="14.474662" /><path
       inkscape:connector-curvature="0"
       id="path4396"
       style="fill:#100f0d;fill-opacity:1;fill-rule:nonzero;stroke:none"
       d="m 794.196,176.781 6.009,0 0,-3.204 0.133,0 c 1.603,2.581 4.363,3.827 7.033,3.827 6.721,0 8.413,-3.783 8.413,-9.48 l 0,-14.155 -6.321,0 0,12.998 c 0,3.783 -1.113,5.652 -4.05,5.652 -3.428,0 -4.897,-1.914 -4.897,-6.588 l 0,-12.062 -6.32,0 0,23.012"
       inkscape:export-xdpi="14.474662"
       inkscape:export-ydpi="14.474662" /><path
       inkscape:connector-curvature="0"
       id="path4398"
       style="fill:#100f0d;fill-opacity:1;fill-rule:nonzero;stroke:none"
       d="m 827.709,176.781 4.629,0 0,-4.228 -4.629,0 0,-11.395 c 0,-2.137 0.535,-2.67 2.671,-2.67 0.668,0 1.291,0.044 1.958,0.177 l 0,-4.94 c -1.067,-0.178 -2.447,-0.223 -3.694,-0.223 -3.872,0 -7.255,0.89 -7.255,5.475 l 0,13.576 -3.828,0 0,4.228 3.828,0 0,6.899 6.32,0 0,-6.899"
       inkscape:export-xdpi="14.474662"
       inkscape:export-ydpi="14.474662" /><path
       inkscape:connector-curvature="0"
       id="path4400"
       style="fill:#ee2922;fill-opacity:1;fill-rule:nonzero;stroke:none"
       d="m 79.4215,290.691 -29.6547,0 0,27.122 91.8792,0 0,-27.122 -29.644,0 0,-78.695 -32.5805,0 0,78.695"
       inkscape:export-xdpi="14.474662"
       inkscape:export-ydpi="14.474662" /><path
       inkscape:connector-curvature="0"
       id="path4402"
       style="fill:#ee2922;fill-opacity:1;fill-rule:nonzero;stroke:none"
       d="m 146.71,317.813 89.192,0 0,-27.122 -56.59,0 0,-13.186 56.59,0 0,-25.202 -56.59,0 0,-13.187 56.605,0 0,-27.12 -89.207,0 0,105.817"
       inkscape:export-xdpi="14.474662"
       inkscape:export-ydpi="14.474662" /><path
       inkscape:connector-curvature="0"
       id="path4404"
       style="fill:#ee2922;fill-opacity:1;fill-rule:nonzero;stroke:none"
       d="m 273.989,239.116 12.75,0 c 20.309,0 23.278,16.456 23.278,26.396 0,6.656 -2.086,25.179 -25.652,25.179 l -10.376,0 0,-51.575 z m -32.6,78.697 53.5,0 c 35.266,0 47.73,-26.085 47.73,-52.754 0,-32.465 -17.192,-53.063 -54.096,-53.063 l -47.134,0 0,105.817"
       inkscape:export-xdpi="14.474662"
       inkscape:export-ydpi="14.474662" /><path
       inkscape:connector-curvature="0"
       id="path4406"
       style="fill:#ee2922;fill-opacity:1;fill-rule:nonzero;stroke:none"
       d="m 389.464,252.773 -9.945,16.491 -9.698,-16.491 -23.887,0 22.677,33.346 -21.836,31.897 23.895,0 8.849,-15.767 9.103,15.767 23.888,0 -21.829,-31.897 22.676,-33.346 -23.893,0"
       inkscape:export-xdpi="14.474662"
       inkscape:export-ydpi="14.474662" /><g
       id="g4408"
       inkscape:export-xdpi="14.474662"
       inkscape:export-ydpi="14.474662"><g
         transform="matrix(1,0,0,-1,425.574,211.979)"
         style="font-variant:normal;font-weight:normal;font-size:146.90499878px;font-family:Helvetica;-inkscape-font-specification:Helvetica;writing-mode:lr-tb;fill:#100f0d;fill-opacity:1;fill-rule:nonzero;stroke:none"
         id="text4410"><path
           d="m 49.213175,-15.57193 -0.29381,0 -30.115525,-89.90586 -15.86574,0 L 41.42721,0 l 15.131215,0 38.489109,-105.47779 -16.012645,0 -29.821714,89.90586 z"
           style=""
           id="path4931" /><path
           d="m 108.80611,-53.47342 c 0.88143,-5.8762 2.9381,-14.837404 17.6286,-14.837404 12.19311,0 18.06931,4.40715 18.06931,12.486924 0,7.63906 -3.67262,8.8143 -6.75763,9.10811 l -21.30122,2.64429 c -21.448134,2.64429 -23.357899,17.6286 -23.357899,24.09242 0,13.2214501 9.989539,22.182655 24.092419,22.182655 14.98431,0 22.77028,-7.05144 27.76505,-12.486925 0.44071,5.8762 2.20357,11.7524 13.66216,11.7524 2.9381,0 4.84787,-0.88143 7.05144,-1.46905 l 0,-9.4019199 c -1.46905,0.29381 -3.085,0.58762 -4.26024,0.58762 -2.64429,0 -4.26025,-1.3221451 -4.26025,-4.5540551 l 0,-44.218405 c 0,-19.685269 -22.32956,-21.448129 -28.49957,-21.448129 -18.95074,0 -31.143859,7.198345 -31.731479,25.561469 l 11.899309,0 z m 35.4041,26.883615 c 0,10.28335 -11.7524,18.0693151 -23.79861,18.0693151 -9.69573,0 -13.95597,-4.9947701 -13.95597,-13.3683551 0,-9.69573 10.13644,-11.605495 16.45336,-12.486925 16.01264,-2.05667 19.24455,-3.23191 21.30122,-4.847865 l 0,12.63383 z"
           style=""
           id="path4933" /><path
           d="m 192.34227,-105.47779 -12.92764,0 0,105.47779 12.92764,0 0,-105.47779 z"
           style=""
           id="path4935" /><path
           d="m 225.05157,-105.47779 -12.92764,0 0,105.47779 12.92764,0 0,-105.47779 z"
           style=""
           id="path4937" /><path
           d="m 255.99803,-53.47342 c 0.88143,-5.8762 2.9381,-14.837404 17.6286,-14.837404 12.19312,0 18.06932,4.40715 18.06932,12.486924 0,7.63906 -3.67263,8.8143 -6.75763,9.10811 l -21.30123,2.64429 c -21.44813,2.64429 -23.35789,17.6286 -23.35789,24.09242 0,13.2214501 9.98954,22.182655 24.09242,22.182655 14.98431,0 22.77027,-7.05144 27.76504,-12.486925 0.44072,5.8762 2.20358,11.7524 13.66217,11.7524 2.9381,0 4.84786,-0.88143 7.05144,-1.46905 l 0,-9.4019199 c -1.46905,0.29381 -3.08501,0.58762 -4.26025,0.58762 -2.64429,0 -4.26024,-1.3221451 -4.26024,-4.5540551 l 0,-44.218405 c 0,-19.685269 -22.32956,-21.448129 -28.49957,-21.448129 -18.95075,0 -31.14386,7.198345 -31.73148,25.561469 l 11.8993,0 z m 35.40411,26.883615 c 0,10.28335 -11.7524,18.0693151 -23.79861,18.0693151 -9.69573,0 -13.95598,-4.9947701 -13.95598,-13.3683551 0,-9.69573 10.13645,-11.605495 16.45336,-12.486925 16.01265,-2.05667 19.24456,-3.23191 21.30123,-4.847865 l 0,12.63383 z"
           style=""
           id="path4939" /><path
           d="m 390.06951,-105.47779 -12.92764,0 0,38.489111 -0.29381,1.028335 c -3.085,-4.40715 -8.9612,-13.074545 -22.91718,-13.074545 -20.41979,0 -32.02529,16.74717 -32.02529,38.342204 0,18.363125 7.63906,42.89626 33.78815,42.89626 7.49216,0 16.30646,-2.35048 21.88885,-12.780735 l 0.29381,0 0,10.57716 12.19311,0 0,-105.47779 z m -54.79556,66.841775 c 0,-9.842635 1.02833,-28.793379 21.00741,-28.793379 18.65694,0 20.71361,20.125984 20.71361,32.612909 0,20.419795 -12.78074,25.8552801 -21.00742,25.8552801 -14.10288,0 -20.7136,-12.7807351 -20.7136,-29.6748101 z"
           style=""
           id="path4941" /><path
           d="m 403.67888,-38.48911 c 0,19.832175 11.16478,40.54578 35.69791,40.54578 24.53314,0 35.69792,-20.713605 35.69792,-40.54578 0,-19.832175 -11.16478,-40.545779 -35.69792,-40.545779 -24.53313,0 -35.69791,20.713604 -35.69791,40.545779 z m 13.36835,0 c 0,-10.28335 3.81953,-29.380999 22.32956,-29.380999 18.51003,0 22.32956,19.097649 22.32956,29.380999 0,10.28335 -3.81953,29.3810001 -22.32956,29.3810001 -18.51003,0 -22.32956,-19.0976501 -22.32956,-29.3810001 z"
           style=""
           id="path4943" /><path
           d="m 503.08076,-105.47779 -12.92764,0 0,105.47779 12.92764,0 0,-105.47779 z"
           style=""
           id="path4945" /><path
           d="m 535.79011,-76.831314 -12.92764,0 0,76.831314 12.92764,0 0,-76.831314 z m 0,-13.955975 0,-14.690501 -12.92764,0 0,14.690501 12.92764,0 z"
           style=""
           id="path4947" /><path
           d="m 619.03472,-105.47779 -12.92764,0 0,38.489111 -0.29381,1.028335 c -3.085,-4.40715 -8.9612,-13.074545 -22.91718,-13.074545 -20.41979,0 -32.02529,16.74717 -32.02529,38.342204 0,18.363125 7.63906,42.89626 33.78815,42.89626 7.49216,0 16.30646,-2.35048 21.88885,-12.780735 l 0.29381,0 0,10.57716 12.19311,0 0,-105.47779 z m -54.79556,66.841775 c 0,-9.842635 1.02833,-28.793379 21.00741,-28.793379 18.65694,0 20.71361,20.125984 20.71361,32.612909 0,20.419795 -12.78074,25.8552801 -21.00742,25.8552801 -14.10288,0 -20.7136,-12.7807351 -20.7136,-29.6748101 z"
           style=""
           id="path4949" /></g></g></g></svg>