<?xml version="1.0" encoding="UTF-8" standalone="no"?>
<svg
   xmlns:dc="http://purl.org/dc/elements/1.1/"
   xmlns:cc="http://creativecommons.org/ns#"
   xmlns:rdf="http://www.w3.org/1999/02/22-rdf-syntax-ns#"
   xmlns:svg="http://www.w3.org/2000/svg"
   xmlns="http://www.w3.org/2000/svg"
   xmlns:sodipodi="http://sodipodi.sourceforge.net/DTD/sodipodi-0.dtd"
   xmlns:inkscape="http://www.inkscape.org/namespaces/inkscape"
   version="1.1"
   viewBox="0.0 0.0 970.6876640419947 728.7454068241469"
   fill="none"
   stroke="none"
   stroke-linecap="square"
   stroke-miterlimit="10"
   id="svg331"
   sodipodi:docname="gemacion-2-0.svg"
   inkscape:version="0.92.4 (unknown)">
  <metadata
     id="metadata337">
    <rdf:RDF>
      <cc:Work
         rdf:about="">
        <dc:format>image/svg+xml</dc:format>
        <dc:type
           rdf:resource="http://purl.org/dc/dcmitype/StillImage" />
        <dc:title />
      </cc:Work>
    </rdf:RDF>
  </metadata>
  <defs
     id="defs335" />
  <sodipodi:namedview
     pagecolor="#ffffff"
     bordercolor="#666666"
     borderopacity="1"
     objecttolerance="10"
     gridtolerance="10"
     guidetolerance="10"
     inkscape:pageopacity="0"
     inkscape:pageshadow="2"
     inkscape:window-width="1853"
     inkscape:window-height="1025"
     id="namedview333"
     showgrid="false"
     inkscape:zoom="0.64768846"
     inkscape:cx="447.8496"
     inkscape:cy="376.3803"
     inkscape:window-x="67"
     inkscape:window-y="1051"
     inkscape:window-maximized="1"
     inkscape:current-layer="layer1" />
  <clipPath
     id="p.0">
    <path
       d="m0 0l970.6877 0l0 728.7454l-970.6877 0l0 -728.7454z"
       clip-rule="nonzero"
       id="path2" />
  </clipPath>
  <g
     inkscape:groupmode="layer"
     id="layer1"
     inkscape:label="Layer 1">
    <g
       id="g1390"
       transform="translate(19.336045,-154.81035)">
      <path
         d="m 135.49335,494.08484 c 0.30325,2.39014 1.97099,8.76382 1.8195,14.34079 -0.15149,5.57693 0.45447,9.33298 -2.72844,19.12106 -3.18292,9.78803 -15.00509,24.69739 -16.36905,39.60718 -1.36396,14.90973 5.9119,37.6731 8.18533,49.85144 2.27343,12.17835 3.48509,16.27588 5.45527,23.21875 1.97018,6.94287 3.4859,11.15436 6.36583,18.43848 2.87994,7.28418 8.03384,18.66522 10.91379,25.26642 2.87993,6.60119 2.12193,12.63342 6.36583,14.34082 4.24388,1.70733 16.67256,-0.3407 19.09748,-4.0965 2.42493,-3.75586 -3.18371,-9.56073 -4.54794,-18.43854 -1.36423,-8.87775 -2.27344,-25.38135 -3.63739,-34.82812 -1.36395,-9.44678 -2.87912,-15.25122 -4.54632,-21.85242 -1.66721,-6.6012 -4.6989,-12.06403 -5.4569,-17.75476 -0.75798,-5.69074 1.51518,-9.6745 0.90895,-16.38965 -0.60623,-6.71515 -4.0916,-15.82043 -4.54634,-23.9013 -0.45473,-8.08088 0.1507,-16.1615 1.81789,-24.58387 1.6672,-8.4223 5.76014,-19.46252 8.18533,-25.95013 2.4252,-6.48764 1.66721,-10.58557 6.36583,-12.97571 4.69864,-2.3901 14.39914,0.11438 21.82594,-1.36508 7.42681,-1.47946 10.7612,-5.46301 22.73488,-7.51166 11.97367,-2.04867 37.7397,-3.0729 49.10715,-4.78027 11.36743,-1.70737 20.46146,-4.55335 19.0975,-5.46402 -1.36395,-0.91068 -17.12625,-0.22772 -27.28122,0 -10.15498,0.22772 -22.12945,-0.91007 -33.64865,1.3663 -11.51921,2.27637 -36.83076,12.97489 -35.46655,12.29193 1.36423,-0.68295 32.43593,-10.69891 43.65187,-16.38965 11.21596,-5.69073 18.18749,-12.17776 23.64383,-17.75473 5.45634,-5.57696 7.57857,-13.08923 9.09428,-15.70709"
         id="path141"
         inkscape:connector-curvature="0"
         style="fill:#f1c232;fill-rule:evenodd" />
      <path
         d="m 135.49335,494.08484 c 0.30325,2.39014 1.97099,8.76382 1.8195,14.34079 -0.15149,5.57693 0.45447,9.33298 -2.72844,19.12106 -3.18292,9.78803 -15.00509,24.69739 -16.36905,39.60718 -1.36396,14.90973 5.9119,37.6731 8.18533,49.85144 2.27343,12.17835 3.48509,16.27588 5.45527,23.21875 1.97018,6.94287 3.4859,11.15436 6.36583,18.43848 2.87994,7.28418 8.03384,18.66522 10.91379,25.26642 2.87993,6.60119 2.12193,12.63342 6.36583,14.34082 4.24388,1.70733 16.67256,-0.3407 19.09748,-4.0965 2.42493,-3.75586 -3.18371,-9.56073 -4.54794,-18.43854 -1.36423,-8.87775 -2.27344,-25.38135 -3.63739,-34.82812 -1.36395,-9.44678 -2.87912,-15.25122 -4.54632,-21.85242 -1.66721,-6.6012 -4.6989,-12.06403 -5.4569,-17.75476 -0.75798,-5.69074 1.51518,-9.6745 0.90895,-16.38965 -0.60623,-6.71515 -4.0916,-15.82043 -4.54634,-23.9013 -0.45473,-8.08088 0.1507,-16.1615 1.81789,-24.58387 1.6672,-8.4223 5.76014,-19.46252 8.18533,-25.95013 2.4252,-6.48764 1.66721,-10.58557 6.36583,-12.97571 4.69864,-2.3901 14.39914,0.11438 21.82594,-1.36508 7.42681,-1.47946 10.7612,-5.46301 22.73488,-7.51166 11.97367,-2.04867 37.7397,-3.0729 49.10715,-4.78027 11.36743,-1.70737 20.46146,-4.55335 19.0975,-5.46402 -1.36395,-0.91068 -17.12625,-0.22772 -27.28122,0 -10.15498,0.22772 -22.12945,-0.91007 -33.64865,1.3663 -11.51921,2.27637 -36.83076,12.97489 -35.46655,12.29193 1.36423,-0.68295 32.43593,-10.69891 43.65187,-16.38965 11.21596,-5.69073 18.18749,-12.17776 23.64383,-17.75473 5.45634,-5.57696 7.57857,-13.08923 9.09428,-15.70709"
         id="path143"
         inkscape:connector-curvature="0"
         style="fill-rule:evenodd;stroke:#000000;stroke-width:1;stroke-linecap:butt;stroke-linejoin:round" />
      <path
         d="m 261.90137,442.8686 c -0.75772,-4.09753 -3.48538,-21.62576 -4.54633,-24.58508 -1.06097,-2.95932 -0.91003,2.04886 -1.81951,6.82913 -0.90949,4.78024 0.90948,14.5683 -3.63739,21.85245 -4.54686,7.28415 -12.42788,14.90957 -23.64382,21.85244 -11.21594,6.94288 -40.62045,21.17051 -43.65187,19.80481 -3.03143,-1.36572 18.33977,-19.91796 25.46332,-27.99902 7.12355,-8.08105 10.91217,-15.93481 17.278,-20.48736 6.36583,-4.55256 17.88556,-4.32401 20.91699,-6.82792 3.03142,-2.50387 3.48589,-10.81304 -2.72845,-8.1954 -6.21434,2.61765 -23.19016,13.4303 -34.55759,23.90131 -11.36745,10.47097 -26.22025,33.57516 -33.64705,38.92462 -7.4268,5.34945 -13.3387,-0.68195 -10.91377,-6.82791 2.42492,-6.14597 16.6723,-22.64975 25.46331,-30.04786 8.79104,-7.39813 23.03894,-10.2435 27.28284,-14.34079 4.24388,-4.09732 0.15094,-10.81207 -1.8195,-10.24307 -1.97046,0.569 -2.87967,9.55972 -10.00322,13.65701 -7.12355,4.09732 -25.15981,4.89444 -32.7381,10.92685 -7.5783,6.03238 -10.60971,21.05634 -12.73166,25.26761"
         id="path145"
         inkscape:connector-curvature="0"
         style="fill:#f1c232;fill-rule:evenodd" />
      <path
         d="m 261.90137,442.8686 c -0.75772,-4.09753 -3.48538,-21.62576 -4.54633,-24.58508 -1.06097,-2.95932 -0.91003,2.04886 -1.81951,6.82913 -0.90949,4.78024 0.90948,14.5683 -3.63739,21.85245 -4.54686,7.28415 -12.42788,14.90957 -23.64382,21.85244 -11.21594,6.94288 -40.62045,21.17051 -43.65187,19.80481 -3.03143,-1.36572 18.33977,-19.91796 25.46332,-27.99902 7.12355,-8.08105 10.91217,-15.93481 17.278,-20.48736 6.36583,-4.55256 17.88556,-4.32401 20.91699,-6.82792 3.03142,-2.50387 3.48589,-10.81304 -2.72845,-8.1954 -6.21434,2.61765 -23.19016,13.4303 -34.55759,23.90131 -11.36745,10.47097 -26.22025,33.57516 -33.64705,38.92462 -7.4268,5.34945 -13.3387,-0.68195 -10.91377,-6.82791 2.42492,-6.14597 16.6723,-22.64975 25.46331,-30.04786 8.79104,-7.39813 23.03894,-10.2435 27.28284,-14.34079 4.24388,-4.09732 0.15094,-10.81207 -1.8195,-10.24307 -1.97046,0.569 -2.87967,9.55972 -10.00322,13.65701 -7.12355,4.09732 -25.15981,4.89444 -32.7381,10.92685 -7.5783,6.03238 -10.60971,21.05634 -12.73166,25.26761"
         id="path147"
         inkscape:connector-curvature="0"
         style="fill-rule:evenodd;stroke:#000000;stroke-width:1;stroke-linecap:butt;stroke-linejoin:round" />
      <path
         d="m 161.86696,475.64648 c -1.51572,-0.56897 -6.06285,-4.43838 -9.09427,-3.41394 -3.03143,1.02441 -7.12382,12.51984 -9.09428,9.56052 -1.97045,-2.95932 0.60597,-19.46314 -2.72844,-27.31647 -3.3344,-7.85333 -14.85307,-13.4299 -17.27799,-19.80359 -2.42492,-6.37369 1.66747,-13.65823 2.72844,-18.43851 1.06098,-4.78024 5.15311,-8.87735 3.63739,-10.24307 -1.51571,-1.36569 -10.76121,-3.3006 -12.73166,2.04886 -1.97046,5.34946 -2.12221,21.73932 0.90894,30.04788 3.03116,8.30856 14.54982,12.51944 17.278,19.80359 2.72816,7.28415 0.60649,21.85266 -0.90895,23.90131 -1.51544,2.04864 -6.66801,-7.51206 -8.18372,-11.60938 -1.51571,-4.09732 2.87886,-8.87717 -0.91056,-12.97449 -3.78941,-4.09729 -16.21809,-8.53628 -21.82593,-11.60937 -5.607837,-3.07309 -8.94144,-7.17059 -11.821101,-6.8291 -2.87967,0.34146 -9.094543,6.03259 -5.456894,8.87796 3.637657,2.84536 22.129455,4.6661 27.282825,8.19421 5.15337,3.52811 7.27504,12.633 3.63739,12.97449 -3.63766,0.34146 -17.430293,-9.44617 -25.463321,-10.92563 -8.033035,-1.47946 -16.823792,-0.34128 -22.734879,2.04886 -5.911095,2.39013 -11.973675,9.56033 -12.731667,12.29193 -0.757988,2.7316 5.152561,5.34964 8.183716,4.09772 3.031159,-1.25196 5.910828,-9.33301 10.00322,-11.60938 4.0924,-2.2764 7.124359,-3.86981 14.551163,-2.04886 7.426804,1.82093 24.250058,8.53568 30.009648,12.97446 5.7596,4.43878 1.51652,10.35745 4.54795,13.65823 3.03142,3.30082 11.67041,6.1e-4 13.6406,6.14658 1.97018,6.14596 1.36342,19.80298 -1.81949,30.72919 -3.18292,10.92627 -14.39833,29.0235 -17.278,34.82818"
         id="path149"
         inkscape:connector-curvature="0"
         style="fill:#f1c232;fill-rule:evenodd" />
      <path
         d="m 161.86696,475.64648 c -1.51572,-0.56897 -6.06285,-4.43838 -9.09427,-3.41394 -3.03143,1.02441 -7.12382,12.51984 -9.09428,9.56052 -1.97045,-2.95932 0.60597,-19.46314 -2.72844,-27.31647 -3.3344,-7.85333 -14.85307,-13.4299 -17.27799,-19.80359 -2.42492,-6.37369 1.66747,-13.65823 2.72844,-18.43851 1.06098,-4.78024 5.15311,-8.87735 3.63739,-10.24307 -1.51571,-1.36569 -10.76121,-3.3006 -12.73166,2.04886 -1.97046,5.34946 -2.12221,21.73932 0.90894,30.04788 3.03116,8.30856 14.54982,12.51944 17.278,19.80359 2.72816,7.28415 0.60649,21.85266 -0.90895,23.90131 -1.51544,2.04864 -6.66801,-7.51206 -8.18372,-11.60938 -1.51571,-4.09732 2.87886,-8.87717 -0.91056,-12.97449 -3.78941,-4.09729 -16.21809,-8.53628 -21.82593,-11.60937 -5.607837,-3.07309 -8.94144,-7.17059 -11.821101,-6.8291 -2.87967,0.34146 -9.094543,6.03259 -5.456894,8.87796 3.637657,2.84536 22.129455,4.6661 27.282825,8.19421 5.15337,3.52811 7.27504,12.633 3.63739,12.97449 -3.63766,0.34146 -17.430293,-9.44617 -25.463321,-10.92563 -8.033035,-1.47946 -16.823792,-0.34128 -22.734879,2.04886 -5.911095,2.39013 -11.973675,9.56033 -12.731667,12.29193 -0.757988,2.7316 5.152561,5.34964 8.183716,4.09772 3.031159,-1.25196 5.910828,-9.33301 10.00322,-11.60938 4.0924,-2.2764 7.124359,-3.86981 14.551163,-2.04886 7.426804,1.82093 24.250058,8.53568 30.009648,12.97446 5.7596,4.43878 1.51652,10.35745 4.54795,13.65823 3.03142,3.30082 11.67041,6.1e-4 13.6406,6.14658 1.97018,6.14596 1.36342,19.80298 -1.81949,30.72919 -3.18292,10.92627 -14.39833,29.0235 -17.278,34.82818"
         id="path151"
         inkscape:connector-curvature="0"
         style="fill-rule:evenodd;stroke:#000000;stroke-width:1;stroke-linecap:butt;stroke-linejoin:round" />
      <path
         d="m 213.31667,459.29205 c -11.00716,7.21143 -28.31555,25.58142 -28.51305,28.51184 -0.19751,2.93045 18.49179,-6.52621 27.32802,-10.92926 8.83624,-4.40301 19.23688,-10.099 25.68936,-15.48886 6.45247,-5.38986 17.10955,-16.50137 13.02549,-16.85031 -4.08405,-0.34897 -26.52268,7.54519 -37.52982,14.75659 z"
         id="path153"
         inkscape:connector-curvature="0"
         style="fill:#ffffff;fill-rule:evenodd" />
      <path
         d="m 174.8735,470.67703 c -5.05569,3.78046 -8.18346,10.30914 -8.38069,13.39151 -0.19722,3.08237 3.72027,6.39328 7.19728,5.10275 3.47702,-1.29056 9.80868,-8.21502 13.66482,-12.84598 3.85616,-4.63095 11.5523,-13.99829 9.47206,-14.93966 -2.08023,-0.94141 -16.89778,5.51089 -21.95347,9.29138 z"
         id="path155"
         inkscape:connector-curvature="0"
         style="fill:#ffffff;fill-rule:evenodd" />
      <path
         d="m 135.08084,624.96533 v 0 c 0,-7.21588 5.78007,-13.06549 12.91016,-13.06549 v 0 c 3.42398,0 6.70773,1.37659 9.12886,3.82678 2.42112,2.45026 3.78129,5.7735 3.78129,9.23871 v 0 c 0,7.21582 -5.78007,13.06543 -12.91015,13.06543 v 0 c -7.13009,0 -12.91016,-5.84961 -12.91016,-13.06543 z"
         id="path157"
         inkscape:connector-curvature="0"
         style="fill:#f1c232;fill-rule:evenodd" />
      <path
         d="m 135.08084,624.96533 v 0 c 0,-7.21588 5.78007,-13.06549 12.91016,-13.06549 v 0 c 3.42398,0 6.70773,1.37659 9.12886,3.82678 2.42112,2.45026 3.78129,5.7735 3.78129,9.23871 v 0 c 0,7.21582 -5.78007,13.06543 -12.91015,13.06543 v 0 c -7.13009,0 -12.91016,-5.84961 -12.91016,-13.06543 z"
         id="path159"
         inkscape:connector-curvature="0"
         style="fill-rule:evenodd;stroke:#f1c232;stroke-width:1;stroke-linecap:butt;stroke-linejoin:round" />
      <path
         d="m 231.75317,580.8338 c -0.87015,0.21906 -3.01952,1.4787 -5.22082,1.31439 -2.20131,-0.1643 -3.58965,-0.54877 -7.98703,-2.30005 -4.39737,-1.75128 -12.25648,-9.00555 -18.39722,-8.20758 -6.14076,0.79798 -13.98526,9.57367 -18.44733,12.9953 -4.46207,3.42163 -5.89023,4.97797 -8.3251,7.53449 -2.43486,2.55652 -3.94994,3.20447 -6.28408,7.80444 -2.33412,4.59998 -6.20005,15.86353 -7.72067,19.79529 -1.5206,3.93176 -1.32342,0.97717 -1.40295,3.79529 -0.0795,2.81811 0.16113,12.09228 0.92581,13.11328 0.76468,1.02105 0.36174,-4.75678 3.66228,-6.98718 3.30055,-2.23041 12.1291,-4.23609 16.141,-6.39521 4.0119,-2.15912 5.58203,-4.31396 7.93041,-6.55957 2.34837,-2.24554 4.02525,-5.58844 6.15982,-6.91394 2.13455,-1.3255 4.08244,0.26599 6.64753,-1.03906 2.5651,-1.30512 5.61136,-5.46784 8.74303,-6.79157 3.13167,-1.32379 6.43646,-1.69561 10.04701,-1.151 3.61057,0.54468 8.97504,3.76062 11.61631,4.41877 2.64128,0.65814 3.25874,-0.66779 4.23135,-0.46991 0.97261,0.19787 0.87952,0.70562 1.60432,1.65722 0.7248,0.9516 1.8189,2.75611 2.74445,4.05237 0.92557,1.29626 1.91707,2.26343 2.80891,3.72528 0.89185,1.46185 1.85622,3.49573 2.54219,5.0459 0.68599,1.55017 0.76717,2.90442 1.5737,4.25519 0.80655,1.35071 2.10079,3.21289 3.26554,3.8493 1.16476,0.63648 4.06798,1.33942 3.72301,-0.0305 -0.34496,-1.36999 -5.34481,-7.60302 -5.79281,-8.18927 -0.44801,-0.58618 4.20052,6.5951 3.10476,4.67194 -1.09577,-1.92322 -8.06612,-13.50934 -9.67936,-16.21118"
         id="path161"
         inkscape:connector-curvature="0"
         style="fill:#f1c232;fill-rule:evenodd" />
      <path
         d="m 231.75317,580.8338 c -0.87015,0.21906 -3.01952,1.4787 -5.22082,1.31439 -2.20131,-0.1643 -3.58965,-0.54877 -7.98703,-2.30005 -4.39737,-1.75128 -12.25648,-9.00555 -18.39722,-8.20758 -6.14076,0.79798 -13.98526,9.57367 -18.44733,12.9953 -4.46207,3.42163 -5.89023,4.97797 -8.3251,7.53449 -2.43486,2.55652 -3.94994,3.20447 -6.28408,7.80444 -2.33412,4.59998 -6.20005,15.86353 -7.72067,19.79529 -1.5206,3.93176 -1.32342,0.97717 -1.40295,3.79529 -0.0795,2.81811 0.16113,12.09228 0.92581,13.11328 0.76468,1.02105 0.36174,-4.75678 3.66228,-6.98718 3.30055,-2.23041 12.1291,-4.23609 16.141,-6.39521 4.0119,-2.15912 5.58203,-4.31396 7.93041,-6.55957 2.34837,-2.24554 4.02525,-5.58844 6.15982,-6.91394 2.13455,-1.3255 4.08244,0.26599 6.64753,-1.03906 2.5651,-1.30512 5.61136,-5.46784 8.74303,-6.79157 3.13167,-1.32379 6.43646,-1.69561 10.04701,-1.151 3.61057,0.54468 8.97504,3.76062 11.61631,4.41877 2.64128,0.65814 3.25874,-0.66779 4.23135,-0.46991 0.97261,0.19787 0.87952,0.70562 1.60432,1.65722 0.7248,0.9516 1.8189,2.75611 2.74445,4.05237 0.92557,1.29626 1.91707,2.26343 2.80891,3.72528 0.89185,1.46185 1.85622,3.49573 2.54219,5.0459 0.68599,1.55017 0.76717,2.90442 1.5737,4.25519 0.80655,1.35071 2.10079,3.21289 3.26554,3.8493 1.16476,0.63648 4.06798,1.33942 3.72301,-0.0305 -0.34496,-1.36999 -5.34481,-7.60302 -5.79281,-8.18927 -0.44801,-0.58618 4.20052,6.5951 3.10476,4.67194 -1.09577,-1.92322 -8.06612,-13.50934 -9.67936,-16.21118"
         id="path163"
         inkscape:connector-curvature="0"
         style="fill-rule:evenodd;stroke:#000000;stroke-width:1;stroke-linecap:butt;stroke-linejoin:round" />
      <path
         d="m 235.95706,601.8238 c 1.629,1.54584 7.56406,7.13568 9.77403,9.27521 2.20996,2.13958 1.83725,1.98126 3.4858,3.56219 1.64854,1.58087 6.22427,6.42517 6.40545,5.92322 0.18117,-0.50195 -2.18602,-5.17218 -5.3184,-8.93488 -3.13239,-3.76275 -13.36551,-12.71258 -13.47595,-13.6416 -0.11043,-0.92901 9.8011,5.99134 12.81335,8.06751 3.01225,2.07617 3.70236,2.89172 5.26016,4.3894 1.55782,1.49768 3.34505,4.13318 4.08666,4.59656 0.74161,0.46344 1.06204,-0.31421 0.36304,-1.8161 -0.69904,-1.50183 -0.74469,-4.06629 -4.55713,-7.19495 -3.81244,-3.1286 -15.45649,-9.20746 -18.31746,-11.57684 -2.86098,-2.36939 -1.49387,-3.09509 1.15158,-2.63934 2.64543,0.45575 10.93112,2.58813 14.72107,5.37384 3.78993,2.78576 6.41648,9.76727 8.01857,11.34051 1.60208,1.5733 1.85434,-0.71527 1.59393,-1.90094 -0.26038,-1.18567 -1.03742,-2.74988 -3.15622,-5.21313 -2.11877,-2.46326 -6.42152,-7.60981 -9.5565,-9.56647 -3.135,-1.95673 -7.71122,-1.8114 -9.25345,-2.17371"
         id="path165"
         inkscape:connector-curvature="0"
         style="fill:#f1c232;fill-rule:evenodd" />
      <path
         d="m 235.95706,601.8238 c 1.629,1.54584 7.56406,7.13568 9.77403,9.27521 2.20996,2.13958 1.83725,1.98126 3.4858,3.56219 1.64854,1.58087 6.22427,6.42517 6.40545,5.92322 0.18117,-0.50195 -2.18602,-5.17218 -5.3184,-8.93488 -3.13239,-3.76275 -13.36551,-12.71258 -13.47595,-13.6416 -0.11043,-0.92901 9.8011,5.99134 12.81335,8.06751 3.01225,2.07617 3.70236,2.89172 5.26016,4.3894 1.55782,1.49768 3.34505,4.13318 4.08666,4.59656 0.74161,0.46344 1.06204,-0.31421 0.36304,-1.8161 -0.69904,-1.50183 -0.74469,-4.06629 -4.55713,-7.19495 -3.81244,-3.1286 -15.45649,-9.20746 -18.31746,-11.57684 -2.86098,-2.36939 -1.49387,-3.09509 1.15158,-2.63934 2.64543,0.45575 10.93112,2.58813 14.72107,5.37384 3.78993,2.78576 6.41648,9.76727 8.01857,11.34051 1.60208,1.5733 1.85434,-0.71527 1.59393,-1.90094 -0.26038,-1.18567 -1.03742,-2.74988 -3.15622,-5.21313 -2.11877,-2.46326 -6.42152,-7.60981 -9.5565,-9.56647 -3.135,-1.95673 -7.71122,-1.8114 -9.25345,-2.17371"
         id="path167"
         inkscape:connector-curvature="0"
         style="fill-rule:evenodd;stroke:#000000;stroke-width:1;stroke-linecap:butt;stroke-linejoin:round" />
      <path
         d="m 240.08546,589.9559 c 0.0874,-0.70288 1.12254,-3.03302 0.52461,-4.21741 -0.59794,-1.18438 -5.01874,-1.74957 -4.11227,-2.88885 0.90645,-1.13935 7.00061,-1.72864 9.55104,-3.94708 2.55043,-2.21845 3.66003,-7.6828 5.75149,-9.36365 2.09148,-1.68085 5.00814,-0.68482 6.79732,-0.72125 1.78919,-0.0364 3.56592,1.28631 3.93784,0.50262 0.37192,-0.78369 0.35568,-4.91248 -1.70633,-5.20496 -2.06201,-0.29248 -7.92955,1.31385 -10.66583,3.45008 -2.73627,2.13623 -3.35831,7.46423 -5.75185,9.36737 -2.39352,1.90314 -7.76112,2.48718 -8.60931,2.05139 -0.84821,-0.43579 2.17236,-3.6037 3.52011,-4.6662 1.34774,-1.0625 3.39239,0.31946 4.56637,-1.7088 1.17398,-2.02832 1.80901,-7.76379 2.47754,-10.46106 0.66853,-2.6972 1.87625,-4.53253 1.53366,-5.72229 -0.34259,-1.18976 -2.85147,-3.25281 -3.58922,-1.4162 -0.73773,1.83667 0.0287,9.88526 -0.83721,12.43604 -0.86597,2.55078 -3.9576,4.38086 -4.35851,2.86865 -0.40091,-1.51215 2.03931,-8.37561 1.95303,-11.94171 -0.0863,-3.5661 -1.16418,-7.18634 -2.47067,-9.45484 -1.30649,-2.26843 -4.3342,-4.11224 -5.36827,-4.15594 -1.03407,-0.0436 -1.51572,2.73309 -0.83615,3.89398 0.67958,1.16089 3.78674,1.5636 4.91359,3.07135 1.12686,1.50769 1.92969,2.63202 1.84755,5.97504 -0.0821,3.34302 -1.19519,11.18146 -2.3404,14.08313 -1.1452,2.90161 -3.58371,1.70141 -4.53082,3.32666 -0.9471,1.6253 0.93903,5.55285 -1.15182,6.42492 -2.09084,0.87207 -7.49483,0.0437 -11.39324,-1.19256 -3.8984,-1.23627 -9.99768,-5.18756 -11.99722,-6.22504"
         id="path169"
         inkscape:connector-curvature="0"
         style="fill:#f1c232;fill-rule:evenodd" />
      <path
         d="m 240.08546,589.9559 c 0.0874,-0.70288 1.12254,-3.03302 0.52461,-4.21741 -0.59794,-1.18438 -5.01874,-1.74957 -4.11227,-2.88885 0.90645,-1.13935 7.00061,-1.72864 9.55104,-3.94708 2.55043,-2.21845 3.66003,-7.6828 5.75149,-9.36365 2.09148,-1.68085 5.00814,-0.68482 6.79732,-0.72125 1.78919,-0.0364 3.56592,1.28631 3.93784,0.50262 0.37192,-0.78369 0.35568,-4.91248 -1.70633,-5.20496 -2.06201,-0.29248 -7.92955,1.31385 -10.66583,3.45008 -2.73627,2.13623 -3.35831,7.46423 -5.75185,9.36737 -2.39352,1.90314 -7.76112,2.48718 -8.60931,2.05139 -0.84821,-0.43579 2.17236,-3.6037 3.52011,-4.6662 1.34774,-1.0625 3.39239,0.31946 4.56637,-1.7088 1.17398,-2.02832 1.80901,-7.76379 2.47754,-10.46106 0.66853,-2.6972 1.87625,-4.53253 1.53366,-5.72229 -0.34259,-1.18976 -2.85147,-3.25281 -3.58922,-1.4162 -0.73773,1.83667 0.0287,9.88526 -0.83721,12.43604 -0.86597,2.55078 -3.9576,4.38086 -4.35851,2.86865 -0.40091,-1.51215 2.03931,-8.37561 1.95303,-11.94171 -0.0863,-3.5661 -1.16418,-7.18634 -2.47067,-9.45484 -1.30649,-2.26843 -4.3342,-4.11224 -5.36827,-4.15594 -1.03407,-0.0436 -1.51572,2.73309 -0.83615,3.89398 0.67958,1.16089 3.78674,1.5636 4.91359,3.07135 1.12686,1.50769 1.92969,2.63202 1.84755,5.97504 -0.0821,3.34302 -1.19519,11.18146 -2.3404,14.08313 -1.1452,2.90161 -3.58371,1.70141 -4.53082,3.32666 -0.9471,1.6253 0.93903,5.55285 -1.15182,6.42492 -2.09084,0.87207 -7.49483,0.0437 -11.39324,-1.19256 -3.8984,-1.23627 -9.99768,-5.18756 -11.99722,-6.22504"
         id="path171"
         inkscape:connector-curvature="0"
         style="fill-rule:evenodd;stroke:#000000;stroke-width:1;stroke-linecap:butt;stroke-linejoin:round" />
      <path
         d="m 147.88283,638.0412 v 0 c -2.78317,-1.86121 -2.29668,-7.3678 1.08661,-12.29919 v 0 c 3.38328,-4.9314 8.38219,-7.42029 11.16536,-5.55909 v 0 c 2.78316,1.86127 2.29666,7.3678 -1.08663,12.29926 v 0 c -3.38328,4.9314 -8.38218,7.42029 -11.16534,5.55902 z"
         id="path173"
         inkscape:connector-curvature="0"
         style="fill:#f1c232;fill-rule:evenodd" />
      <path
         d="m 147.88283,638.0412 v 0 c -2.78317,-1.86121 -2.29668,-7.3678 1.08661,-12.29919 v 0 c 3.38328,-4.9314 8.38219,-7.42029 11.16536,-5.55909 v 0 c 2.78316,1.86127 2.29666,7.3678 -1.08663,12.29926 v 0 c -3.38328,4.9314 -8.38218,7.42029 -11.16534,5.55902 z"
         id="path175"
         inkscape:connector-curvature="0"
         style="fill-rule:evenodd;stroke:#f1c232;stroke-width:1;stroke-linecap:butt;stroke-linejoin:round" />
      <path
         d="m 161.21512,476.02176 c -1.44794,0.63519 -5.40463,8.91602 -4.74803,9.93701 0.65661,1.021 7.89633,-2.15484 8.68767,-3.81103 0.79133,-1.65616 -2.49169,-6.76114 -3.93964,-6.12598 z"
         id="path177"
         inkscape:connector-curvature="0"
         style="fill:#f1c232;fill-rule:evenodd" />
      <path
         d="m 161.56909,476.8751 c -0.50131,0.9567 4.20341,1.71564 5.64566,0.91077 1.44226,-0.8049 3.94882,-5.58838 3.00787,-5.74018 -0.94093,-0.15179 -8.15222,3.87271 -8.65353,4.82941 z"
         id="path179"
         inkscape:connector-curvature="0"
         style="fill:#f1c232;fill-rule:evenodd" />
      <path
         d="m 167.39957,476.78204 c 0.40201,0.92084 -1.64743,5.24716 -2.45932,5.19159 -0.8119,-0.0555 -2.82196,-4.65967 -2.41208,-5.52493 0.40988,-0.86527 4.46938,-0.58747 4.8714,0.33334 z"
         id="path181"
         inkscape:connector-curvature="0"
         style="fill:#f1c232;fill-rule:evenodd" />
      <path
         d="m 210.2126,460.38583 -25.13387,25.51181"
         id="path183"
         inkscape:connector-curvature="0"
         style="fill:#000000;fill-opacity:0;fill-rule:evenodd" />
      <path
         d="m 210.2126,460.38583 -25.13387,25.51181"
         id="path185"
         inkscape:connector-curvature="0"
         style="fill-rule:evenodd;stroke:#000000;stroke-width:1;stroke-linecap:butt;stroke-linejoin:round" />
      <path
         d="m 199.0066,463.844 c -2.53543,1.77649 -6.3924,6.89371 -5.6483,7.28873 0.74409,0.39502 7.57742,-3.14218 10.11287,-4.91864 2.53543,-1.77646 5.84383,-5.34516 5.09973,-5.74015 -0.74409,-0.39502 -7.02887,1.5936 -9.5643,3.37006 z"
         id="path187"
         inkscape:connector-curvature="0"
         style="fill:#f1c232;fill-rule:evenodd" />
      <path
         d="m 233.59201,586.4358 c -0.95801,0.24982 -0.80052,4.31146 0.18898,4.87402 0.9895,0.56256 5.77953,-0.68634 5.74803,-1.49865 -0.0315,-0.81238 -4.979,-3.62513 -5.93701,-3.37537 z"
         id="path189"
         inkscape:connector-curvature="0"
         style="fill:#f1c232;fill-rule:evenodd" />
      <path
         d="m 239.90564,590.247 c -0.11461,-0.34381 -0.35345,-0.79218 -0.87401,-0.68762 -0.52057,0.10455 -2.36395,0.97113 -2.24934,1.31494 0.11461,0.34381 2.41644,0.8526 2.93701,0.74805 0.52055,-0.10456 0.30095,-1.0315 0.18634,-1.37537 z"
         id="path191"
         inkscape:connector-curvature="0"
         style="fill:#f1c232;fill-rule:evenodd" />
      <path
         d="m 236.09364,594.9977 c 0.19772,-0.15613 1.56123,0.80359 1.81102,1.18903 0.24979,0.38537 -0.11461,0.96716 -0.31233,1.12335 -0.19773,0.15613 -0.62424,0.19903 -0.87403,-0.1864 -0.24977,-0.38538 -0.82238,-1.96979 -0.62466,-2.12598 z"
         id="path193"
         inkscape:connector-curvature="0"
         style="fill:#f1c232;fill-rule:evenodd" />
    </g>
    <g
       id="g1417"
       transform="translate(19.336045,-154.81035)">
      <path
         d="m 428.01868,478.49057 c 0.27942,2.19125 1.81604,8.03461 1.67648,13.14755 -0.13958,5.11295 0.41873,8.55649 -2.51394,17.53012 -2.93271,8.9736 -13.82547,22.64249 -15.08219,36.31168 -1.25671,13.66925 5.44712,34.53857 7.54184,45.70367 2.0947,11.16504 3.21109,14.92163 5.0264,21.28687 1.81528,6.36517 3.21185,10.22625 5.86536,16.90429 2.65353,6.67811 7.40225,17.11219 10.05578,23.16419 2.65354,6.05194 1.95514,11.58221 5.86539,13.14758 3.91025,1.56531 15.36182,-0.31238 17.5961,-3.75567 2.23431,-3.44336 -2.93341,-8.76526 -4.1904,-16.90436 -1.25696,-8.1391 -2.0947,-23.26953 -3.35141,-31.9303 -1.25674,-8.66077 -2.6528,-13.9823 -4.18893,-20.03424 -1.53614,-6.05194 -4.32947,-11.06024 -5.0279,-16.27747 -0.69839,-5.21722 1.39606,-8.8695 0.8375,-15.02594 -0.55857,-6.15643 -3.76993,-14.50415 -4.18891,-21.91265 -0.419,-7.40851 0.13883,-14.81678 1.67496,-22.5384 1.53613,-7.72152 5.30731,-17.84314 7.54184,-23.79098 2.23453,-5.94785 1.53613,-9.7048 5.86539,-11.89606 4.32922,-2.19125 13.26712,0.10486 20.11004,-1.25149 6.84296,-1.35639 9.91522,-5.00849 20.94757,-6.88669 11.03235,-1.87821 34.77277,-2.8172 45.24652,-4.38251 10.47376,-1.56534 18.85285,-4.1745 17.59613,-5.0094 -1.25671,-0.8349 -15.77984,-0.20877 -25.13647,0 -9.35663,0.20877 -20.38971,-0.83435 -31.00333,1.25263 -10.61362,2.08697 -33.93527,11.89532 -32.67831,11.26919 1.25699,-0.62613 29.88595,-9.80871 40.22015,-15.02597 10.33417,-5.21722 16.75763,-11.16452 21.78504,-16.27746 5.0274,-5.11295 6.98278,-12.00016 8.37933,-14.40021"
         id="path243"
         inkscape:connector-curvature="0"
         style="fill:#f1c232;fill-rule:evenodd" />
      <path
         d="m 428.01868,478.49057 c 0.27942,2.19125 1.81604,8.03461 1.67648,13.14755 -0.13958,5.11295 0.41873,8.55649 -2.51394,17.53012 -2.93271,8.9736 -13.82547,22.64249 -15.08219,36.31168 -1.25671,13.66925 5.44712,34.53857 7.54184,45.70367 2.0947,11.16504 3.21109,14.92163 5.0264,21.28687 1.81528,6.36517 3.21185,10.22625 5.86536,16.90429 2.65353,6.67811 7.40225,17.11219 10.05578,23.16419 2.65354,6.05194 1.95514,11.58221 5.86539,13.14758 3.91025,1.56531 15.36182,-0.31238 17.5961,-3.75567 2.23431,-3.44336 -2.93341,-8.76526 -4.1904,-16.90436 -1.25696,-8.1391 -2.0947,-23.26953 -3.35141,-31.9303 -1.25674,-8.66077 -2.6528,-13.9823 -4.18893,-20.03424 -1.53614,-6.05194 -4.32947,-11.06024 -5.0279,-16.27747 -0.69839,-5.21722 1.39606,-8.8695 0.8375,-15.02594 -0.55857,-6.15643 -3.76993,-14.50415 -4.18891,-21.91265 -0.419,-7.40851 0.13883,-14.81678 1.67496,-22.5384 1.53613,-7.72152 5.30731,-17.84314 7.54184,-23.79098 2.23453,-5.94785 1.53613,-9.7048 5.86539,-11.89606 4.32922,-2.19125 13.26712,0.10486 20.11004,-1.25149 6.84296,-1.35639 9.91522,-5.00849 20.94757,-6.88669 11.03235,-1.87821 34.77277,-2.8172 45.24652,-4.38251 10.47376,-1.56534 18.85285,-4.1745 17.59613,-5.0094 -1.25671,-0.8349 -15.77984,-0.20877 -25.13647,0 -9.35663,0.20877 -20.38971,-0.83435 -31.00333,1.25263 -10.61362,2.08697 -33.93527,11.89532 -32.67831,11.26919 1.25699,-0.62613 29.88595,-9.80871 40.22015,-15.02597 10.33417,-5.21722 16.75763,-11.16452 21.78504,-16.27746 5.0274,-5.11295 6.98278,-12.00016 8.37933,-14.40021"
         id="path245"
         inkscape:connector-curvature="0"
         style="fill-rule:evenodd;stroke:#000000;stroke-width:1;stroke-linecap:butt;stroke-linejoin:round" />
      <path
         d="m 544.489,431.5357 c -0.69818,-3.75659 -3.21136,-19.82642 -4.1889,-22.53952 -0.9776,-2.71307 -0.8385,1.87839 -1.67646,6.26093 -0.83801,4.3825 0.83796,13.35617 -3.35144,20.03424 -4.18945,6.67807 -11.45086,13.66903 -21.78503,20.03424 -10.33423,6.3652 -37.42706,19.40902 -40.22015,18.15695 -2.79313,-1.25205 16.89798,-18.26068 23.46148,-25.66938 6.56354,-7.40869 10.05429,-14.60897 15.91968,-18.78274 5.86536,-4.17374 16.47949,-3.96423 19.27258,-6.2598 2.79309,-2.29553 3.21186,-9.91336 -2.51397,-7.51352 -5.72577,2.39985 -21.36701,12.31287 -31.84079,21.91263 -10.47379,9.59976 -24.15891,30.78159 -31.00183,35.68595 -6.84296,4.90435 -12.29007,-0.62519 -10.05579,-6.2598 2.23428,-5.63458 15.36157,-20.76523 23.46149,-27.54776 8.09991,-6.78256 21.22772,-9.39117 25.13797,-13.14758 3.91024,-3.75641 0.13906,-9.91245 -1.67646,-9.39081 -1.81555,0.52164 -2.65329,8.76431 -9.21682,12.52069 -6.56351,3.75641 -23.18183,4.48721 -30.16434,10.0177 -6.98254,5.53049 -9.77564,19.30435 -11.73077,23.16525"
         id="path247"
         inkscape:connector-curvature="0"
         style="fill:#f1c232;fill-rule:evenodd" />
      <path
         d="m 544.489,431.5357 c -0.69818,-3.75659 -3.21136,-19.82642 -4.1889,-22.53952 -0.9776,-2.71307 -0.8385,1.87839 -1.67646,6.26093 -0.83801,4.3825 0.83796,13.35617 -3.35144,20.03424 -4.18945,6.67807 -11.45086,13.66903 -21.78503,20.03424 -10.33423,6.3652 -37.42706,19.40902 -40.22015,18.15695 -2.79313,-1.25205 16.89798,-18.26068 23.46148,-25.66938 6.56354,-7.40869 10.05429,-14.60897 15.91968,-18.78274 5.86536,-4.17374 16.47949,-3.96423 19.27258,-6.2598 2.79309,-2.29553 3.21186,-9.91336 -2.51397,-7.51352 -5.72577,2.39985 -21.36701,12.31287 -31.84079,21.91263 -10.47379,9.59976 -24.15891,30.78159 -31.00183,35.68595 -6.84296,4.90435 -12.29007,-0.62519 -10.05579,-6.2598 2.23428,-5.63458 15.36157,-20.76523 23.46149,-27.54776 8.09991,-6.78256 21.22772,-9.39117 25.13797,-13.14758 3.91024,-3.75641 0.13906,-9.91245 -1.67646,-9.39081 -1.81555,0.52164 -2.65329,8.76431 -9.21682,12.52069 -6.56351,3.75641 -23.18183,4.48721 -30.16434,10.0177 -6.98254,5.53049 -9.77564,19.30435 -11.73077,23.16525"
         id="path249"
         inkscape:connector-curvature="0"
         style="fill-rule:evenodd;stroke:#000000;stroke-width:1;stroke-linecap:butt;stroke-linejoin:round" />
      <path
         d="m 452.3189,461.58636 c -1.39655,-0.52167 -5.58621,-4.06909 -8.3793,-3.12991 -2.79312,0.93921 -6.56378,11.47815 -8.37934,8.76504 -1.81555,-2.71307 0.55832,-17.84372 -2.51394,-25.04361 -3.07227,-7.19992 -13.68537,-12.3125 -15.91965,-18.15585 -2.23428,-5.84339 1.53638,-12.52182 2.51395,-16.90436 0.97754,-4.38254 4.74795,-8.13873 3.35141,-9.39081 -1.39655,-1.25207 -9.9152,-3.02597 -11.73075,1.87839 -1.81555,4.90436 -1.95538,19.93051 0.8375,27.54776 2.79284,7.61728 13.40597,11.47778 15.91964,18.15588 2.51371,6.67807 0.55884,20.03443 -0.83746,21.9126 -1.39633,1.87821 -6.1438,-6.88702 -7.54034,-10.64343 -1.39658,-3.75638 2.65252,-8.13855 -0.83899,-11.89493 -3.49152,-3.75641 -14.94309,-7.82605 -20.11008,-10.64343 -5.16696,-2.81742 -8.23849,-6.57398 -10.89175,-6.26093 -2.65329,0.31308 -8.37958,5.53067 -5.0279,8.13932 3.35169,2.60861 20.38971,4.27786 25.13794,7.51242 4.74823,3.23455 6.70313,11.58188 3.35144,11.89492 -3.35168,0.31308 -16.05999,-8.66018 -23.46148,-10.01654 -7.40152,-1.35638 -15.50119,-0.31289 -20.94757,1.87836 -5.44638,2.19128 -11.03235,8.76486 -11.73075,11.2692 -0.69839,2.50433 4.7475,4.90454 7.54035,3.75677 2.79288,-1.14776 5.44613,-8.55646 9.2168,-10.64343 3.77069,-2.08698 6.56427,-3.54782 13.40722,-1.87839 6.84293,1.66943 22.3436,7.8255 27.65042,11.89496 5.3068,4.06946 1.39728,9.49564 4.1904,12.52182 2.79309,3.02615 10.75293,5.5e-4 12.56824,5.63513 1.81528,5.63461 1.25622,18.15531 -1.67648,28.17243 -2.93268,10.01712 -13.26639,26.60861 -15.91965,31.93032"
         id="path251"
         inkscape:connector-curvature="0"
         style="fill:#f1c232;fill-rule:evenodd" />
      <path
         d="m 452.3189,461.58636 c -1.39655,-0.52167 -5.58621,-4.06909 -8.3793,-3.12991 -2.79312,0.93921 -6.56378,11.47815 -8.37934,8.76504 -1.81555,-2.71307 0.55832,-17.84372 -2.51394,-25.04361 -3.07227,-7.19992 -13.68537,-12.3125 -15.91965,-18.15585 -2.23428,-5.84339 1.53638,-12.52182 2.51395,-16.90436 0.97754,-4.38254 4.74795,-8.13873 3.35141,-9.39081 -1.39655,-1.25207 -9.9152,-3.02597 -11.73075,1.87839 -1.81555,4.90436 -1.95538,19.93051 0.8375,27.54776 2.79284,7.61728 13.40597,11.47778 15.91964,18.15588 2.51371,6.67807 0.55884,20.03443 -0.83746,21.9126 -1.39633,1.87821 -6.1438,-6.88702 -7.54034,-10.64343 -1.39658,-3.75638 2.65252,-8.13855 -0.83899,-11.89493 -3.49152,-3.75641 -14.94309,-7.82605 -20.11008,-10.64343 -5.16696,-2.81742 -8.23849,-6.57398 -10.89175,-6.26093 -2.65329,0.31308 -8.37958,5.53067 -5.0279,8.13932 3.35169,2.60861 20.38971,4.27786 25.13794,7.51242 4.74823,3.23455 6.70313,11.58188 3.35144,11.89492 -3.35168,0.31308 -16.05999,-8.66018 -23.46148,-10.01654 -7.40152,-1.35638 -15.50119,-0.31289 -20.94757,1.87836 -5.44638,2.19128 -11.03235,8.76486 -11.73075,11.2692 -0.69839,2.50433 4.7475,4.90454 7.54035,3.75677 2.79288,-1.14776 5.44613,-8.55646 9.2168,-10.64343 3.77069,-2.08698 6.56427,-3.54782 13.40722,-1.87839 6.84293,1.66943 22.3436,7.8255 27.65042,11.89496 5.3068,4.06946 1.39728,9.49564 4.1904,12.52182 2.79309,3.02615 10.75293,5.5e-4 12.56824,5.63513 1.81528,5.63461 1.25622,18.15531 -1.67648,28.17243 -2.93268,10.01712 -13.26639,26.60861 -15.91965,31.93032"
         id="path253"
         inkscape:connector-curvature="0"
         style="fill-rule:evenodd;stroke:#000000;stroke-width:1;stroke-linecap:butt;stroke-linejoin:round" />
      <path
         d="m 499.72385,446.59268 c -10.14181,6.61139 -26.08948,23.45294 -26.27145,26.13953 -0.18198,2.68661 17.03802,-5.98322 25.17959,-10.0199 8.14157,-4.03665 17.72452,-9.25873 23.66977,-14.20014 5.94519,-4.9414 15.76447,-15.12838 12.00147,-15.4483 -3.763,-0.31991 -24.43756,6.91742 -34.57938,13.52881 z"
         id="path255"
         inkscape:connector-curvature="0"
         style="fill:#ffffff;fill-rule:evenodd" />
      <path
         d="m 464.30292,457.03036 c -4.65823,3.46594 -7.54007,9.45139 -7.7218,12.27728 -0.18173,2.82593 3.42779,5.86133 6.63144,4.67819 3.20367,-1.18316 9.03756,-7.53152 12.59054,-11.77713 3.55301,-4.24563 10.64411,-12.83358 8.72742,-13.69665 -1.91669,-0.86304 -15.56934,5.05237 -20.2276,8.51831 z"
         id="path257"
         inkscape:connector-curvature="0"
         style="fill:#ffffff;fill-rule:evenodd" />
      <path
         d="m 427.64304,598.4872 v 0 c 0,-6.61823 5.32709,-11.98334 11.89838,-11.98334 v 0 c 3.15564,0 6.18206,1.26252 8.41345,3.50983 2.23135,2.24731 3.48495,5.29535 3.48495,8.47351 v 0 c 0,6.61823 -5.32712,11.9834 -11.8984,11.9834 v 0 c -6.57129,0 -11.89838,-5.36517 -11.89838,-11.9834 z"
         id="path259"
         inkscape:connector-curvature="0"
         style="fill:#f1c232;fill-rule:evenodd" />
      <path
         d="m 427.64304,598.4872 v 0 c 0,-6.61823 5.32709,-11.98334 11.89838,-11.98334 v 0 c 3.15564,0 6.18206,1.26252 8.41345,3.50983 2.23135,2.24731 3.48495,5.29535 3.48495,8.47351 v 0 c 0,6.61823 -5.32712,11.9834 -11.8984,11.9834 v 0 c -6.57129,0 -11.89838,-5.36517 -11.89838,-11.9834 z"
         id="path261"
         inkscape:connector-curvature="0"
         style="fill-rule:evenodd;stroke:#f1c232;stroke-width:1;stroke-linecap:butt;stroke-linejoin:round" />
      <path
         d="m 439.43875,610.4702 v 0 c -2.56439,-1.70636 -2.11615,-6.75476 1.00122,-11.27594 v 0 c 3.11737,-4.52112 7.72336,-6.80292 10.28775,-5.0965 v 0 c 2.56442,1.70636 2.11615,6.75476 -1.00119,11.27588 v 0 c -3.11737,4.52112 -7.72336,6.80292 -10.28778,5.09656 z"
         id="path263"
         inkscape:connector-curvature="0"
         style="fill:#f1c232;fill-rule:evenodd" />
      <path
         d="m 439.43875,610.4702 v 0 c -2.56439,-1.70636 -2.11615,-6.75476 1.00122,-11.27594 v 0 c 3.11737,-4.52112 7.72336,-6.80292 10.28775,-5.0965 v 0 c 2.56442,1.70636 2.11615,6.75476 -1.00119,11.27588 v 0 c -3.11737,4.52112 -7.72336,6.80292 -10.28778,5.09656 z"
         id="path265"
         inkscape:connector-curvature="0"
         style="fill-rule:evenodd;stroke:#f1c232;stroke-width:1;stroke-linecap:butt;stroke-linejoin:round" />
      <path
         d="m 451.72314,461.9308 c -1.33414,0.58231 -4.97983,8.17419 -4.37482,9.11026 0.60498,0.93604 7.27567,-1.97559 8.00479,-3.49396 0.72916,-1.51837 -2.29583,-6.19864 -3.62997,-5.6163 z"
         id="path267"
         inkscape:connector-curvature="0"
         style="fill:#f1c232;fill-rule:evenodd" />
      <path
         d="m 452.0493,462.7131 c -0.46191,0.87711 3.87302,1.57291 5.20193,0.83499 1.32889,-0.73794 3.63843,-5.12341 2.77146,-5.26257 -0.86701,-0.13916 -7.51148,3.55047 -7.97339,4.42758 z"
         id="path269"
         inkscape:connector-curvature="0"
         style="fill:#f1c232;fill-rule:evenodd" />
      <path
         d="m 457.42148,462.6278 c 0.37042,0.84421 -1.51791,4.81058 -2.26599,4.75964 -0.74811,-0.0509 -2.60016,-4.27197 -2.2225,-5.06524 0.37768,-0.79328 4.1181,-0.53861 4.48849,0.3056 z"
         id="path271"
         inkscape:connector-curvature="0"
         style="fill:#f1c232;fill-rule:evenodd" />
      <path
         d="m 496.86942,447.59576 -23.15833,23.38922"
         id="path273"
         inkscape:connector-curvature="0"
         style="fill:#000000;fill-opacity:0;fill-rule:evenodd" />
      <path
         d="m 496.86942,447.59576 -23.15833,23.38922"
         id="path275"
         inkscape:connector-curvature="0"
         style="fill-rule:evenodd;stroke:#000000;stroke-width:1;stroke-linecap:butt;stroke-linejoin:round" />
      <path
         d="m 486.54422,450.7662 c -2.33615,1.62866 -5.88995,6.32016 -5.20435,6.68231 0.68561,0.36212 6.98185,-2.88077 9.318,-4.50943 2.33615,-1.62866 5.38452,-4.90042 4.69891,-5.26257 -0.68561,-0.36215 -6.47641,1.46103 -8.81256,3.08969 z"
         id="path277"
         inkscape:connector-curvature="0"
         style="fill:#f1c232;fill-rule:evenodd" />
      <path
         d="m 538.3747,537.9591 c -0.24146,1.06354 -0.0361,4.10132 -1.44891,6.38147 -1.41285,2.28015 -3.22119,2.97693 -7.02814,7.29938 -3.80695,4.32245 -12.91876,11.51465 -15.81366,18.63519 -2.89487,7.12054 -2.27515,17.89758 -1.55573,24.08807 0.71943,6.19049 4.54688,8.70301 5.87226,13.05475 1.32538,4.35175 0.42084,8.11426 2.08008,13.05579 1.65918,4.94153 4.12939,12.74036 7.87518,16.59338 3.74585,3.85297 11.39435,6.26099 14.59967,6.52466 3.20532,0.26373 3.52307,-2.18494 4.63226,-4.94256 1.10919,-2.75763 1.59863,-8.00715 2.02277,-11.60315 0.42419,-3.59601 1.4992,-6.65137 0.52215,-9.97278 -0.97705,-3.32141 -4.80145,-6.5409 -6.38433,-9.95557 -1.58289,-3.41473 -3.32209,-7.224 -3.11292,-10.53259 0.20917,-3.30859 3.00708,-5.80713 4.36798,-9.31897 1.3609,-3.51184 2.44281,-7.87683 3.79743,-11.75214 1.35461,-3.87536 1.70544,-7.91766 4.33026,-11.49987 2.62475,-3.58222 9.20868,-7.52234 11.41839,-9.99335 2.20978,-2.47101 1.07672,-3.89691 1.84003,-4.83264 0.76337,-0.93579 1.27405,-0.54547 2.74011,-0.78192 1.46607,-0.23652 4.09314,-0.38172 6.05628,-0.63691 1.96319,-0.25525 3.59393,-0.77032 5.72271,-0.89441 2.12873,-0.12414 4.93763,9.2e-4 7.04981,0.14972 2.11218,0.14875 3.66607,0.83863 5.62323,0.7428 1.95715,-0.0958 4.75958,-0.42566 6.11981,-1.31756 1.36023,-0.89191 3.76221,-3.62073 2.04144,-4.03376 -1.72076,-0.41302 -11.46264,1.40833 -12.36615,1.55573 -0.9035,0.1474 9.70191,-0.75092 6.94507,-0.67121 -2.75683,0.0797 -19.57171,0.95795 -23.48608,1.14954"
         id="path279"
         inkscape:connector-curvature="0"
         style="fill:#f1c232;fill-rule:evenodd" />
      <path
         d="m 538.3747,537.9591 c -0.24146,1.06354 -0.0361,4.10132 -1.44891,6.38147 -1.41285,2.28015 -3.22119,2.97693 -7.02814,7.29938 -3.80695,4.32245 -12.91876,11.51465 -15.81366,18.63519 -2.89487,7.12054 -2.27515,17.89758 -1.55573,24.08807 0.71943,6.19049 4.54688,8.70301 5.87226,13.05475 1.32538,4.35175 0.42084,8.11426 2.08008,13.05579 1.65918,4.94153 4.12939,12.74036 7.87518,16.59338 3.74585,3.85297 11.39435,6.26099 14.59967,6.52466 3.20532,0.26373 3.52307,-2.18494 4.63226,-4.94256 1.10919,-2.75763 1.59863,-8.00715 2.02277,-11.60315 0.42419,-3.59601 1.4992,-6.65137 0.52215,-9.97278 -0.97705,-3.32141 -4.80145,-6.5409 -6.38433,-9.95557 -1.58289,-3.41473 -3.32209,-7.224 -3.11292,-10.53259 0.20917,-3.30859 3.00708,-5.80713 4.36798,-9.31897 1.3609,-3.51184 2.44281,-7.87683 3.79743,-11.75214 1.35461,-3.87536 1.70544,-7.91766 4.33026,-11.49987 2.62475,-3.58222 9.20868,-7.52234 11.41839,-9.99335 2.20978,-2.47101 1.07672,-3.89691 1.84003,-4.83264 0.76337,-0.93579 1.27405,-0.54547 2.74011,-0.78192 1.46607,-0.23652 4.09314,-0.38172 6.05628,-0.63691 1.96319,-0.25525 3.59393,-0.77032 5.72271,-0.89441 2.12873,-0.12414 4.93763,9.2e-4 7.04981,0.14972 2.11218,0.14875 3.66607,0.83863 5.62323,0.7428 1.95715,-0.0958 4.75958,-0.42566 6.11981,-1.31756 1.36023,-0.89191 3.76221,-3.62073 2.04144,-4.03376 -1.72076,-0.41302 -11.46264,1.40833 -12.36615,1.55573 -0.9035,0.1474 9.70191,-0.75092 6.94507,-0.67121 -2.75683,0.0797 -19.57171,0.95795 -23.48608,1.14954"
         id="path281"
         inkscape:connector-curvature="0"
         style="fill-rule:evenodd;stroke:#000000;stroke-width:1;stroke-linecap:butt;stroke-linejoin:round" />
      <path
         d="m 564.1337,545.4548 c 2.63416,-0.87097 12.18414,-4.06848 15.80499,-5.22583 3.62091,-1.15729 3.23609,-0.84601 5.92023,-1.71802 2.68414,-0.87195 10.64319,-3.0307 10.18463,-3.51379 -0.45856,-0.48309 -6.98944,-0.60663 -12.93591,0.61523 -5.94647,1.22187 -21.64508,7.12934 -22.7428,6.71601 -1.09778,-0.41339 12.15784,-7.13721 16.15625,-9.19617 3.99841,-2.05896 5.29358,-2.33582 7.83417,-3.15765 2.54065,-0.82178 6.47839,-1.2389 7.40954,-1.7732 0.93122,-0.53424 0.24298,-1.32556 -1.82251,-1.43243 -2.06543,-0.10681 -4.95092,-1.52741 -10.57013,0.79138 -5.61926,2.31879 -18.90441,11.39355 -23.14532,13.12128 -4.24091,1.72772 -4.28638,-0.16272 -2.30005,-2.75476 1.98639,-2.59211 8.99396,-10.30658 14.2182,-12.79761 5.22431,-2.49109 14.47778,-1.32251 17.12744,-2.14874 2.64966,-0.82624 0.23835,-2.40998 -1.22943,-2.80872 -1.46777,-0.39874 -3.64636,-0.45715 -7.57727,0.41626 -3.93091,0.87347 -12.07446,2.56451 -16.00824,4.82428 -3.93378,2.25983 -6.32861,7.27887 -7.59436,8.73462"
         id="path283"
         inkscape:connector-curvature="0"
         style="fill:#f1c232;fill-rule:evenodd" />
      <path
         d="m 564.1337,545.4548 c 2.63416,-0.87097 12.18414,-4.06848 15.80499,-5.22583 3.62091,-1.15729 3.23609,-0.84601 5.92023,-1.71802 2.68414,-0.87195 10.64319,-3.0307 10.18463,-3.51379 -0.45856,-0.48309 -6.98944,-0.60663 -12.93591,0.61523 -5.94647,1.22187 -21.64508,7.12934 -22.7428,6.71601 -1.09778,-0.41339 12.15784,-7.13721 16.15625,-9.19617 3.99841,-2.05896 5.29358,-2.33582 7.83417,-3.15765 2.54065,-0.82178 6.47839,-1.2389 7.40954,-1.7732 0.93122,-0.53424 0.24298,-1.32556 -1.82251,-1.43243 -2.06543,-0.10681 -4.95092,-1.52741 -10.57013,0.79138 -5.61926,2.31879 -18.90441,11.39355 -23.14532,13.12128 -4.24091,1.72772 -4.28638,-0.16272 -2.30005,-2.75476 1.98639,-2.59211 8.99396,-10.30658 14.2182,-12.79761 5.22431,-2.49109 14.47778,-1.32251 17.12744,-2.14874 2.64966,-0.82624 0.23835,-2.40998 -1.22943,-2.80872 -1.46777,-0.39874 -3.64636,-0.45715 -7.57727,0.41626 -3.93091,0.87347 -12.07446,2.56451 -16.00824,4.82428 -3.93378,2.25983 -6.32861,7.27887 -7.59436,8.73462"
         id="path285"
         inkscape:connector-curvature="0"
         style="fill-rule:evenodd;stroke:#000000;stroke-width:1;stroke-linecap:butt;stroke-linejoin:round" />
      <path
         d="m 553.20435,534.20166 c -0.73486,-0.49774 -2.75415,-2.95203 -4.40906,-2.98651 -1.65497,-0.0344 -4.75659,4.40973 -5.52075,2.77972 -0.76416,-1.63 1.98462,-8.53766 0.93573,-12.55975 -1.04895,-4.02209 -6.5238,-8.35327 -7.22931,-11.57275 -0.7055,-3.21949 2.03705,-5.79364 2.99622,-7.74418 0.95916,-1.95053 3.42529,-3.10867 2.75879,-3.95898 -0.66645,-0.85034 -5.27906,-3.19943 -6.75763,-1.14304 -1.47852,2.0564 -2.96698,9.30594 -2.11365,13.48142 0.85339,4.17545 6.44849,7.89877 7.2337,11.57144 0.78516,3.67267 -1.5628,9.79938 -2.52258,10.46448 -0.95984,0.66516 -2.80414,-4.41034 -3.23633,-6.47376 -0.43219,-2.06335 2.24964,-3.47808 0.64325,-5.90655 -1.60638,-2.42847 -7.6474,-6.39764 -10.28155,-8.66428 -2.6341,-2.26663 -4.00556,-4.62277 -5.52314,-4.93551 -1.51757,-0.31278 -5.2185,1.21023 -3.58239,3.05896 1.63617,1.84875 11.03857,5.63727 13.39923,8.03344 2.36072,2.39612 2.67529,6.77808 0.76495,6.34351 -1.9104,-0.43457 -8.20184,-7.00043 -12.22717,-8.95093 -4.02533,-1.95044 -8.66474,-2.86096 -11.92478,-2.75189 -3.26004,0.10901 -7.00888,2.31598 -7.63546,3.40625 -0.62659,1.09033 2.20141,3.20331 3.87597,3.1355 1.67456,-0.0678 3.86045,-3.19031 6.17142,-3.54218 2.31097,-0.35186 4.01279,-0.57354 7.69443,1.43091 3.6817,2.00452 11.79919,7.69745 14.39569,10.59595 2.5965,2.8985 -0.10034,4.84192 1.18335,6.7951 1.28363,1.95313 6.71478,2.16889 6.51874,4.92383 -0.19599,2.75501 -4.40808,7.68054 -7.69495,11.6059 -3.28687,3.92541 -10.02185,9.95538 -12.02618,11.94647"
         id="path287"
         inkscape:connector-curvature="0"
         style="fill:#f1c232;fill-rule:evenodd" />
      <path
         d="m 553.20435,534.20166 c -0.73486,-0.49774 -2.75415,-2.95203 -4.40906,-2.98651 -1.65497,-0.0344 -4.75659,4.40973 -5.52075,2.77972 -0.76416,-1.63 1.98462,-8.53766 0.93573,-12.55975 -1.04895,-4.02209 -6.5238,-8.35327 -7.22931,-11.57275 -0.7055,-3.21949 2.03705,-5.79364 2.99622,-7.74418 0.95916,-1.95053 3.42529,-3.10867 2.75879,-3.95898 -0.66645,-0.85034 -5.27906,-3.19943 -6.75763,-1.14304 -1.47852,2.0564 -2.96698,9.30594 -2.11365,13.48142 0.85339,4.17545 6.44849,7.89877 7.2337,11.57144 0.78516,3.67267 -1.5628,9.79938 -2.52258,10.46448 -0.95984,0.66516 -2.80414,-4.41034 -3.23633,-6.47376 -0.43219,-2.06335 2.24964,-3.47808 0.64325,-5.90655 -1.60638,-2.42847 -7.6474,-6.39764 -10.28155,-8.66428 -2.6341,-2.26663 -4.00556,-4.62277 -5.52314,-4.93551 -1.51757,-0.31278 -5.2185,1.21023 -3.58239,3.05896 1.63617,1.84875 11.03857,5.63727 13.39923,8.03344 2.36072,2.39612 2.67529,6.77808 0.76495,6.34351 -1.9104,-0.43457 -8.20184,-7.00043 -12.22717,-8.95093 -4.02533,-1.95044 -8.66474,-2.86096 -11.92478,-2.75189 -3.26004,0.10901 -7.00888,2.31598 -7.63546,3.40625 -0.62659,1.09033 2.20141,3.20331 3.87597,3.1355 1.67456,-0.0678 3.86045,-3.19031 6.17142,-3.54218 2.31097,-0.35186 4.01279,-0.57354 7.69443,1.43091 3.6817,2.00452 11.79919,7.69745 14.39569,10.59595 2.5965,2.8985 -0.10034,4.84192 1.18335,6.7951 1.28363,1.95313 6.71478,2.16889 6.51874,4.92383 -0.19599,2.75501 -4.40808,7.68054 -7.69495,11.6059 -3.28687,3.92541 -10.02185,9.95538 -12.02618,11.94647"
         id="path289"
         inkscape:connector-curvature="0"
         style="fill-rule:evenodd;stroke:#000000;stroke-width:1;stroke-linecap:butt;stroke-linejoin:round" />
      <path
         d="m 554.9502,534.2555 c -0.84125,-0.40277 -8.56763,2.7995 -9.27167,3.84271 -0.70404,1.04322 3.5022,3.05707 5.04749,2.41663 1.54529,-0.64044 5.06543,-5.85657 4.22418,-6.25934 z"
         id="path291"
         inkscape:connector-curvature="0"
         style="fill:#f1c232;fill-rule:evenodd" />
    </g>
    <path
       style="fill:#f1c232;fill-rule:evenodd"
       inkscape:connector-curvature="0"
       id="path195"
       d="m 744.25372,298.99056 c 0.3111,2.314 2.07159,8.7488 1.86646,13.8837 -0.20521,5.1348 -0.3396,8.1168 -3.09742,16.9253 -2.75787,8.8086 -12.32885,22.4015 -13.44958,35.9259 -1.12067,13.5243 4.8573,34.1734 6.72546,45.2204 1.86817,11.047 2.86481,14.7638 4.48358,21.0613 1.61884,6.2976 2.8631,10.117 5.22913,16.7241 2.36609,6.6072 6.60077,16.9307 8.96728,22.9187 2.36646,5.9881 1.74482,11.4607 5.23176,13.0094 3.48699,1.5487 13.69781,-0.3101 15.69,-3.717 1.99225,-3.4068 -2.61585,-8.6712 -3.73676,-16.7241 -1.12091,-8.0528 -1.86798,-23.0239 -2.98865,-31.5931 -1.12066,-8.5691 -2.3656,-13.8343 -3.73547,-19.8219 -1.36987,-5.9877 -3.86084,-10.9422 -4.48364,-16.1039 -0.6228,-5.1618 1.24493,-8.7754 0.74682,-14.8668 -0.4981,-6.0913 -3.362,-14.3513 -3.73541,-21.6815 -0.37347,-7.3301 0.12488,-14.6598 1.49494,-22.2995 1.37011,-7.6398 4.73303,-17.6541 6.72546,-23.5389 1.99243,-5.8849 1.36853,-9.6022 5.22913,-11.7701 3.86059,-2.1678 11.83227,0.1047 17.93444,-1.2371 6.10224,-1.3418 8.84082,-4.9554 18.67863,-6.8137 9.8379,-1.8583 31.0084,-2.7873 40.3487,-4.3361 9.3402,-1.5487 16.8133,-4.1302 15.6926,-4.9563 -1.1206,-0.826 -14.073,-0.2066 -22.4168,0 -8.3437,0.2066 -18.1814,-0.8255 -27.6458,1.2394 -9.4645,2.0648 -30.26164,11.7692 -29.14091,11.1497 1.12067,-0.6195 26.64961,-9.7046 35.86501,-14.8667 9.2152,-5.1622 14.9436,-11.0471 19.4268,-16.1061 4.4831,-5.059 6.2269,-11.873 7.4722,-14.2476" />
    <path
       style="fill-rule:evenodd;stroke:#000000;stroke-width:1;stroke-linecap:butt;stroke-linejoin:round"
       inkscape:connector-curvature="0"
       id="path197"
       d="m 744.25372,298.99056 c 0.3111,2.314 2.07159,8.7488 1.86646,13.8837 -0.20521,5.1348 -0.3396,8.1168 -3.09742,16.9253 -2.75787,8.8086 -12.32885,22.4015 -13.44958,35.9259 -1.12067,13.5243 4.8573,34.1734 6.72546,45.2204 1.86817,11.047 2.86481,14.7638 4.48358,21.0613 1.61884,6.2976 2.8631,10.117 5.22913,16.7241 2.36609,6.6072 6.60077,16.9307 8.96728,22.9187 2.36646,5.9881 1.74482,11.4607 5.23176,13.0094 3.48699,1.5487 13.69781,-0.3101 15.69,-3.717 1.99225,-3.4068 -2.61585,-8.6712 -3.73676,-16.7241 -1.12091,-8.0528 -1.86798,-23.0239 -2.98865,-31.5931 -1.12066,-8.5691 -2.3656,-13.8343 -3.73547,-19.8219 -1.36987,-5.9877 -3.86084,-10.9422 -4.48364,-16.1039 -0.6228,-5.1618 1.24493,-8.7754 0.74682,-14.8668 -0.4981,-6.0913 -3.362,-14.3513 -3.73541,-21.6815 -0.37347,-7.3301 0.12488,-14.6598 1.49494,-22.2995 1.37011,-7.6398 4.73303,-17.6541 6.72546,-23.5389 1.99243,-5.8849 1.36853,-9.6022 5.22913,-11.7701 3.86059,-2.1678 11.83227,0.1047 17.93444,-1.2371 6.10224,-1.3418 8.84082,-4.9554 18.67863,-6.8137 9.8379,-1.8583 31.0084,-2.7873 40.3487,-4.3361 9.3402,-1.5487 16.8133,-4.1302 15.6926,-4.9563 -1.1206,-0.826 -14.073,-0.2066 -22.4168,0 -8.3437,0.2066 -18.1814,-0.8255 -27.6458,1.2394 -9.4645,2.0648 -30.26164,11.7692 -29.14091,11.1497 1.12067,-0.6195 26.64961,-9.7046 35.86501,-14.8667 9.2152,-5.1622 14.9436,-11.0471 19.4268,-16.1061 4.4831,-5.059 6.2269,-11.873 7.4722,-14.2476" />
    <path
       style="fill:#f1c232;fill-rule:evenodd"
       inkscape:connector-curvature="0"
       id="path199"
       d="m 847.63238,252.98906 c -0.6226,-3.7167 -2.8637,-19.6163 -3.7355,-22.3006 -0.8717,-2.6844 -0.7477,1.8585 -1.4949,6.1945 -0.7473,4.3361 0.7472,13.2147 -2.9887,19.822 -3.7359,6.6073 -10.2113,13.5242 -19.4268,19.822 -9.2155,6.2977 -33.37554,19.2033 -35.86633,17.9645 -2.49072,-1.2388 15.06879,-18.0672 20.92183,-25.3974 5.853,-7.3302 8.9659,-14.4542 14.1963,-18.5837 5.2305,-4.1295 14.6956,-3.9222 17.1864,-6.1935 2.4907,-2.2712 2.8641,-9.8083 -2.2418,-7.4339 -5.106,2.3745 -19.0541,12.1824 -28.3941,21.6805 -9.34001,9.498 -21.54369,30.4554 -27.64592,35.3078 -6.10218,4.8524 -10.95966,-0.6186 -8.96723,-6.1935 1.99244,-5.5748 13.69873,-20.5452 20.92182,-27.2558 7.22308,-6.7107 18.92983,-9.2917 22.41673,-13.0083 3.487,-3.7166 0.124,-9.8074 -1.4949,-9.2913 -1.619,0.5161 -2.3661,8.6714 -8.21913,12.388 -5.85303,3.7166 -20.67243,4.4397 -26.89905,9.9116 -6.22669,5.4718 -8.71747,19.0998 -10.46094,22.9198" />
    <path
       style="fill-rule:evenodd;stroke:#000000;stroke-width:1;stroke-linecap:butt;stroke-linejoin:round"
       inkscape:connector-curvature="0"
       id="path201"
       d="m 847.63238,252.98906 c -0.6226,-3.7167 -2.8637,-19.6163 -3.7355,-22.3006 -0.8717,-2.6844 -0.7477,1.8585 -1.4949,6.1945 -0.7473,4.3361 0.7472,13.2147 -2.9887,19.822 -3.7359,6.6073 -10.2113,13.5242 -19.4268,19.822 -9.2155,6.2977 -33.37554,19.2033 -35.86633,17.9645 -2.49072,-1.2388 15.06879,-18.0672 20.92183,-25.3974 5.853,-7.3302 8.9659,-14.4542 14.1963,-18.5837 5.2305,-4.1295 14.6956,-3.9222 17.1864,-6.1935 2.4907,-2.2712 2.8641,-9.8083 -2.2418,-7.4339 -5.106,2.3745 -19.0541,12.1824 -28.3941,21.6805 -9.34001,9.498 -21.54369,30.4554 -27.64592,35.3078 -6.10218,4.8524 -10.95966,-0.6186 -8.96723,-6.1935 1.99244,-5.5748 13.69873,-20.5452 20.92182,-27.2558 7.22308,-6.7107 18.92983,-9.2917 22.41673,-13.0083 3.487,-3.7166 0.124,-9.8074 -1.4949,-9.2913 -1.619,0.5161 -2.3661,8.6714 -8.21913,12.388 -5.85303,3.7166 -20.67243,4.4397 -26.89905,9.9116 -6.22669,5.4718 -8.71747,19.0998 -10.46094,22.9198" />
    <path
       style="fill:#f1c232;fill-rule:evenodd"
       inkscape:connector-curvature="0"
       id="path203"
       d="m 765.4397,282.72136 c -1.24536,-0.5162 -4.98151,-4.026 -7.47223,-3.0968 -2.49078,0.9293 -5.85327,11.3566 -7.47229,8.6722 -1.61902,-2.6843 0.49786,-17.6546 -2.24182,-24.7783 -2.73969,-7.1236 -12.20392,-12.182 -14.19635,-17.9634 -1.99243,-5.7815 1.37006,-12.3892 2.24182,-16.7253 0.87171,-4.336 4.23401,-8.0524 2.98865,-9.2912 -1.24542,-1.2389 -8.84192,-2.994 -10.46094,1.8584 -1.61902,4.8524 -1.74365,19.7193 0.74683,27.2559 2.49054,7.5366 11.95477,11.3562 14.19641,17.9635 2.24158,6.6073 0.49829,19.8221 -0.74683,21.6804 -1.24518,1.8583 -5.47876,-6.814 -6.72412,-10.5306 -1.24536,-3.7166 2.36542,-8.0524 -0.74817,-11.7689 -3.11352,-3.7167 -13.3255,-7.7432 -17.93316,-10.5307 -4.60761,-2.7875 -7.34668,-6.5043 -9.71271,-6.1946 -2.36609,0.3098 -7.47248,5.4721 -4.48365,8.0531 2.98884,2.5809 18.18256,4.2325 22.41681,7.4328 4.2342,3.2003 5.97748,11.4592 2.98859,11.7689 -2.98883,0.3098 -14.32147,-8.5684 -20.92175,-9.9104 -6.60034,-1.342 -13.82318,-0.3096 -18.67999,1.8585 -4.85682,2.168 -9.83814,8.672 -10.46094,11.1497 -0.62274,2.4778 4.23358,4.8526 6.72412,3.717 2.49054,-1.1356 4.85663,-8.4658 8.21911,-10.5306 3.36249,-2.0649 5.8537,-3.5103 11.95588,-1.8585 6.10217,1.6517 19.92492,7.7425 24.65722,11.7689 4.73236,4.0263 1.2461,9.395 3.73682,12.3891 2.49078,2.9941 9.58893,6e-4 11.2077,5.5755 1.61884,5.5748 1.12024,17.9629 -1.49493,27.8739 -2.61524,9.9109 -11.83032,26.3266 -14.19641,31.5919" />
    <path
       style="fill-rule:evenodd;stroke:#000000;stroke-width:1;stroke-linecap:butt;stroke-linejoin:round"
       inkscape:connector-curvature="0"
       id="path205"
       d="m 765.4397,282.72136 c -1.24536,-0.5162 -4.98151,-4.026 -7.47223,-3.0968 -2.49078,0.9293 -5.85327,11.3566 -7.47229,8.6722 -1.61902,-2.6843 0.49786,-17.6546 -2.24182,-24.7783 -2.73969,-7.1236 -12.20392,-12.182 -14.19635,-17.9634 -1.99243,-5.7815 1.37006,-12.3892 2.24182,-16.7253 0.87171,-4.336 4.23401,-8.0524 2.98865,-9.2912 -1.24542,-1.2389 -8.84192,-2.994 -10.46094,1.8584 -1.61902,4.8524 -1.74365,19.7193 0.74683,27.2559 2.49054,7.5366 11.95477,11.3562 14.19641,17.9635 2.24158,6.6073 0.49829,19.8221 -0.74683,21.6804 -1.24518,1.8583 -5.47876,-6.814 -6.72412,-10.5306 -1.24536,-3.7166 2.36542,-8.0524 -0.74817,-11.7689 -3.11352,-3.7167 -13.3255,-7.7432 -17.93316,-10.5307 -4.60761,-2.7875 -7.34668,-6.5043 -9.71271,-6.1946 -2.36609,0.3098 -7.47248,5.4721 -4.48365,8.0531 2.98884,2.5809 18.18256,4.2325 22.41681,7.4328 4.2342,3.2003 5.97748,11.4592 2.98859,11.7689 -2.98883,0.3098 -14.32147,-8.5684 -20.92175,-9.9104 -6.60034,-1.342 -13.82318,-0.3096 -18.67999,1.8585 -4.85682,2.168 -9.83814,8.672 -10.46094,11.1497 -0.62274,2.4778 4.23358,4.8526 6.72412,3.717 2.49054,-1.1356 4.85663,-8.4658 8.21911,-10.5306 3.36249,-2.0649 5.8537,-3.5103 11.95588,-1.8585 6.10217,1.6517 19.92492,7.7425 24.65722,11.7689 4.73236,4.0263 1.2461,9.395 3.73682,12.3891 2.49078,2.9941 9.58893,6e-4 11.2077,5.5755 1.61884,5.5748 1.12024,17.9629 -1.49493,27.8739 -2.61524,9.9109 -11.83032,26.3266 -14.19641,31.5919" />
    <path
       style="fill:#ffffff;fill-rule:evenodd"
       inkscape:connector-curvature="0"
       id="path207"
       d="m 808.69398,268.69656 c -8.87508,6.2759 -23.91134,22.3769 -24.24209,24.8233 -0.33074,2.4465 14.97107,-6.1128 22.25759,-10.1446 7.2865,-4.0319 16.2962,-9.4612 21.4617,-14.0464 5.1654,-4.5852 12.7772,-13.3592 9.531,-13.4646 -3.2462,-0.1054 -20.1332,6.5563 -29.0082,12.8323 z" />
    <path
       style="fill:#ffffff;fill-rule:evenodd"
       inkscape:connector-curvature="0"
       id="path209"
       d="m 774.29986,279.84546 c -3.97137,3.1908 -5.14575,9.3967 -4.76617,11.781 0.37957,2.3844 4.07415,4.1728 7.04382,2.5249 2.9696,-1.6478 7.9765,-8.8006 10.77392,-12.4122 2.79743,-3.6116 8.18573,-8.9416 6.01044,-9.2572 -2.17523,-0.3156 -15.09064,4.1728 -19.06201,7.3635 z" />
    <path
       style="fill:#f1c232;fill-rule:evenodd"
       inkscape:connector-curvature="0"
       id="path211"
       d="m 765.23386,283.21266 c -1.20007,0.5345 -4.47937,7.5028 -3.93518,8.362 0.54419,0.8591 6.54443,-1.8133 7.20032,-3.207 0.65588,-1.3937 -2.06513,-5.6895 -3.26514,-5.155 z" />
    <path
       style="fill:#f1c232;fill-rule:evenodd"
       inkscape:connector-curvature="0"
       id="path213"
       d="m 765.60536,283.00926 c -0.37146,0.7478 3.25049,1.7054 4.34637,1.1491 1.09589,-0.5564 2.95331,-4.2957 2.22895,-4.4872 -0.72443,-0.1915 -6.2038,2.5902 -6.57532,3.3381 z" />
    <path
       style="fill:#f1c232;fill-rule:evenodd"
       inkscape:connector-curvature="0"
       id="path215"
       d="m 770.04986,283.72786 c 0.33643,0.6398 -1.08838,3.708 -1.70984,3.6818 -0.6214,-0.026 -2.30365,-3.225 -2.01868,-3.8386 0.28498,-0.6137 3.39203,-0.483 3.72852,0.1568 z" />
    <path
       style="fill:#f1c232;fill-rule:evenodd"
       inkscape:connector-curvature="0"
       id="path217"
       d="m 795.67466,272.19516 c -1.9693,1.4375 -4.2063,5.3299 -3.60571,5.6807 0.60058,0.3508 5.23999,-2.1383 7.20929,-3.5758 1.9693,-1.4375 5.20704,-4.6982 4.6065,-5.049 -0.60058,-0.3508 -6.24078,1.5067 -8.21008,2.9441 z" />
    <text
       xml:space="preserve"
       style="font-style:normal;font-variant:normal;font-weight:normal;font-stretch:normal;font-size:20.81310272px;line-height:1.25;font-family:ubuntu;-inkscape-font-specification:ubuntu;text-align:start;letter-spacing:0px;word-spacing:0px;text-anchor:start;fill:#000000;fill-opacity:1;stroke:none;stroke-width:1.30081892"
       x="80.589317"
       y="167.50209"
       id="text1513"><tspan
         sodipodi:role="line"
         x="80.589317"
         y="167.50209"
         id="tspan1515"
         style="stroke-width:1.30081892">Pero... si consigues</tspan><tspan
         sodipodi:role="line"
         x="80.589317"
         y="193.51846"
         style="stroke-width:1.30081892"
         id="tspan1208">herramientas libres</tspan></text>
    <text
       xml:space="preserve"
       style="font-style:normal;font-variant:normal;font-weight:normal;font-stretch:normal;font-size:20.81310272px;line-height:1.25;font-family:ubuntu;-inkscape-font-specification:ubuntu;text-align:start;letter-spacing:0px;word-spacing:0px;text-anchor:start;fill:#000000;fill-opacity:1;stroke:none;stroke-width:1.30081892"
       x="347.50894"
       y="169.04604"
       id="text1513-3"><tspan
         sodipodi:role="line"
         x="347.50894"
         y="169.04604"
         style="stroke-width:1.30081892"
         id="tspan1214">Tu aplicacin se</tspan><tspan
         sodipodi:role="line"
         x="347.50894"
         y="195.06241"
         style="stroke-width:1.30081892"
         id="tspan1220">convierte en independiente</tspan></text>
    <text
       xml:space="preserve"
       style="font-style:normal;font-variant:normal;font-weight:normal;font-stretch:normal;font-size:20.81310272px;line-height:1.25;font-family:ubuntu;-inkscape-font-specification:ubuntu;text-align:start;letter-spacing:0px;word-spacing:0px;text-anchor:start;fill:#000000;fill-opacity:1;stroke:none;stroke-width:1.30081892"
       x="683.87848"
       y="140.54634"
       id="text1513-3-5"><tspan
         sodipodi:role="line"
         x="683.87848"
         y="140.54634"
         id="tspan1515-7-5"
         style="stroke-width:1.30081892">Tu aplicacin puede </tspan><tspan
         sodipodi:role="line"
         x="683.87848"
         y="166.56271"
         style="stroke-width:1.30081892"
         id="tspan1224">evolucioan como la</tspan><tspan
         sodipodi:role="line"
         x="683.87848"
         y="192.5791"
         style="stroke-width:1.30081892"
         id="tspan1226">comunidad decida</tspan></text>
    <g
       id="g1567"
       transform="translate(-522.69042,68.518567)">
      <path
         id="path1565"
         pointer-events="none"
         stroke-miterlimit="10"
         d="m 822.9265,536.68002 h 60 v -21 l 40,35 -40,35 v -21 h -60 v -14 z"
         inkscape:connector-curvature="0"
         style="fill:#dae8fc;stroke:#6c8ebf;stroke-miterlimit:10" />
    </g>
    <path
       id="path289-2"
       style="fill:#008080;fill-rule:evenodd;stroke:#000000;stroke-width:1;stroke-linecap:butt;stroke-linejoin:round"
       d="m 877.07098,372.53666 c -0.7348,-0.4977 -4.357,5.5025 -6.7249,-1.8285 -2.368,-7.331 -0.6009,-6.4619 -8.6055,-8.8922 -8.0047,-2.4304 -12.4232,2.1453 -5.5806,10.6271 1.2836,1.9531 6.7147,2.1689 7.2553,5.3427 0.4951,1.4824 -1.2099,2.6097 -2.6228,4.8898 -1.4129,2.2802 -3.2212,2.9769 -7.0282,7.2994 -3.8069,4.3224 -12.9187,11.5146 -15.8136,18.6352 -2.8949,7.1205 -2.2752,17.8976 -1.5558,24.0881 0.7195,6.1904 4.8783,9.7909 5.8723,13.0547 0.994,3.2638 -29.1462,0.5376 -26.6833,11.1316 2.4629,10.594 25.975,-6.9928 28.7634,1.9242 1.3942,4.4585 -25.8328,7.6823 -24.0196,15.0205 1.8132,7.3382 25.0326,-14.0545 29.3859,-2.094 4.3533,11.9604 16.9497,10.8733 20.3894,9.0336 3.4397,-1.8398 8.3718,-7.0453 10.1976,-8.8373 2.9621,-3.1088 3.4097,-8.289 5.7078,-13.521 2.2982,-5.2319 16.9383,-8.7382 12.7212,-23.3293 -4.2172,-14.5912 -14.5183,-10.8231 -11.9511,-18.4343 2.5672,-7.6111 17.7229,-6.1246 29.0322,-6.2533 1.9571,-0.096 4.7596,-0.4257 6.1198,-1.3176 1.3602,-0.8919 1.7385,-0.6331 2.0414,-4.0337 0.3029,-3.4007 -3.9224,-3.1008 -9.4739,-2.4929 -5.5515,0.6079 -15.216,-1.6928 -15.0279,-7.0494 0.188,-5.3566 6.74,-5.5746 10.9225,-7.3738 4.1826,-1.7992 16.1567,-1.9329 16.2276,-7.0196 0.071,-5.0867 -11.5841,-3.1406 -17.5306,-1.9188 -5.9464,1.2219 -23.4192,1.9436 -24.5169,1.5303 -1.0978,-0.4134 12.1579,-7.1372 16.1563,-9.1962 3.9984,-2.059 5.2936,-2.3358 7.8341,-3.1577 2.5407,-0.8217 6.4784,-1.2389 7.4096,-1.7732 0.9312,-0.5342 0.243,-1.3255 -1.8225,-1.4324 -2.0655,-0.1068 -4.9509,-1.5274 -10.5702,0.7914 -5.6192,2.3188 -18.9044,11.3935 -23.1453,13.1213 -4.2409,1.7277 -4.2863,-0.1627 -2.3,-2.7548 1.9864,-2.5921 8.9939,-10.3066 14.2182,-12.7976 5.2243,-2.4911 14.4778,-1.3225 17.1274,-2.1487 2.6497,-0.8263 0.2384,-2.41 -1.2294,-2.8088 -1.4678,-0.3987 -3.6464,-0.4571 -7.5773,0.4163 -3.9309,0.8735 -12.0744,2.5645 -16.0082,4.8243 -3.9338,2.2598 -6.3286,7.2789 -7.5944,8.7346"
       inkscape:connector-curvature="0"
       sodipodi:nodetypes="czzccscsczzszzzcccsccsscccccsccccccccsccc" />
  </g>
</svg>
