<?xml version="1.0" encoding="UTF-8" standalone="no"?>
<!-- Created with Inkscape (http://www.inkscape.org/) -->

<svg
   xmlns:dc="http://purl.org/dc/elements/1.1/"
   xmlns:cc="http://creativecommons.org/ns#"
   xmlns:rdf="http://www.w3.org/1999/02/22-rdf-syntax-ns#"
   xmlns:svg="http://www.w3.org/2000/svg"
   xmlns="http://www.w3.org/2000/svg"
   xmlns:sodipodi="http://sodipodi.sourceforge.net/DTD/sodipodi-0.dtd"
   xmlns:inkscape="http://www.inkscape.org/namespaces/inkscape"
   width="108.44799mm"
   height="88.473213mm"
   viewBox="0 0 384.26451 313.48777"
   id="svg2"
   version="1.1"
   inkscape:version="0.91 r13725"
   sodipodi:docname="Trollface-icon.svg">
  <defs
     id="defs4" />
  <sodipodi:namedview
     id="base"
     pagecolor="#ffffff"
     bordercolor="#666666"
     borderopacity="1.0"
     inkscape:pageopacity="0.0"
     inkscape:pageshadow="2"
     inkscape:zoom="0.7"
     inkscape:cx="125.38019"
     inkscape:cy="133.04756"
     inkscape:document-units="px"
     inkscape:current-layer="layer1"
     showgrid="false"
     fit-margin-top="0"
     fit-margin-left="0"
     fit-margin-right="0"
     fit-margin-bottom="0"
     inkscape:window-width="1215"
     inkscape:window-height="1000"
     inkscape:window-x="88"
     inkscape:window-y="24"
     inkscape:window-maximized="1" />
  <metadata
     id="metadata7">
    <rdf:RDF>
      <cc:Work
         rdf:about="">
        <dc:format>image/svg+xml</dc:format>
        <dc:type
           rdf:resource="http://purl.org/dc/dcmitype/StillImage" />
        <dc:title></dc:title>
      </cc:Work>
    </rdf:RDF>
  </metadata>
  <g
     inkscape:label="Layer 1"
     inkscape:groupmode="layer"
     id="layer1"
     transform="translate(-150.60109,-171.09516)">
    <g
       id="g4149"
       transform="translate(0,-60)">
      <path
         sodipodi:nodetypes="ssssssssssssssssssssssssssssssss"
         inkscape:connector-curvature="0"
         id="path4233-3"
         d="m 416.87886,542.94231 c -9.17158,-0.7629 -16.77009,-2.69269 -35.5,-9.0159 -6.6,-2.22816 -18.08102,-5.3481 -25.51339,-6.93319 -15.58512,-3.32381 -21.43688,-5.52298 -47.48661,-17.84612 -56.04176,-26.51122 -78.33346,-39.86182 -96.84149,-57.99882 -8.62118,-8.44835 -12.46962,-13.68409 -18.25382,-24.83402 -6.06486,-11.69096 -9.90957,-16.87027 -21.431,-28.87032 -11.22976,-11.69626 -15.44404,-17.56237 -18.15191,-25.26673 -4.00351,-11.3907 -3.30717,-26.63302 1.68264,-36.83183 3.22207,-6.58569 13.84248,-18.12076 22.12649,-24.03211 9.27204,-6.61639 12.78334,-11.25322 20.34715,-26.86933 3.72957,-7.7 8.88829,-16.79908 11.46383,-20.22017 6.54487,-8.69357 24.52165,-24.03843 26.63286,-22.73363 0.4537,0.2804 1.28435,-0.34867 1.8459,-1.39794 1.38921,-2.59576 7.36855,-4.83101 18.36527,-6.86547 7.47102,-1.38218 14.98389,-1.68926 39.71408,-1.62324 36.24715,0.0968 57.64597,1.33455 92,5.32162 14.025,1.62772 31.575,3.63467 39,4.45988 7.425,0.82521 17.47882,2.66142 22.34182,4.08047 21.27297,6.20754 42.00764,19.08812 50.44978,31.3399 3.56015,5.16672 3.69646,5.68322 3.75351,14.22359 0.055,8.22878 0.27702,9.16782 3.10668,13.13858 1.67611,2.35203 7.0488,7.51483 11.93931,11.47289 11.25915,9.11243 14.52422,14.42006 15.18271,24.68067 0.56437,8.79403 -1.47114,17.58349 -6.16546,26.62285 -16.84551,32.43766 -16.91609,32.69882 -17.02642,63 -0.074,20.32616 0.15627,23.61107 2.38355,34 1.93845,9.04175 2.47285,14.49265 2.5,25.5 0.0329,13.34447 -0.0966,14.26702 -2.76586,19.70264 -3.23976,6.5974 -14.22512,18.76772 -22.67138,25.11689 -4.05269,3.04645 -7.85709,4.89672 -12.43043,6.0455 -12.64711,3.17685 -39.8513,4.35904 -60.59781,2.63334 z"
         style="fill:#ffffff;stroke:#000000" />
      <path
         inkscape:connector-curvature="0"
         id="path4233"
         d="m 417.99999,543.78912 c -9.17158,-0.7629 -16.77009,-2.69269 -35.5,-9.0159 -6.6,-2.22816 -18.08102,-5.3481 -25.51339,-6.93319 -15.58512,-3.32381 -21.43688,-5.52298 -47.48661,-17.84612 -56.04176,-26.51122 -78.33346,-39.86182 -96.84149,-57.99882 -8.62118,-8.44835 -12.46962,-13.68409 -18.25382,-24.83402 -6.06486,-11.69096 -9.90957,-16.87027 -21.431,-28.87032 -11.22976,-11.69626 -15.44404,-17.56237 -18.15191,-25.26673 -4.00351,-11.3907 -3.30717,-26.63302 1.68264,-36.83183 3.22207,-6.58569 13.84248,-18.12076 22.12649,-24.03211 9.27204,-6.61639 12.78334,-11.25322 20.34715,-26.86933 3.72957,-7.7 8.88829,-16.79908 11.46383,-20.22017 6.54487,-8.69357 24.52165,-24.03843 26.63286,-22.73363 0.4537,0.2804 1.28435,-0.34867 1.8459,-1.39794 1.38921,-2.59576 7.36855,-4.83101 18.36527,-6.86547 7.47102,-1.38218 14.98389,-1.68926 39.71408,-1.62324 36.24715,0.0968 57.64597,1.33455 92,5.32162 14.025,1.62772 31.575,3.63467 39,4.45988 7.425,0.82521 17.47882,2.66142 22.34182,4.08047 21.27297,6.20754 42.00764,19.08812 50.44978,31.3399 3.56015,5.16672 3.69646,5.68322 3.75351,14.22359 0.055,8.22878 0.27702,9.16782 3.10668,13.13858 1.67611,2.35203 7.0488,7.51483 11.93931,11.47289 11.25915,9.11243 14.52422,14.42006 15.18271,24.68067 0.56437,8.79403 -1.47114,17.58349 -6.16546,26.62285 -16.84551,32.43766 -16.91609,32.69882 -17.02642,63 -0.074,20.32616 0.15627,23.61107 2.38355,34 1.93845,9.04175 2.47285,14.49265 2.5,25.5 0.0329,13.34447 -0.0966,14.26702 -2.76586,19.70264 -3.23976,6.5974 -14.22512,18.76772 -22.67138,25.11689 -4.05269,3.04645 -7.85709,4.89672 -12.43043,6.0455 -12.64711,3.17685 -39.8513,4.35904 -60.59781,2.63334 z m 56,-8.0032 c 3.025,-0.62838 7.525,-2.31744 10,-3.75345 7.00161,-4.06239 20.18547,-17.8484 23.43454,-24.50487 2.61204,-5.35137 2.80879,-6.60174 2.7538,-17.5 -0.0397,-7.86945 -0.75055,-15.03194 -2.15727,-21.73685 -3.45943,-16.48897 -4.57154,-33.55811 -3.21691,-49.37462 1.79369,-20.94293 5.37777,-32.59905 14.5944,-47.46382 7.23374,-11.66672 10.43997,-24.25369 8.52729,-33.4763 -1.06519,-5.13615 -1.81033,-6.26477 -7.7149,-11.68526 -20.46388,-18.78618 -22.22095,-21.39635 -22.22095,-33.00982 0,-9.08646 -1.0124,-11.32787 -8.15345,-18.05136 -9.35273,-8.80585 -20.72663,-15.43598 -35.84655,-20.89585 -9.66309,-3.48938 -24.78405,-4.71302 -26.88959,-2.176 -1.17241,1.41266 -4.09722,1.63303 -21.67384,1.63303 -12.467,0 -20.55736,-0.38642 -20.93657,-1 -0.33992,-0.55 -4.61492,-1 -9.5,-1 -4.88508,0 -9.16008,-0.45 -9.5,-1 -0.33992,-0.55 -3.71492,-1 -7.5,-1 -3.78508,0 -7.16008,-0.45 -7.5,-1 -0.83562,-1.35207 -24.66752,-1.2802 -36,0.10855 -12.33478,1.51159 -24.13131,5.06479 -36,10.84346 -10.56904,5.14589 -32.49757,18.76247 -38.66612,24.00982 -2.01636,1.71525 -3.9101,2.72386 -4.2083,2.24137 -0.90197,-1.45942 2.28039,-5.11454 6.1905,-7.11013 2.02616,-1.03408 8.18392,-4.89789 13.68392,-8.58624 19.29049,-12.93636 39.1725,-21.19605 56.57157,-23.50181 9.58978,-1.27086 35.38775,-0.74371 47.42843,0.96914 4.4,0.62593 11.68962,1.2253 16.19916,1.33194 4.98132,0.1178 8.69007,0.68448 9.45,1.4439 1.98185,1.98052 39.1797,1.7636 40.84102,-0.23817 1.61564,-1.94672 0.78876,-2.1939 -9.99018,-2.98639 -4.675,-0.34371 -17.234,-1.73043 -27.90889,-3.08159 -25.28606,-3.20055 -63.65827,-5.42733 -93.09111,-5.40218 -36.02948,0.0308 -44.12401,1.45339 -56.90202,10.00046 -15.66363,10.47723 -25.1744,21.32174 -31.53553,35.95787 -4.47226,10.29011 -9.34602,18.54297 -14.02192,23.7437 l -4.32411,4.80945 6.89179,-0.27658 c 3.79048,-0.15211 10.04679,-0.40406 13.90289,-0.55989 4.49626,-0.18169 6.88875,0.0873 6.66998,0.75 -0.19764,0.59865 -5.77594,1.27755 -13.26111,1.61391 -11.59255,0.52094 -13.58779,0.89041 -19.41997,3.59612 -7.47383,3.46731 -15.68141,11.625 -20.5,20.3754 -2.86483,5.20242 -3,5.98953 -3,17.46892 0,11.51486 0.13539,12.29605 3.2155,18.55262 4.44389,9.02684 15.63791,19.92635 20.46476,19.92635 3.74096,0 8.2048,2.56793 7.2236,4.15555 -0.42132,0.68171 -0.98923,0.65908 -1.71673,-0.0684 -0.59792,-0.59794 -2.38537,-1.08715 -3.97212,-1.08715 l -2.88498,0 4.06959,4.6233 c 5.21618,5.9259 9.99937,13.18233 14.09078,21.3767 9.05578,18.13715 22.88207,31.44603 50.23007,48.35033 17.82869,11.02025 80.08728,41.40826 94.29572,46.02513 2.75891,0.89648 9.56593,2.4969 15.12672,3.5565 5.56079,1.05959 17.82838,4.46404 27.26132,7.56544 25.32212,8.3255 26.50379,8.49477 56.09577,8.0358 14.025,-0.21753 27.975,-0.90964 31,-1.53803 z m -45,-27.05577 c -33.33578,-1.40888 -49.26018,-3.25037 -78.5,-9.07773 -18.49234,-3.68543 -43.91564,-10.60374 -55,-14.96686 -17.59225,-6.92482 -59.5,-28.72988 -59.5,-30.95851 0,-1.66301 1.69124,-1.02114 9.54711,3.62338 12.24117,7.23718 42.02486,21.83454 52.95289,25.95288 13.68234,5.15633 48.1389,13.61237 70.5,17.30151 22.79832,3.76129 52.76662,6.19328 76.26515,6.18909 l 17.76515,-0.003 5.40355,-3.04957 c 2.97195,-1.67727 5.94523,-3.70227 6.60729,-4.5 0.66206,-0.79774 1.71116,-1.45043 2.33133,-1.45043 0.62017,0 3.71507,-1.83558 6.87755,-4.07908 l 5.74998,-4.07907 0,-5.42093 c 0,-2.9815 0.45,-5.42092 1,-5.42092 1.1904,0 1.32645,10.93732 0.15893,12.77708 -0.76142,1.19984 -5.58611,4.42594 -15.28856,10.22292 -2.30135,1.375 -5.60043,3.43908 -7.33129,4.58683 -3.96735,2.63081 -16.00649,3.34714 -39.53908,2.35257 z m -34,-12.95001 c -2.475,-0.46263 -11.7,-0.87765 -20.5,-0.92227 -16.9612,-0.086 -22.8451,-1.04583 -40.5,-6.60664 -15.24847,-4.80285 -38.12221,-14.35185 -57.5,-24.00428 -10.45,-5.20533 -19.5625,-9.46243 -20.25,-9.46022 -0.6875,0.002 -1.25,-0.44598 -1.25,-0.99598 0,-1.82569 4.63608,-1.03554 9.60106,1.63635 22.61135,12.16822 43.11196,21.24104 64.39894,28.50062 21.47069,7.32224 25.58471,8.08424 49,9.07587 49.32846,2.08903 57.40833,2.07913 65.94982,-0.0808 11.72352,-2.96463 18.18821,-6.40846 24.03144,-12.80188 5.78814,-6.33315 7.75845,-6.44803 3.42849,-0.1999 -3.68326,5.31495 -10.89287,10.09241 -20.40975,13.52455 -7.19078,2.59326 -8.40704,2.71448 -29.5,2.94026 -12.1,0.12952 -24.025,-0.14302 -26.5,-0.60565 z m -31,-11.98939 c 0,-0.64583 11.33333,-1 32,-1 20.66667,0 32,0.35417 32,1 0,0.64583 -11.33333,1 -32,1 -20.66667,0 -32,-0.35417 -32,-1 z m 6.95379,-9.03312 c -50.8117,-3.14882 -83.29262,-16.25456 -112.54895,-45.41243 -11.89286,-11.85284 -19.90138,-22.10665 -28.24762,-36.1672 -3.29286,-5.54734 -5.09035,-7.50428 -8.16726,-8.89178 -3.85481,-1.73827 -5.74472,-4.46522 -4.49549,-6.48652 0.34296,-0.55492 1.24724,-1.00895 2.00952,-1.00895 1.04921,0 0.77246,-1.39707 -1.13903,-5.75 -3.33626,-7.59749 -3.69347,-7.86433 -7.19229,-5.37296 -5.08688,3.62218 -12.87993,2.03797 -12.0183,-2.44314 0.26967,-1.40242 1.46754,-2.08594 4.35874,-2.48713 8.47187,-1.17557 14.74872,-7.93532 16.9554,-18.25983 0.50376,-2.35695 1.04147,-2.76229 3.31637,-2.5 2.48509,0.28654 2.71512,0.6782 2.71512,4.62302 l 0,4.30996 19.5,8.78771 c 45.98511,20.72326 76.41556,30.86081 112.03703,37.32383 10.78559,1.9569 15.7604,2.25655 36.96297,2.22639 27.12821,-0.0386 34.23382,-1.05351 52.5,-7.4988 12.04595,-4.25045 12.70321,-4.64513 17.92667,-10.76457 4.69794,-5.50378 5.97352,-8.82112 7.95742,-20.69448 0.99628,-5.96263 1.48905,-7.04604 3.3251,-7.31068 2.88272,-0.41551 3.89856,1.75575 5.20033,11.11515 0.59292,4.26295 2.04936,9.65088 3.23653,11.97318 4.44406,8.6933 6.16509,36.44642 3.39829,54.80057 -3.18588,21.13423 -10.15114,32.23874 -22.5222,35.90647 -26.8607,7.96358 -64.2653,11.89106 -95.06835,9.98219 z m 21.87316,-9.46688 c 0.17982,-1.65 0.74232,-3.4275 1.25,-3.95 0.50768,-0.5225 0.92305,-3.30844 0.92305,-6.19098 0,-2.88254 0.45,-5.5191 1,-5.85902 1.18032,-0.72948 1.34629,-5.16795 0.2193,-5.86446 -0.42938,-0.26538 -6.00839,-0.96899 -12.3978,-1.56358 -6.3894,-0.59459 -12.9841,-1.35448 -14.65487,-1.68863 l -3.03778,-0.60756 -0.3386,10.86212 c -0.18624,5.97416 -0.69068,11.59047 -1.12099,12.48069 -0.54293,1.12321 -0.22948,1.81671 1.02418,2.26598 0.99361,0.35607 2.93156,1.31663 4.30656,2.13457 1.85699,1.10466 5.07204,1.42206 12.5,1.23402 l 10,-0.25315 0.32695,-3 z m 21.99448,0.75 c 0.72678,-0.6875 1.86494,-1.25 2.52924,-1.25 1.3136,0 7.64933,-12.64777 7.64933,-15.27007 0,-0.88654 0.45,-1.89001 1,-2.22993 0.55,-0.33992 1,-1.20837 1,-1.92989 0,-0.91499 -2.41995,-1.52295 -7.99921,-2.00964 -7.20821,-0.62878 -8.29595,-0.48649 -11,1.43897 -2.1422,1.52538 -3.00079,2.95875 -3.00079,5.00964 0,1.58009 -0.45,3.151 -1,3.49092 -0.55,0.33992 -1,3.02898 -1,5.97568 0,3.22014 -0.4696,5.51419 -1.17705,5.75 -0.64738,0.2158 -0.91535,0.8158 -0.59549,1.33334 0.86649,1.40201 12.05401,1.1477 13.59397,-0.30902 z m -58.02656,-0.50283 c 0.73229,-0.88236 0.63658,-1.80423 -0.32366,-3.11744 -1.16337,-1.59099 -1.12992,-2.22097 0.22795,-4.29335 1.28051,-1.95429 1.47309,-4.10502 0.98583,-11.00951 -0.33305,-4.71942 -0.78079,-8.75601 -0.99498,-8.97019 -0.21418,-0.21418 -4.21394,-1.49819 -8.88834,-2.85335 -4.67441,-1.35516 -12.60008,-4.04779 -17.6126,-5.98363 -5.01252,-1.93583 -9.69314,-3.51852 -10.40137,-3.51707 -0.88357,0.002 -1.3402,1.83264 -1.45498,5.83369 -0.12727,4.43625 -0.78508,6.74146 -2.75,9.63692 -1.4205,2.09322 -2.58272,4.4404 -2.58272,5.21597 0,0.77556 -0.66632,2.69863 -1.48071,4.27349 -1.33663,2.58475 -1.3123,3.05963 0.25,4.8803 2.00138,2.33236 13.96911,6.20308 26.23071,8.48379 4.675,0.86957 9.4,1.77458 10.5,2.01112 4.02046,0.86457 7.27971,0.63245 8.29487,-0.59074 z m 81.98663,-2.40771 c 2.67833,-0.46166 3.1694,-0.91881 2.67163,-2.48713 -0.3608,-1.13677 0.28959,-3.43888 1.59252,-5.63692 2.55308,-4.30702 5.18842,-11.31467 4.51015,-11.99295 -0.25606,-0.25605 -3.18586,0.34931 -6.51068,1.34525 -4.52268,1.35475 -6.04512,2.27024 -6.04512,3.63511 0,1.00338 -0.39531,2.60571 -0.87847,3.56075 -3.94788,7.80363 -5.77573,12.2489 -5.25198,12.77264 0.34049,0.34049 1.97163,0.33778 3.62476,-0.006 1.65313,-0.34381 4.48236,-0.87963 6.28719,-1.19073 z m 15.7185,-3.33946 c 0.33992,-0.55 2.05398,-1.03289 3.80902,-1.07309 3.61985,-0.0829 8.81419,-2.79053 9.53465,-4.97007 0.40428,-1.22302 0.22499,-1.24508 -1.11713,-0.13745 -1.211,0.99943 -2.09921,1.05153 -3.66262,0.21482 -2.15345,-1.15249 -2.79065,-4.46703 -1.06392,-5.53421 0.55,-0.33992 1,-1.62648 1,-2.85902 0,-1.23254 0.54,-2.78098 1.2,-3.44098 0.93333,-0.93333 0.65556,-1.1966 -1.25,-1.18469 -3.23706,0.0202 -4.52348,0.96364 -5.4335,3.98469 -0.41418,1.375 -1.35767,3.19147 -2.09664,4.0366 -1.68008,1.92143 -4.41986,8.38758 -4.41986,10.43128 0,1.70621 2.53608,2.09178 3.5,0.53212 z M 303.90493,445.57886 c 0.81615,-3.81663 2.21144,-6.77169 4.2051,-8.90591 2.59975,-2.78304 2.94547,-3.82355 2.68681,-8.08651 l -0.29685,-4.89249 -8.70746,-2.92114 c -4.78911,-1.60662 -13.21843,-5.18484 -18.73183,-7.9516 -5.51341,-2.76675 -10.48255,-5.03046 -11.04254,-5.03046 -0.58736,0 -1.01817,2.77413 -1.01817,6.55637 0,6.11142 -0.22057,6.76112 -3.25,9.57327 l -3.25,3.01689 5.5,4.93207 c 9.46373,8.48649 30.67957,21.78797 32.09176,20.12024 0.32546,-0.38436 1.1414,-3.26919 1.81318,-6.41073 z m 172.94007,0.96189 c 1.62095,-3.4375 3.26336,-7.75198 3.64981,-9.58774 l 0.70263,-3.33774 -2.43625,1.59629 c -2.64465,1.73285 -8.7612,12.70737 -8.7612,15.71965 0,1.17663 0.71574,1.85954 1.94892,1.85954 1.40964,0 2.76442,-1.72941 4.89609,-6.25 z m -215.84501,-28.75 c 2.3282,-2.3282 2.46245,-4.23645 0.75,-10.66057 l -1.25,-4.68928 -11.38906,-5.35268 c -6.26398,-2.94398 -11.54939,-5.19235 -11.74535,-4.99639 -0.96408,0.96408 19.03525,27.69892 20.72051,27.69892 0.50265,0 1.8139,-0.9 2.9139,-2 z m 139.82284,-1.87716 c 0.17757,-1.85743 -0.15993,-3.85993 -0.75,-4.45 -0.59006,-0.59006 -1.07284,-2.33284 -1.07284,-3.87284 0,-2.7412 -0.12074,-2.80015 -5.75,-2.80711 -3.1625,-0.004 -8.7875,-0.29398 -12.5,-0.6446 l -6.75,-0.6375 0,7.58424 0,7.58424 3.75,0.40888 c 2.0625,0.22488 8.025,0.36454 13.25,0.31036 l 9.5,-0.0985 0.32284,-3.37716 z m -36.03078,-4.76774 c -0.21365,-5.59258 -0.69474,-7.83916 -1.79206,-8.36853 -0.825,-0.398 -8.80214,-2.12935 -17.72699,-3.84743 -8.92484,-1.71809 -16.77312,-3.23975 -17.44061,-3.38147 -0.66749,-0.14172 -1.4049,0.64233 -1.63869,1.74233 -0.23379,1.1 -0.7748,2.225 -1.20225,2.5 -0.42744,0.275 -0.93789,2.93188 -1.13432,5.90418 l -0.35714,5.40418 6.63945,2.24282 c 6.61732,2.23535 16.35384,3.7886 33.15261,5.28878 1.60322,0.14318 1.76129,-0.64557 1.5,-7.48486 z m 71.17824,6.03366 c 3.43172,-0.54876 3.62668,-0.77461 3.19684,-3.70332 -0.25177,-1.7154 -1.06737,-3.72853 -1.81245,-4.47361 -0.74508,-0.74508 -1.35469,-3.0623 -1.35469,-5.14939 l 0,-3.7947 -5.75,1.32621 c -3.1625,0.72942 -9.35,1.68168 -13.75,2.11613 -6.70185,0.66174 -7.98648,1.07389 -7.91667,2.53992 0.0458,0.9625 0.15834,4.29358 0.25,7.4024 l 0.16667,5.65241 11.65785,-0.66583 c 6.41182,-0.3662 13.30242,-0.9288 15.31245,-1.25022 z m 18.17425,-3.41222 c 5.88585,-1.63486 8.40244,-8.7179 5.44508,-15.32541 -0.7757,-1.73312 -1.5632,-3.64666 -1.75,-4.2523 -0.22096,-0.71642 -2.69807,-0.23138 -7.08963,1.38822 -6.16264,2.27277 -6.75,2.73631 -6.75,5.327 0,1.56069 0.89832,4.31099 1.99626,6.11178 1.09795,1.80079 1.99795,4.28667 2,5.52417 0.004,2.51465 0.88101,2.68958 6.14829,1.22654 z m 18.90511,-6.50222 c 1.62269,-0.83912 2.93743,-2.07662 2.92166,-2.75 -0.0158,-0.67338 -1.28674,-5.04932 -2.82437,-9.72432 -3.19052,-9.70045 -5.79383,-11.61646 -5.43486,-4 0.11664,2.475 0.34164,7.53736 0.5,11.24969 0.15835,3.71234 0.64776,6.74984 1.08757,6.75 0.43981,1.7e-4 2.12731,-0.68625 3.75,-1.52537 z m -158.24966,-0.67432 c 0.66,-0.66 1.2,-2.91611 1.2,-5.01357 0,-2.09746 0.55123,-4.69623 1.22496,-5.77504 0.79049,-1.26577 0.87916,-2.28083 0.25,-2.86187 -0.53623,-0.49522 -6.14996,-2.59924 -12.47496,-4.67561 -6.325,-2.07637 -16.58249,-5.73243 -22.79443,-8.12457 -6.21194,-2.39214 -11.72444,-4.34934 -12.25,-4.34934 -1.53053,0 -1.10208,7.88899 0.62626,11.53121 0.87001,1.8334 3.99307,5.61391 6.94014,8.40113 4.42228,4.1824 5.99474,5.06766 9.00156,5.06766 4.11976,0 17.41191,3.20502 22.56308,5.44043 4.21308,1.82832 4.24277,1.83019 5.71339,0.35957 z m -52.52103,-16.55 c -0.41752,-1.5125 -0.72467,-6.20552 -0.68256,-10.42894 l 0.0766,-7.67894 -18.02107,-8.10722 c -9.91159,-4.45897 -18.5078,-7.92044 -19.1027,-7.69216 -0.5949,0.22829 -1.68419,1.54094 -2.42064,2.917 -1.22545,2.28977 -0.96966,3.19875 3.01621,10.71879 l 4.35521,8.21684 8,3.23972 c 4.4,1.78185 11.6,5.09039 16,7.35233 4.4,2.26193 8.34607,4.1351 8.76905,4.16259 0.42298,0.0275 0.42744,-1.18751 0.01,-2.70001 z m 219.55428,-3.5 c -0.78147,-5.84422 -3.45933,-12.75 -4.94408,-12.75 -1.71693,0 -1.58817,5.71896 0.19403,8.61803 1.05424,1.71492 1.9168,3.59813 1.9168,4.1849 0,0.58678 0.43886,2.22117 0.97525,3.63197 1.75382,4.6129 2.71315,2.7103 1.858,-3.6849 z m -287.33325,4.25 c -0.33992,-0.55 -1.47918,-1 -2.53168,-1 -1.05251,0 -4.39509,-1.17491 -7.42797,-2.61091 -9.91724,-4.69559 -11.89774,-10.38647 -11.98223,-34.43045 -0.0555,-15.78361 0.0473,-16.67689 2.24274,-19.5 1.26548,-1.62725 4.07398,-5.26803 6.24111,-8.09063 5.1662,-6.72875 10.3415,-8.57186 25.70973,-9.15617 11.44148,-0.43502 16.2483,0.0844 16.2483,1.75583 0,0.51175 -6.40503,1.0979 -14.25,1.30407 -7.8375,0.20598 -16.02727,0.87695 -18.19949,1.49106 -3.92742,1.11032 -10.43446,7.32149 -10.51296,10.03495 -0.0206,0.71376 -1.22687,2.39997 -2.68048,3.74713 -2.51063,2.32677 -2.66789,3.05531 -3.14142,14.55289 -0.56186,13.64237 0.85731,23.61379 4.21194,29.59423 2.1997,3.9215 10.16651,9.14003 14.12241,9.25067 2.07756,0.0581 4.45,1.79469 4.45,3.25733 0,1.13447 -1.76239,0.99348 -2.5,-0.2 z m 193.79533,-1.08635 c -3.26948,-2.09416 -4.9204,-5.09325 -3.80086,-6.9047 0.94133,-1.52311 5.09407,-1.20966 6.50553,0.49105 1.87226,2.25594 6.26521,1.80925 10.50542,-1.06824 4.8708,-3.30541 7.06058,-6.05457 8.41382,-10.56313 0.59948,-1.99726 1.76289,-4.18986 2.58536,-4.87245 0.82247,-0.68259 1.4954,-2.01622 1.4954,-2.96364 0,-1.96861 -3.02019,-5.03254 -4.96071,-5.03254 -2.43931,0 -8.09877,-4.19364 -10.57268,-7.83433 -2.09054,-3.0765 -2.46661,-4.7956 -2.46661,-11.27536 0,-8.42582 -0.13454,-8.65425 -7.19654,-12.21839 -7.40624,-3.73787 -5.85139,-9.82067 1.60577,-6.28202 4.62375,2.19412 5.12823,2.08641 7.68135,-1.6399 3.12035,-4.55421 8.10169,-9.74883 9.35559,-9.75616 0.57961,-0.003 2.17883,-0.58338 3.55383,-1.28888 1.375,-0.70549 5.96728,-2.13779 10.20508,-3.1829 6.94189,-1.71197 8.72478,-1.78107 18,-0.69755 9.20913,1.0758 10.85161,1.58524 15.57321,4.83032 2.90305,1.99523 5.54487,4.05904 5.87071,4.58626 0.86842,1.40513 -2.87707,6.03365 -6.23893,7.70982 -1.60054,0.79799 -7.41007,1.8149 -12.91007,2.25978 -17.69844,1.43158 -20.94423,1.87158 -24,3.2534 -1.65,0.74613 -5.5875,2.16514 -8.75,3.15334 -5.01503,1.56708 -5.75141,2.12178 -5.76101,4.33966 -0.006,1.3986 -0.2786,4.1606 -0.60566,6.13777 -0.50617,3.0599 -0.12507,4.12969 2.56099,7.18894 1.73561,1.97675 4.64198,4.08462 6.45861,4.68417 1.81664,0.59954 4.38164,2.2463 5.70002,3.65947 1.31838,1.41317 4.10184,3.25589 6.18547,4.09493 2.21015,0.88999 4.40487,2.71763 5.26814,4.38701 1.47869,2.85947 8.25388,6.89062 11.58114,6.89062 2.07463,0 10.8623,5.72036 10.8623,7.07085 0,0.51103 -0.15586,0.92915 -0.34636,0.92915 -0.94156,0 -6.6877,-3.24609 -7.19278,-4.06332 -0.31839,-0.51518 -1.70324,-0.93668 -3.07743,-0.93668 -1.3742,0 -4.51361,-1.125 -6.97647,-2.5 -2.46286,-1.375 -4.65707,-2.5 -4.87602,-2.5 -0.21895,0 -0.54049,1.2375 -0.71452,2.75 -0.2511,2.18229 -0.83252,2.75 -2.81642,2.75 -2.22627,0 -2.53367,-0.46533 -2.8075,-4.25 -0.16912,-2.3375 -0.56951,-4.25 -0.88976,-4.25 -1.07103,0 -3.33766,3.4457 -6.38561,9.70731 -3.16988,6.51209 -7.99853,11.17528 -14.29681,13.80687 -4.83665,2.02088 -8.51195,1.8418 -12.32499,-0.60053 z m 57.45467,-72.51332 c 2.8875,-0.29933 5.25,-0.95149 5.25,-1.44923 0,-2.31578 -5.39885,-4.1973 -13.49266,-4.70226 -7.86102,-0.49043 -8.50838,-0.38709 -8.52099,1.3602 -0.008,1.04003 -0.26368,2.82193 -0.56926,3.95978 -0.52553,1.95687 -0.21365,2.05007 5.76366,1.72229 3.47559,-0.1906 8.68175,-0.59145 11.56925,-0.89078 z m -115.75958,61.74394 c -2.78334,-2.78334 -2.99042,-3.50438 -2.99042,-10.41236 0,-5.80931 0.38024,-7.75989 1.75,-8.97734 7.16242,-6.36596 25.58836,-6.29832 21.58923,0.0793 -0.70744,1.12817 -2.94901,1.83553 -6.94202,2.19064 -8.0368,0.71469 -10.39721,2.1742 -10.39721,6.42889 0,4.72447 0.88915,6.55396 3.70572,7.62482 3.48787,1.32608 2.81881,5.30396 -0.9653,5.73913 -1.99531,0.22945 -3.58777,-0.51085 -5.75,-2.67308 z m 164.00958,1.52236 c 0,-0.87639 2.80638,-2.80017 6.75,-4.62716 13.00315,-6.02405 13.55492,-6.39704 14.85174,-10.03947 0.68536,-1.925 1.28034,-5.13606 1.32218,-7.13569 0.0418,-1.99963 0.74831,-4.92463 1.56992,-6.5 2.03554,-3.90297 1.88649,-8.60946 -0.36352,-11.47945 -1.02833,-1.31167 -2.1857,-3.83196 -2.57194,-5.60063 -0.54686,-2.50418 -1.68293,-3.70555 -5.13398,-5.42909 -4.58772,-2.29121 -6.35215,-3.71624 -10.16779,-8.21193 -2.11836,-2.49591 -2.7453,-2.64321 -11.25,-2.64321 -5.33774,0 -9.00661,0.40735 -9.00661,1 0,1.50801 -2.76275,1.20156 -5.5333,-0.61378 -1.46208,-0.95798 -3.70069,-1.43211 -5.50884,-1.16673 -3.90495,0.57313 -4.82925,-0.86534 -1.52378,-2.37141 2.06032,-0.93874 3.27223,-0.83333 6.34388,0.55179 2.97459,1.34136 4.39864,1.48348 6.57463,0.65618 3.51316,-1.33571 12.04111,-1.35218 16.79247,-0.0324 2.24231,0.62282 4.67141,2.35805 6.31201,4.509 1.46682,1.9231 4.90608,4.6312 7.64279,6.01799 3.19918,1.62115 5.34897,3.4905 6.02083,5.23543 0.57474,1.49268 1.9077,4.37812 2.96215,6.41209 2.85146,5.50034 2.51511,10.32189 -1.78149,25.53749 -1.48474,5.25787 -5.82895,10.26435 -8.90659,10.26435 -0.79849,0 -4.25146,1.45927 -7.67328,3.24282 -3.42181,1.78355 -6.55898,3.39605 -6.97148,3.58333 -0.4125,0.18728 -0.75,-0.3345 -0.75,-1.15952 z m -302.58607,-1.39555 c -4.0715,-4.0715 -5.9124,-10.38889 -5.91318,-20.29211 -6.9e-4,-8.74343 0.26768,-10.06629 3.286,-16.19736 6.45567,-13.11334 15.76168,-18.3347 31.34957,-17.58944 8.51856,0.40728 9.39379,0.67539 19.65807,6.0218 13.20257,6.87691 20.4001,9.04377 30.17023,9.08295 6.46471,0.0259 8.3879,-0.40433 13.53538,-3.02804 3.3,-1.68204 8.13261,-4.93958 10.73913,-7.23899 5.01337,-4.42265 8.05804,-4.92351 8.56223,-1.40852 0.41313,2.88018 -8.12839,10.42971 -16.41651,14.50993 -13.21036,6.50344 -27.84834,4.87832 -48.25721,-5.35757 -12.20013,-6.11886 -12.6213,-6.247 -20.54157,-6.24978 -9.78155,-0.003 -15.00627,2.32011 -19.68241,8.75321 -4.78759,6.58643 -6.17315,10.6095 -6.27602,18.22284 -0.0772,5.71461 0.43153,8.14564 2.7705,13.23896 2.34889,5.11491 2.63914,6.5112 1.61102,7.75 -1.61369,1.94438 -2.47375,1.9036 -4.59523,-0.21788 z m 154.25274,-0.93775 c -0.36667,-0.36666 -0.66667,-1.93129 -0.66667,-3.47694 0,-5.46614 9.36217,-8.47654 17.25812,-5.54935 2.33303,0.8649 5.32092,1.71214 6.63975,1.88276 1.31883,0.17061 2.89383,1.12406 3.5,2.11877 2.33847,3.83738 -6.52638,6.42153 -10.839,3.15963 -1.06762,-0.80751 -3.8498,-1.4682 -6.18261,-1.4682 -3.36323,0 -4.37292,0.41413 -4.87626,2 -0.61145,1.92651 -3.45557,2.71109 -4.83333,1.33333 z m 151.33333,-11.33333 c 0,-0.55 0.58131,-1 1.29179,-1 0.71049,0 3.18549,-1.92953 5.5,-4.28785 4.5053,-4.59056 5.15834,-7.37045 2.75139,-11.71215 -0.91496,-1.65042 -1.19479,-4.1194 -0.82345,-7.26534 0.44116,-3.73752 0.17364,-5.195 -1.24034,-6.75743 -2.21052,-2.4426 -7.13208,-4.97723 -9.66441,-4.97723 -1.03276,0 -2.14422,-0.69441 -2.4699,-1.54313 -0.81494,-2.12369 0.10496,-2.77861 2.30754,-1.64283 1.01606,0.52394 3.19738,1.54614 4.84738,2.27156 1.65,0.72541 4.2375,2.43711 5.75,3.80376 2.44197,2.20649 2.75,3.18533 2.75,8.73871 0,3.43964 0.45,6.53201 1,6.87193 0.55,0.33992 1,2.52089 1,4.84661 0,3.72557 -0.56912,4.78913 -4.78435,8.94098 -4.43517,4.36848 -8.21565,6.07677 -8.21565,3.71241 z m -206,-3 c 0.98317,-1.83707 2.10617,-2.00181 13.78518,-2.02224 10.89681,-0.019 13.06523,-0.29154 15.16553,-1.90569 2.02638,-1.55735 2.2344,-2.1441 1.20144,-3.38874 -1.74725,-2.1053 0.2804,-3.10793 2.26723,-1.12109 2.24057,2.24057 2.0058,3.15985 -1.66938,6.53657 l -3.25,2.98608 -12.75,-0.68345 c -9.28305,-0.4976 -12.75,-0.37318 -12.75,0.45756 0,0.62755 -0.69083,1.141 -1.53518,1.141 -1.22531,0 -1.31913,-0.4037 -0.46482,-2 z m 155.8448,-11.48529 c -5.85196,-2.15233 -8.8448,-4.52863 -8.8448,-7.02273 0,-3.36643 2.18701,-3.63155 7.55192,-0.91548 2.63287,1.33292 6.40844,2.4235 8.39015,2.4235 3.08168,0 3.8718,-0.4989 5.45963,-3.44732 2.26314,-4.2024 6.73691,-6.45278 15.53567,-7.8147 9.17395,-1.41999 15.31466,-0.3336 19.65503,3.47729 6.27177,5.50669 2.55764,10.6131 -3.81761,5.24868 -3.04473,-2.56197 -3.60898,-2.66871 -11.98956,-2.26802 -10.24741,0.48993 -14.49522,2.65415 -14.00601,7.13594 0.23945,2.19375 -0.25891,2.70743 -3.5,3.60748 -4.96436,1.37861 -9.92864,1.23257 -14.43442,-0.42464 z m -115.3448,-23.04453 c -3.85,-1.8697 -8.125,-4.3111 -9.5,-5.42533 -6.81526,-5.52273 -38.94885,-5.33858 -49.43045,0.28327 -2.68287,1.43896 -3.16997,1.43027 -5.76535,-0.10286 -1.5592,-0.92103 -4.05243,-2.64544 -5.54053,-3.832 l -2.70563,-2.1574 1.97098,-3.66896 c 2.40124,-4.46989 9.26137,-11.5669 11.18083,-11.5669 0.76904,0 3.82461,-1.35 6.79015,-3 3.54074,-1.97003 6.8008,-3 9.49561,-3 2.25704,0 5.5162,-0.73043 7.24257,-1.62317 2.57184,-1.32995 4.86612,-1.49861 12.70034,-0.93366 5.25882,0.37924 10.46148,1.26348 11.56148,1.96499 1.1,0.7015 3.35,1.60092 5,1.99869 8.00204,1.9291 20.70537,9.50894 26.32053,15.70498 4.59106,5.066 4.94012,6.35718 2.61573,9.67571 -1.77298,2.53129 -11.83446,9.2464 -13.70568,9.14727 -0.67682,-0.0359 -4.38058,-1.59494 -8.23058,-3.46463 z m 11.54418,-5.72018 c 2.16723,-1.2375 3.94388,-2.72422 3.94812,-3.30383 0.0245,-3.35079 -17.19391,-14.26068 -25.21381,-15.97593 -1.80317,-0.38565 -3.87529,-1.18279 -4.60471,-1.77141 -1.52484,-1.23052 -3.13296,0.60282 -3.15847,3.60083 -0.008,0.98981 -0.66748,3.06081 -1.46457,4.60222 l -1.44927,2.80257 5.69927,1.25323 c 3.13459,0.68927 7.22455,2.40156 9.08878,3.80508 2.70368,2.03551 11.52183,6.94203 12.91236,7.18458 0.16604,0.029 2.07507,-0.95984 4.2423,-2.19734 z m -65.54418,-7.96454 c 2.75,-0.52904 5.1057,-1.06539 5.23488,-1.19189 0.12918,-0.1265 -0.55159,-1.7743 -1.51283,-3.66178 -1.6731,-3.28531 -1.88763,-3.38638 -5.0259,-2.36804 -4.39675,1.42671 -8.66747,5.76563 -7.82807,7.95308 0.44102,1.14926 1.20649,1.45688 2.39035,0.9606 0.95786,-0.40155 3.99157,-1.16293 6.74157,-1.69197 z m -27.5,8.71454 c 1.34152,-1.61643 5,-2.06761 5,-0.61663 0,0.48585 -1.0125,1.15471 -2.25,1.48634 -3.50257,0.93866 -4.09525,0.75121 -2.75,-0.86971 z m -8.63837,-5 c -0.31659,-0.825 -1.42746,-1.5 -2.46862,-1.5 -1.04115,0 -1.89301,-0.39752 -1.89301,-0.88337 0,-1.06315 3.49141,-2.0842 7.19098,-2.10298 1.48004,-0.008 2.9691,-0.46365 3.30902,-1.01365 0.33992,-0.55 2.16648,-1 4.05902,-1 1.89254,0 3.44098,0.45 3.44098,1 0,0.55 -0.84504,1 -1.87788,1 -2.14887,0 -9.12212,2.74339 -9.12212,3.58879 0,0.30907 1.2375,0.48034 2.75,0.38061 4.31807,-0.28472 5.41572,-0.0466 4.75,1.0306 -1.01763,1.64657 -9.47471,1.22948 -10.13837,-0.5 z m 158.38837,-11.07533 c -0.4125,-0.4169 -0.75,-3.59597 -0.75,-7.06459 0,-6.67546 2.96776,-14.74999 5.82417,-15.8461 2.20821,-0.84737 2.68604,0.25695 0.96486,2.22989 -3.0504,3.49659 -4.1903,6.89072 -4.73459,14.09747 -0.30494,4.03773 -0.89194,7.00023 -1.30444,6.58333 z m 60.25,-11.80255 c 0,-9.5314 -11.38649,-18.54955 -26.04615,-20.62867 -3.91528,-0.55528 -7.54576,-0.74567 -8.06773,-0.42307 -0.52197,0.3226 -5.21954,0.99057 -10.43904,1.48438 -5.2195,0.49382 -10.26785,1.29513 -11.21854,1.78069 -3.36681,1.71959 -8.22854,2.19893 -8.22854,0.8113 0,-2.55576 18.60009,-5.75699 34.53378,-5.94356 7.02705,-0.0823 8.87472,0.29946 14.74441,3.04622 10.127,4.73899 13.33133,7.591 15.72912,13.99968 2.04971,5.47835 2.0578,8.25091 0.0241,8.25091 -0.56726,0 -1.03138,-1.07004 -1.03138,-2.37788 z m -202.11035,-0.37212 c 0.528,-0.9625 3.13134,-3.81111 5.78518,-6.33024 16.42346,-15.58979 28.76826,-19.87397 59.32517,-20.5884 16.16011,-0.37783 24.9074,0.83482 25.80945,3.57799 0.34079,1.03635 -0.0358,1.20663 -1.423,0.64339 -6.71348,-2.72587 -31.46214,-3.04764 -44.88645,-0.58358 -17.12939,3.14414 -25.12582,7.12072 -36.76063,18.28083 -6.93155,6.64876 -9.73314,8.43327 -7.84972,5.00001 z m 90.11035,-4.19284 c 0,-5.60919 -2.58695,-11.06168 -7.21068,-15.19788 -3.89684,-3.48597 -1.87348,-4.64242 2.16986,-1.24018 4.60891,3.87815 7.04082,9.34967 7.04082,15.84106 0,3.04691 -0.45,5.53984 -1,5.53984 -0.55,0 -1,-2.22428 -1,-4.94284 z m -102,2.12536 c 0,-0.44961 3.31365,-4.16211 7.36367,-8.25 10.99218,-11.09496 27.28975,-19.50952 46.50117,-24.00893 18.87035,-4.41953 38.62362,-5.98213 48.13516,-3.80778 2.475,0.56578 6.075,1.24909 8,1.51845 1.925,0.26937 4.4,0.88836 5.5,1.37554 3.55185,1.57308 11.54788,2.18502 34.35292,2.62904 15.23381,0.29661 22.77007,0.089 23.66271,-0.65181 0.72265,-0.59975 5.2248,-1.08703 10.04343,-1.08703 5.67353,0 9.71611,-0.50805 11.53763,-1.45 4.58235,-2.36963 8.14575,-1.78449 13.22323,2.17133 2.55648,1.99174 4.39026,4.03859 4.07508,4.54856 -0.57626,0.9324 -1.88608,0.18163 -6.07805,-3.48386 -1.74938,-1.52966 -3.04065,-1.77607 -6.5,-1.24037 -11.95828,1.8518 -27.59562,2.72669 -49.31695,2.7592 -23.74306,0.0355 -32.1163,-0.47501 -36,-2.19506 -5.69555,-2.5225 -30.5644,-3.70575 -42.5,-2.02213 -28.19962,3.97781 -47.97314,12.27246 -62.60645,26.26233 -7.86226,7.51655 -9.39355,8.64666 -9.39355,6.93252 z"
         style="fill:#000000" />
    </g>
  </g>
</svg>
