<?xml version="1.0" encoding="UTF-8" standalone="no"?>
<!-- Created with Inkscape (http://www.inkscape.org/) -->

<svg
   xmlns:dc="http://purl.org/dc/elements/1.1/"
   xmlns:cc="http://creativecommons.org/ns#"
   xmlns:rdf="http://www.w3.org/1999/02/22-rdf-syntax-ns#"
   xmlns:svg="http://www.w3.org/2000/svg"
   xmlns="http://www.w3.org/2000/svg"
   xmlns:sodipodi="http://sodipodi.sourceforge.net/DTD/sodipodi-0.dtd"
   xmlns:inkscape="http://www.inkscape.org/namespaces/inkscape"
   width="43.386799mm"
   height="50.885925mm"
   viewBox="0 0 153.73275 180.30446"
   id="svg6764"
   version="1.1"
   inkscape:version="0.91 r13725"
   sodipodi:docname="tux.svg">
  <defs
     id="defs6766" />
  <sodipodi:namedview
     id="base"
     pagecolor="#ffffff"
     bordercolor="#666666"
     borderopacity="1.0"
     inkscape:pageopacity="0.0"
     inkscape:pageshadow="2"
     inkscape:zoom="2.4699904"
     inkscape:cx="151.29703"
     inkscape:cy="58.116445"
     inkscape:document-units="px"
     inkscape:current-layer="layer1"
     showgrid="false"
     inkscape:window-width="1855"
     inkscape:window-height="1056"
     inkscape:window-x="65"
     inkscape:window-y="24"
     inkscape:window-maximized="1"
     fit-margin-top="0"
     fit-margin-left="0"
     fit-margin-right="0"
     fit-margin-bottom="0" />
  <metadata
     id="metadata6769">
    <rdf:RDF>
      <cc:Work
         rdf:about="">
        <dc:format>image/svg+xml</dc:format>
        <dc:type
           rdf:resource="http://purl.org/dc/dcmitype/StillImage" />
        <dc:title></dc:title>
      </cc:Work>
    </rdf:RDF>
  </metadata>
  <g
     inkscape:label="Layer 1"
     inkscape:groupmode="layer"
     id="layer1"
     transform="translate(-24.990963,-23.707432)">
    <path
       style="fill:#000000;stroke:#000000"
       d="m 69.951102,203.91709 c -2.009847,-0.26549 -5.224081,-1.34858 -11.396037,-3.84019 -6.566293,-2.65073 -9.803143,-3.58726 -18.381734,-5.3184 -1.677288,-0.33847 -4.886588,-1.06957 -7.131778,-1.62464 -4.263003,-1.05395 -5.986863,-1.7094 -6.998543,-2.66105 -0.94646,-0.89028 -1.110703,-1.40484 -1.036299,-3.2466 0.05891,-1.45828 0.157166,-1.88553 0.863527,-3.75502 1.229139,-3.2531 1.367602,-3.89541 1.37856,-6.39499 0.009,-2.0566 -0.03447,-2.36575 -0.622147,-4.42235 -0.753279,-2.63615 -0.984017,-3.87255 -0.984017,-5.27279 0,-2.74872 0.875469,-4.72749 2.466306,-5.57442 0.615698,-0.32778 1.060258,-0.37365 4.677478,-0.48259 4.199777,-0.12647 4.616383,-0.18591 6.123243,-0.87343 1.938781,-0.88459 2.922343,-2.16609 4.081672,-5.31809 0.777351,-2.11347 0.785646,-2.13223 2.193595,-4.95895 0.976593,-1.96069 1.019802,-2.09926 0.822077,-2.6364 -0.140814,-0.38254 -0.208695,-1.75637 -0.208695,-4.22387 l 0,-3.65693 0.562816,-1.61585 c 0.309545,-0.88872 1.187145,-2.80223 1.950215,-4.25226 3.216395,-6.11191 4.841666,-9.78476 7.601925,-17.17909 2.757315,-7.38647 3.301079,-8.37003 8.294333,-15.00303 1.599053,-2.124166 4.071998,-5.60676 5.495434,-7.739102 1.42344,-2.132337 3.220075,-4.757782 3.992524,-5.834351 0.772445,-1.076547 1.700217,-2.492542 2.061712,-3.146661 l 0.657263,-1.189293 -0.01503,-2.296211 c -0.0087,-1.262921 -0.177892,-5.664008 -0.376968,-9.780182 -0.986776,-20.403438 -0.940797,-25.365798 0.287148,-30.992059 1.043794,-4.782466 3.041261,-8.583985 5.925822,-11.277845 3.372588,-3.149632 7.092231,-4.735423 12.803891,-5.458669 1.982447,-0.251031 7.672515,-0.244288 9.865225,0.0117 9.95405,1.162051 17.56058,5.993739 21.30993,13.536107 1.8226,3.666442 2.50194,7.505678 3.2642,18.44744 0.82284,11.811679 1.5122,16.200399 3.16543,20.152155 0.39054,0.933552 1.62736,3.42112 2.74848,5.52793 4.86185,9.136453 6.62636,11.915351 12.20632,19.223701 6.56772,8.60204 9.59896,14.26067 12.07273,22.53693 1.74944,5.85304 3.27479,14.67725 3.29298,19.05009 0.009,2.12733 -0.0526,2.78701 -0.36954,3.96932 -0.63585,2.37181 -1.63175,4.00732 -3.81056,6.25794 l -0.84448,0.87231 1.50459,0.2677 c 0.82754,0.14725 1.8736,0.31913 2.32457,0.38197 1.70705,0.23788 2.4634,1.55147 2.68571,4.66446 0.20612,2.88619 0.60225,4.10393 2.01705,6.2006 1.41269,2.09349 3.30014,3.80379 6.62972,6.00747 4.38351,2.9012 5.62196,4.30446 5.62196,6.36999 0,1.94954 -0.86667,2.95912 -4.89525,5.70255 -3.38422,2.30463 -5.02876,3.23819 -8.304,4.71393 -3.11015,1.40135 -5.38313,2.64016 -7.92298,4.31817 -2.63338,1.73974 -4.17368,3.02784 -7.46018,6.23858 -3.82452,3.73632 -5.25544,4.59907 -8.60204,5.18641 -1.64382,0.28848 -7.03324,0.13522 -8.65481,-0.24616 -3.46348,-0.81452 -5.62527,-2.38209 -7.1723,-5.20073 -1.72074,-3.13516 -1.55215,-3.06091 -7.35999,-3.24273 -6.37276,-0.19952 -21.840898,-0.19043 -25.183769,0.0147 -4.07851,0.25042 -7.15793,0.92978 -9.439997,2.08258 -1.172095,0.59208 -3.090071,1.95653 -4.981579,3.54395 -2.443641,2.05074 -3.598416,2.80505 -4.918585,3.21278 -1.042429,0.322 -2.496546,0.40575 -3.877134,0.22339 z"
       id="path3346" />
    <path
       style="fill:#ffd42a"
       d="m 73.653747,198.47767 c 2.791827,-0.63887 5.124325,-3.20879 5.993546,-6.60362 0.99027,-3.86765 0.607918,-7.21439 -1.287149,-11.26641 -1.034132,-2.21115 -2.287155,-4.22672 -7.535299,-12.12099 -9.753575,-14.67132 -13.647178,-19.38894 -17.471658,-21.16923 -1.775538,-0.8265 -4.528433,-0.40802 -5.683885,0.86408 -0.709274,0.78085 -2.063698,3.83663 -2.290252,5.16713 -0.358392,2.10476 -1.179514,5.28995 -1.601117,6.21085 -0.557633,1.21804 -1.39204,2.2364 -2.231875,2.72392 -1.593701,0.92516 -4.657992,1.28815 -7.26952,0.86113 -2.207763,-0.36098 -4.405151,-0.35638 -5.179053,0.0109 -0.326521,0.15494 -0.78847,0.57607 -1.026552,0.93584 -0.385254,0.58216 -0.423842,0.78039 -0.350739,1.80188 0.06699,0.93609 0.305959,1.67309 1.29575,3.9962 2.040642,4.7895 2.424519,6.84435 1.81558,9.7186 -0.31991,1.51001 -0.72346,2.32734 -2.270867,4.59931 -1.857345,2.72703 -1.850496,3.68741 0.03276,4.59237 0.893706,0.42948 12.793014,3.50587 20.776786,5.37157 2.432289,0.56842 6.871642,1.65149 9.865225,2.40688 7.096082,1.79057 7.980462,1.98821 9.652482,2.15716 1.715223,0.17333 3.244025,0.0907 4.765836,-0.25755 z"
       id="path3344" />
    <path
       style="fill:#ffcc00"
       d="m 140.86132,198.41627 c 1.52904,-0.22102 3.28604,-0.83982 4.39951,-1.54948 0.48983,-0.3122 2.03874,-1.49241 3.44198,-2.62273 6.9372,-5.5879 8.57494,-6.50736 15.87981,-8.91537 4.90052,-1.61543 6.43103,-2.25079 8.27501,-3.43517 2.28196,-1.46571 3.82028,-3.4278 3.82341,-4.87666 0.005,-2.11599 -1.92583,-3.55967 -6.29174,-4.70532 -1.26291,-0.3314 -2.69347,-0.79518 -3.17901,-1.03061 -1.00598,-0.4878 -2.3028,-1.82239 -2.97394,-3.06057 -1.45348,-2.68152 -2.23723,-7.32592 -1.64854,-9.76902 0.23193,-0.96248 0.21013,-1.94532 -0.0525,-2.36581 -0.29337,-0.46978 -1.66975,-0.85798 -3.71214,-1.04699 -0.98228,-0.0909 -1.88393,-0.20065 -2.00372,-0.24387 -0.11975,-0.0432 -0.65606,0.32174 -1.19181,0.81102 -2.58877,2.36429 -4.26878,3.56022 -6.41264,4.56487 -4.51127,2.11404 -8.18519,1.31278 -11.33527,-2.47215 -1.0466,-1.25755 -2.78318,-4.48918 -2.97725,-5.54041 -0.1546,-0.8375 -0.35099,-1.02054 -1.09501,-1.02054 -1.91975,0 -3.25881,0.7577 -4.10049,2.32024 -0.76429,1.41885 -0.90216,2.49348 -0.90251,7.03472 0,4.01966 0.0188,4.26055 0.54147,6.8036 1.54067,7.49666 1.61638,9.43294 0.62543,15.99995 -0.61312,4.06339 -0.66413,7.60183 -0.12867,8.92734 1.18435,2.93179 4.05014,5.43025 6.89922,6.01497 1.78389,0.36609 2.58005,0.4005 4.11938,0.17799 z"
       id="path3342" />
    <path
       style="fill:#ffffff;stroke:#000000"
       d="m 104.05416,184.05258 c 6.54852,-0.83242 11.69351,-3.17562 14.35275,-6.53674 0.41336,-0.52245 1.41304,-1.6005 2.22152,-2.39567 0.8085,-0.79518 1.79197,-1.78636 2.18551,-2.20263 0.39355,-0.41627 1.33967,-1.38527 2.10247,-2.15334 0.76279,-0.76806 1.43769,-1.55644 1.49973,-1.75196 0.0621,-0.19553 0.18076,-0.35549 0.26376,-0.35549 0.31293,0 0.38166,-1.423 0.40129,-8.31002 0.0199,-6.98357 0.0257,-7.09682 0.41327,-8.05622 0.52715,-1.305 1.59622,-2.38449 2.73659,-2.76326 0.49032,-0.16285 1.59405,-0.34554 2.45279,-0.406 l 1.56132,-0.10991 0.12076,-1.36072 c 0.0665,-0.7484 0.20303,-1.69231 0.30362,-2.09759 0.23493,-0.94661 0.23142,-15.53158 -0.004,-17.93709 -0.67107,-6.84766 -1.82133,-9.9668 -7.3441,-19.91494 -1.27728,-2.30072 -1.63427,-3.20409 -2.36113,-5.97471 -1.68475,-6.421839 -3.38978,-10.455856 -5.7351,-13.56891 -1.50664,-1.999872 -2.05954,-2.826293 -2.57804,-3.853433 -0.58698,-1.162799 -1.0203,-2.806412 -1.02404,-3.884297 l -0.003,-0.725742 -0.89296,0.446849 c -0.49114,0.245769 -1.04605,0.581628 -1.23315,0.746369 -1.09516,0.964237 -3.01106,2.08168 -4.67748,2.728145 -1.3503,0.523822 -2.41715,1.151734 -5.95315,3.50383 -1.73067,1.151216 -3.988628,2.823192 -5.017658,3.715509 -2.521302,2.186306 -2.856751,2.336623 -5.436217,2.435987 -2.486169,0.09578 -3.117797,-0.112807 -4.625843,-1.527587 -1.283154,-1.203795 -3.415426,-3.887524 -4.191988,-5.276163 -0.701884,-1.255084 -2.282049,-3.02523 -2.700553,-3.02523 -0.337435,0 -0.437657,0.238887 -0.823472,1.962679 -0.444358,1.9854 -1.392826,4.250051 -3.618119,8.63895 -1.114267,2.197663 -2.048159,4.264802 -2.151609,4.762535 -0.100535,0.483684 -0.327957,1.300409 -0.5054,1.814929 -0.17743,0.51452 -0.454324,1.54782 -0.61531,2.29621 -0.16099,0.7484 -0.547101,2.1644 -0.858034,3.14667 -0.310928,0.98227 -0.940073,3.12583 -1.3981,4.76345 -0.561142,2.00629 -1.196921,3.78166 -1.949171,5.44288 -2.259253,4.98921 -3.95954,9.69069 -4.543507,12.56332 -0.792317,3.89753 -0.925646,5.72285 -0.933452,12.77918 l -0.0074,6.71857 0.470708,1.27566 c 0.25889,0.70163 0.603321,1.53391 0.765405,1.84951 0.317088,0.61745 3.00797,3.07765 7.098299,6.4898 2.461706,2.05355 3.528857,2.90508 7.423865,5.92375 3.663217,2.83906 5.113291,5.19632 4.754589,7.72918 -0.09193,0.64911 -0.326877,1.36819 -0.575979,1.76281 -0.560845,0.88841 -2.112425,2.28791 -3.272275,2.9515 l -0.939464,0.53751 0.386796,0.30166 c 0.212741,0.1659 0.884297,0.55594 1.492384,0.86674 0.608066,0.3108 1.512315,0.82117 2.009442,1.13414 1.57709,0.9929 3.320346,2.03188 4.198841,2.50253 0.467745,0.25058 1.347961,0.75941 1.956035,1.13073 1.230306,0.75128 2.191699,1.09085 4.082157,1.44182 1.641426,0.30472 7.72013,0.20503 10.71568,-0.17575 z"
       id="path3340" />
    <path
       style="fill:#ffcc00;stroke:#000000"
       d="m 96.432388,86.421851 c 2.518779,-0.734833 8.989952,-3.576268 12.206372,-5.3597 0.98658,-0.547041 2.12628,-1.082285 2.53265,-1.18945 0.81364,-0.214549 4.41862,-1.941456 4.72936,-2.265518 0.10746,-0.112097 0.41013,-0.892674 0.67256,-1.734613 0.65101,-2.088693 0.68722,-4.149655 0.0877,-4.990265 -0.7437,-1.04273 -1.61723,-1.497303 -4.92206,-2.561356 -3.27023,-1.052902 -5.83515,-2.176845 -6.77383,-2.968265 -0.29415,-0.248017 -0.60759,-0.450926 -0.69652,-0.450926 -0.0889,0 -0.29703,-0.149529 -0.46242,-0.332282 -0.31128,-0.34397 -0.76139,-0.460127 -3.919211,-1.011423 -3.839838,-0.670372 -4.824135,-0.775168 -7.313868,-0.778753 l -2.551355,-0.0035 -0.974944,0.552516 c -1.082616,0.613524 -3.393202,2.356623 -4.765336,3.594944 -0.491277,0.443369 -1.452617,1.248332 -2.136297,1.788812 -1.485262,1.174151 -2.159803,2.056889 -2.520888,3.299 -0.468787,1.612575 -0.03123,2.533147 1.623352,3.415 0.988527,0.52688 1.374913,0.908078 2.952613,2.912972 1.490163,1.893651 3.87023,2.573066 7.754435,2.213562 3.665404,-0.339261 7.215096,-1.193183 11.401649,-2.742795 1.27254,-0.471021 3.30511,-1.214358 4.51682,-1.651863 1.70689,-0.616312 2.31986,-0.922309 2.72144,-1.35859 0.28508,-0.3097 0.72293,-0.788083 0.97299,-1.063061 0.26414,-0.290441 0.62729,-0.499954 0.86661,-0.499954 0.56316,0 1.01323,0.538968 0.94517,1.131857 -0.10444,0.909968 -1.57382,1.640428 -7.19905,3.578778 -1.4968,0.515772 -3.90782,1.498858 -5.35784,2.184646 -1.450019,0.685788 -3.325265,1.462358 -4.167212,1.725717 -1.525592,0.477185 -1.547059,0.478828 -6.293332,0.478828 -2.619385,0 -4.854854,0.05987 -4.967713,0.133015 -0.112837,0.07315 -0.15947,0.252129 -0.103606,0.397707 0.1324,0.34502 2.948687,2.674059 3.926193,3.246914 1.687989,0.989224 4.473474,1.108207 7.215598,0.308219 z"
       id="path3338" />
    <path
       style="fill:#ffffff;stroke:#000000"
       d="m 83.144232,67.106961 c 0.376454,-0.201472 1.345592,-1.807997 1.347979,-2.234542 8.71e-4,-0.173927 -0.225352,-0.359364 -0.582504,-0.477228 -0.8061,-0.266039 -1.721988,-1.33816 -2.065083,-2.417356 -0.409482,-1.287973 -0.521387,-4.140128 -0.19326,-4.92545 0.48226,-1.154209 2.253225,-2.100989 3.583966,-1.916033 1.167826,0.162314 1.613346,0.413963 2.236998,1.263553 0.932851,1.2708 1.475636,2.615115 1.568927,3.88575 0.09362,1.275266 0.307518,1.554478 1.190813,1.554478 0.387227,0 0.712221,-0.141693 1.011554,-0.441008 0.440951,-0.440959 0.440994,-0.441308 0.346278,-2.678924 -0.200504,-4.737259 -1.712078,-7.801761 -4.337065,-8.792836 -2.275241,-0.859025 -4.882594,0.23776 -6.403067,2.693453 -1.775857,2.868164 -1.688137,9.241087 0.178807,12.991231 0.749287,1.505101 1.329961,1.915397 2.115657,1.494912 z"
       id="path3336" />
    <path
       style="fill:#ffffff;stroke:#000000"
       d="m 115.75567,66.335683 c 0.55963,-0.391983 1.17888,-1.734516 1.40864,-3.054015 0.38583,-2.215505 -0.0502,-5.043967 -1.34318,-8.711684 -1.26207,-3.580265 -2.4695,-4.80111 -5.49,-5.551003 -4.63026,-1.149541 -6.99027,-0.3425 -9.01305,3.082128 -1.16736,1.976374 -1.837602,4.107431 -1.969345,6.261496 -0.105057,1.717889 0.01015,3.376073 0.262968,3.785141 0.134221,0.217176 3.014867,0.774331 3.250527,0.628701 0.0671,-0.04147 0.16542,-0.862303 0.21846,-1.824062 0.12099,-2.193467 0.54324,-3.504789 1.42433,-4.423369 0.89557,-0.933661 1.78131,-1.314097 3.07015,-1.318659 2.24472,-0.008 3.86974,0.715896 4.89308,2.179564 0.49942,0.714325 0.51563,0.797301 0.51508,2.636391 -4.3e-4,1.618382 -0.0731,2.130155 -0.49225,3.46466 -0.47382,1.508917 -0.48103,1.582043 -0.19879,2.012818 0.60533,0.92383 2.63579,1.411539 3.46338,0.831893 z"
       id="path7415" />
  </g>
</svg>
