<?xml version="1.0" encoding="UTF-8" standalone="no"?>
<!-- Created with Inkscape (http://www.inkscape.org/) -->

<svg
   xmlns:ns3="http://ns.adobe.com/AdobeIllustrator/10.0/"
   xmlns:dc="http://purl.org/dc/elements/1.1/"
   xmlns:cc="http://creativecommons.org/ns#"
   xmlns:rdf="http://www.w3.org/1999/02/22-rdf-syntax-ns#"
   xmlns:svg="http://www.w3.org/2000/svg"
   xmlns="http://www.w3.org/2000/svg"
   xmlns:sodipodi="http://sodipodi.sourceforge.net/DTD/sodipodi-0.dtd"
   xmlns:inkscape="http://www.inkscape.org/namespaces/inkscape"
   width="189.86078mm"
   height="96.761063mm"
   viewBox="0 0 672.73504 342.85416"
   id="svg2"
   version="1.1"
   inkscape:version="0.91 r13725"
   sodipodi:docname="ccc.svg">
  <defs
     id="defs4" />
  <sodipodi:namedview
     id="base"
     pagecolor="#ffffff"
     bordercolor="#666666"
     borderopacity="1.0"
     inkscape:pageopacity="0.0"
     inkscape:pageshadow="2"
     inkscape:zoom="0.49497475"
     inkscape:cx="146.55173"
     inkscape:cy="52.890372"
     inkscape:document-units="px"
     inkscape:current-layer="g4166"
     showgrid="false"
     inkscape:window-width="1855"
     inkscape:window-height="1056"
     inkscape:window-x="65"
     inkscape:window-y="24"
     inkscape:window-maximized="1"
     fit-margin-top="0"
     fit-margin-left="0"
     fit-margin-right="0"
     fit-margin-bottom="0" />
  <metadata
     id="metadata7">
    <rdf:RDF>
      <cc:Work
         rdf:about="">
        <dc:format>image/svg+xml</dc:format>
        <dc:type
           rdf:resource="http://purl.org/dc/dcmitype/StillImage" />
        <dc:title></dc:title>
      </cc:Work>
    </rdf:RDF>
  </metadata>
  <g
     inkscape:label="Layer 1"
     inkscape:groupmode="layer"
     id="layer1"
     transform="translate(-29.500601,-35.2055)">
    <g
       id="g4166"
       transform="matrix(1.3200029,0,0,1.3200029,143.44304,670.70203)">
      <rect
         style="opacity:1;fill:#cccccc;fill-opacity:1;stroke:#000000;stroke-width:3.97163486;stroke-linecap:round;stroke-linejoin:round;stroke-miterlimit:4;stroke-dasharray:none;stroke-dashoffset:0;stroke-opacity:1"
         id="rect4422"
         width="505.67499"
         height="255.36255"
         x="-84.334023"
         y="-479.44989"
         ry="12.81951" />
      <circle
         style="opacity:1;fill:#ffffff;fill-opacity:1;stroke:#ffffff;stroke-width:0.39716348;stroke-linecap:round;stroke-linejoin:round;stroke-miterlimit:4;stroke-dasharray:none;stroke-dashoffset:0;stroke-opacity:1"
         id="path4371-7-6"
         cx="56.349297"
         cy="-356.26932"
         r="87.305077" />
      <path
         style="clip-rule:evenodd;fill-rule:evenodd"
         inkscape:connector-curvature="0"
         ns3:knockout="Off"
         d="m 54.926623,-454.1509 c -27.656406,0 -51.9935209,10.23497 -70.800643,29.31604 -19.358187,19.63853 -29.867126,45.08101 -29.867126,71.63205 0,26.82499 10.231771,51.71639 29.593174,71.07779 19.3582051,19.35821 44.526743,29.86713 71.074595,29.86713 26.547853,0 52.270657,-10.50892 72.183137,-30.14427 18.80711,-18.52998 28.76176,-43.14425 28.76176,-70.80065 0,-27.37926 -9.95465,-52.27066 -29.03889,-71.35491 -19.35821,-19.35821 -44.24961,-29.59318 -71.906007,-29.59318 z m 0.277132,18.25603 c 22.677496,0 42.867105,8.57214 58.632085,24.33712 15.48465,15.48784 23.78284,35.95459 23.78284,58.35494 0,22.67749 -8.02105,42.58997 -23.50889,57.80385 -16.319251,16.03894 -37.337092,24.61427 -58.909215,24.61427 -21.849246,0 -42.316023,-8.57214 -58.0778049,-24.33713 -15.7649711,-15.76816 -24.6142651,-36.50887 -24.6142651,-58.08099 0,-21.84925 8.849294,-42.58996 24.6142651,-58.63208 15.4878309,-15.76179 35.4035059,-24.05998 58.0809849,-24.05998 z"
         id="path4200-0-1" />
      <path
         style="clip-rule:evenodd;fill-rule:evenodd"
         inkscape:connector-curvature="0"
         ns3:knockout="Off"
         d="m 29.578142,-367.18266 c -4.458377,-8.12969 -12.06502,-11.36514 -20.8946019,-11.36514 -12.852092,0 -23.0814411,9.09111 -23.0814411,24.48124 0,15.64915 9.6166461,24.48122 23.5198021,24.48122 8.9192479,0 16.5233959,-4.89674 20.7202499,-12.32655 l -9.793484,-4.98391 c -2.18685,5.24545 -5.506973,6.81956 -9.703818,6.81956 -7.2579479,0 -10.57806086,-6.0325 -10.57806086,-13.98784 0,-7.95533 2.79706696,-13.99033 10.57806086,-13.99033 2.097175,0 6.294029,1.13825 8.742411,6.3812 l 10.490882,-5.50945 z"
         id="path4202-3-0" />
      <path
         style="clip-rule:evenodd;fill-rule:evenodd"
         inkscape:connector-curvature="0"
         ns3:knockout="Off"
         d="m 123.03277,-366.31925 c -4.46087,-8.1297 -12.06501,-11.36513 -20.89459,-11.36513 -12.852087,0 -23.083931,9.09111 -23.083931,24.48123 0,15.64915 9.619132,24.48122 23.519801,24.48122 8.91925,0 16.5234,-4.89674 20.72025,-12.32653 l -9.79348,-4.98393 c -2.18436,5.24545 -5.50697,6.81957 -9.70383,6.81957 -7.255443,0 -10.580547,-6.0325 -10.580547,-13.98784 0,-7.95535 2.799562,-13.99034 10.580547,-13.99034 2.09718,0 6.29404,1.13825 8.7449,6.38121 l 10.49088,-5.50946 z"
         id="path4204-1-7" />
      <path
         style="clip-rule:evenodd;fill-rule:evenodd"
         inkscape:connector-curvature="0"
         ns3:knockout="Off"
         d="m 76.408486,-367.61437 c -4.460871,-8.12969 -12.065019,-11.36513 -20.894601,-11.36513 -12.852083,0 -23.083927,9.09111 -23.083927,24.48123 0,15.64916 9.619131,24.48123 23.519802,24.48123 8.919248,0 16.523396,-4.89675 20.720249,-12.32655 l -9.793483,-4.98392 c -2.184355,5.24546 -5.506973,6.81958 -9.703818,6.81958 -7.255453,0 -10.580556,-6.03251 -10.580556,-13.98785 0,-7.95534 2.799562,-13.99034 10.580556,-13.99034 2.097175,0 6.294019,1.13825 8.744887,6.38121 l 10.490891,-5.50946 z"
         id="path4204-4-2-6" />
      <path
         style="opacity:1;fill:#000000;fill-opacity:1;stroke:#000000;stroke-width:1.98581743;stroke-linecap:round;stroke-linejoin:round;stroke-miterlimit:4;stroke-dasharray:none;stroke-dashoffset:0;stroke-opacity:1"
         d="m -85.197929,-287.68485 0,64.99366 507.353239,0 0,-64.99366 -265.78244,0 c -22.62553,32.65374 -59.82129,52.14158 -99.547622,52.15562 -39.681619,-0.0555 -76.821132,-19.53858 -99.421162,-52.15562 z"
         id="rect4462"
         inkscape:connector-curvature="0"
         sodipodi:nodetypes="cccccccc" />
      <text
         sodipodi:linespacing="125%"
         id="text4515-6"
         y="-246.46597"
         x="188.07997"
         style="font-style:normal;font-weight:normal;font-size:35.56852341px;line-height:125%;font-family:sans-serif;letter-spacing:0px;word-spacing:0px;fill:#ffffff;fill-opacity:1;stroke:none;stroke-width:1px;stroke-linecap:butt;stroke-linejoin:miter;stroke-opacity:1"
         xml:space="preserve"><tspan
           style="font-style:normal;font-variant:normal;font-weight:normal;font-stretch:normal;font-family:'Arial Black';-inkscape-font-specification:'Arial Black, ';fill:#ffffff"
           y="-246.46597"
           x="188.07997"
           id="tspan4517-4"
           sodipodi:role="line">Compartir</tspan></text>
      <rect
         style="opacity:1;fill:#ffffff;fill-opacity:1;stroke:#000000;stroke-width:7.94326973;stroke-linecap:round;stroke-linejoin:round;stroke-miterlimit:4;stroke-dasharray:none;stroke-dashoffset:0;stroke-opacity:1"
         id="rect4439-9"
         width="226.95056"
         height="56.73764"
         x="177.32384"
         y="-446.54205"
         ry="26.099314" />
      <g
         style="font-style:normal;font-weight:normal;font-size:65.36958313px;line-height:125%;font-family:sans-serif;letter-spacing:0px;word-spacing:0px;fill:#000000;fill-opacity:1;stroke:none;stroke-width:1px;stroke-linecap:butt;stroke-linejoin:miter;stroke-opacity:1"
         id="text4418-7"
         transform="matrix(0.52425694,0,0,0.52425694,480.53558,-638.97461)">
        <path
           d="m -519.666,424.945 12.67174,3.83025 q -1.27675,5.33043 -4.02176,8.90533 -2.74502,3.5749 -6.83061,5.39427 -4.05369,1.81937 -10.34168,1.81937 -7.62858,0 -12.48023,-2.20239 -4.81973,-2.23432 -8.33079,-7.8201 -3.51106,-5.58578 -3.51106,-14.29959 0,-11.61842 6.16032,-17.84258 6.19223,-6.25607 17.49147,-6.25607 8.84149,0 13.88465,3.5749 5.07508,3.5749 7.53282,10.98004 l -12.76749,2.84077 q -0.6703,-2.13855 -1.40443,-3.12804 -1.21291,-1.65977 -2.96844,-2.55349 -1.75553,-0.89373 -3.926,-0.89373 -4.91549,0 -7.53283,3.95792 -1.97896,2.93653 -1.97896,9.22452 0,7.78817 2.36199,10.69278 2.36198,2.87269 6.6391,2.87269 4.14943,0 6.25607,-2.33007 2.13855,-2.33007 3.09612,-6.76678 z"
           style="font-style:normal;font-variant:normal;font-weight:normal;font-stretch:normal;font-family:'Arial Black';-inkscape-font-specification:'Arial Black, ';fill:#000000"
           id="path4442-0"
           inkscape:connector-curvature="0" />
        <path
           d="m -465.14879,444.06433 -12.12912,0 0,-5.49002 q -2.7131,3.38338 -5.49003,4.81973 -2.74501,1.43634 -6.76677,1.43634 -5.36235,0 -8.42655,-3.19187 -3.03228,-3.2238 -3.03228,-9.89481 l 0,-21.57707 13.05477,0 0,18.64054 q 0,3.19188 1.18099,4.53246 1.18099,1.34059 3.31955,1.34059 2.33007,0 3.79833,-1.78745 1.50018,-1.78745 1.50018,-6.41567 l 0,-16.31047 12.99093,0 0,33.8977 z"
           style="font-style:normal;font-variant:normal;font-weight:normal;font-stretch:normal;font-family:'Arial Black';-inkscape-font-specification:'Arial Black, ';fill:#000000"
           id="path4444-6"
           inkscape:connector-curvature="0" />
        <path
           d="m -457.07335,410.16663 12.16104,0 0,5.55386 q 1.75553,-3.60682 3.60682,-4.94741 1.8832,-1.3725 4.62822,-1.3725 2.87268,0 6.28799,1.78745 l -4.02176,9.25643 q -2.29815,-0.95756 -3.63874,-0.95756 -2.5535,0 -3.95792,2.10664 -2.01088,2.96844 -2.01088,11.10772 l 0,11.36307 -13.05477,0 0,-33.8977 z"
           style="font-style:normal;font-variant:normal;font-weight:normal;font-stretch:normal;font-family:'Arial Black';-inkscape-font-specification:'Arial Black, ';fill:#000000"
           id="path4446-2"
           inkscape:connector-curvature="0" />
        <path
           d="m -427.74003,397.27146 12.99093,0 0,8.84149 -12.99093,0 0,-8.84149 z m 0,12.89517 12.99093,0 0,33.8977 -12.99093,0 0,-33.8977 z"
           style="font-style:normal;font-variant:normal;font-weight:normal;font-stretch:normal;font-family:'Arial Black';-inkscape-font-specification:'Arial Black, ';fill:#000000"
           id="path4448-8"
           inkscape:connector-curvature="0" />
        <path
           d="m -407.98233,427.21124 q 0,-7.75626 5.23468,-12.7675 5.23467,-5.04316 14.14,-5.04316 10.18208,0 15.38483,5.90496 4.18136,4.7559 4.18136,11.71418 0,7.82009 -5.20275,12.83134 -5.17084,4.97932 -14.33152,4.97932 -8.1712,0 -13.21436,-4.14944 -6.19224,-5.13891 -6.19224,-13.4697 z m 13.02285,-0.0319 q 0,4.53246 1.81937,6.70293 1.85129,2.17048 4.62822,2.17048 2.80885,0 4.5963,-2.13856 1.81936,-2.13855 1.81936,-6.86253 0,-4.40478 -1.81936,-6.54334 -1.81937,-2.17047 -4.50055,-2.17047 -2.84076,0 -4.69205,2.20239 -1.85129,2.17047 -1.85129,6.6391 z"
           style="font-style:normal;font-variant:normal;font-weight:normal;font-stretch:normal;font-family:'Arial Black';-inkscape-font-specification:'Arial Black, ';fill:#000000"
           id="path4450-9"
           inkscape:connector-curvature="0" />
        <path
           d="m -365.0197,434.68022 12.89518,-1.21291 q 0.79796,2.29815 2.23431,3.28763 1.43634,0.98948 3.83025,0.98948 2.61733,0 4.05368,-1.11716 1.11715,-0.82988 1.11715,-2.07471 0,-1.40443 -1.46826,-2.17048 -1.05332,-0.54262 -5.58578,-1.34059 -6.76677,-1.18099 -9.41603,-2.17047 -2.61734,-1.0214 -4.4367,-3.41531 -1.78745,-2.3939 -1.78745,-5.4581 0,-3.35147 1.94704,-5.77729 1.94704,-2.42583 5.36235,-3.60682 3.4153,-1.21291 9.16068,-1.21291 6.06456,0 8.93725,0.92564 2.9046,0.92564 4.81973,2.87269 1.94704,1.94704 3.22379,5.26659 l -12.32064,1.21291 q -0.47878,-1.62785 -1.59593,-2.3939 -1.5321,-1.0214 -3.70258,-1.0214 -2.20239,0 -3.22379,0.79797 -0.98948,0.76605 -0.98948,1.8832 0,1.24483 1.27675,1.88321 1.27675,0.63837 5.55386,1.14907 6.4795,0.73413 9.63946,2.0428 3.15995,1.30867 4.81973,3.73449 1.69169,2.42583 1.69169,5.33043 0,2.93653 -1.78745,5.71346 -1.75553,2.77693 -5.58578,4.4367 -3.79833,1.62786 -10.37359,1.62786 -9.28835,0 -13.24628,-2.64926 -3.926,-2.64925 -5.04316,-7.53282 z"
           style="font-style:normal;font-variant:normal;font-weight:normal;font-stretch:normal;font-family:'Arial Black';-inkscape-font-specification:'Arial Black, ';fill:#000000"
           id="path4452-5"
           inkscape:connector-curvature="0" />
        <path
           d="m -322.28052,397.27146 12.99093,0 0,8.84149 -12.99093,0 0,-8.84149 z m 0,12.89517 12.99093,0 0,33.8977 -12.99093,0 0,-33.8977 z"
           style="font-style:normal;font-variant:normal;font-weight:normal;font-stretch:normal;font-family:'Arial Black';-inkscape-font-specification:'Arial Black, ';fill:#000000"
           id="path4454-0"
           inkscape:connector-curvature="0" />
        <path
           d="m -265.24172,397.27146 0,46.79287 -12.16104,0 0,-5.01124 q -2.5535,3.19187 -4.66013,4.30903 -2.80885,1.46826 -6.25608,1.46826 -6.92636,0 -10.59702,-5.26659 -3.63874,-5.26659 -3.63874,-12.79942 0,-8.42654 4.02177,-12.89517 4.05368,-4.46862 10.27783,-4.46862 3.03228,0 5.49002,1.0214 2.48967,1.0214 4.40479,3.0642 l 0,-16.21472 13.1186,0 z m -13.02284,29.74826 q 0,-3.98984 -1.6917,-5.93688 -1.69169,-1.97897 -4.27711,-1.97897 -2.26623,0 -3.79833,1.88321 -1.5321,1.88321 -1.5321,6.31991 0,4.14944 1.56402,6.09648 1.59594,1.91513 3.92601,1.91513 2.48966,0 4.14943,-1.94705 1.65978,-1.94704 1.65978,-6.35183 z"
           style="font-style:normal;font-variant:normal;font-weight:normal;font-stretch:normal;font-family:'Arial Black';-inkscape-font-specification:'Arial Black, ';fill:#000000"
           id="path4456-2"
           inkscape:connector-curvature="0" />
        <path
           d="m -245.42019,421.14667 -12.41639,-1.30866 q 0.70221,-3.25572 2.01088,-5.107 1.34059,-1.88321 3.83025,-3.25571 1.78745,-0.98949 4.91548,-1.5321 3.12804,-0.54262 6.76678,-0.54262 5.84113,0 9.38411,0.67029 3.54298,0.63838 5.90497,2.71309 1.65977,1.43635 2.61733,4.0856 0.95756,2.61734 0.95756,5.01125 l 0,14.96989 q 0,2.3939 0.28727,3.76641 0.31919,1.34058 1.34059,3.44722 l -12.19296,0 q -0.73413,-1.30867 -0.95756,-1.97896 -0.22343,-0.70221 -0.44686,-2.17048 -2.5535,2.45775 -5.07508,3.51107 -3.44723,1.40442 -8.01161,1.40442 -6.06456,0 -9.22451,-2.80885 -3.12804,-2.80885 -3.12804,-6.92637 0,-3.86216 2.26623,-6.35182 2.26623,-2.48967 8.36271,-3.70258 7.30939,-1.46826 9.47987,-2.0428 2.17047,-0.60645 4.59629,-1.56402 0,-2.3939 -0.98948,-3.35146 -0.98948,-0.95757 -3.47914,-0.95757 -3.19187,0 -4.78781,1.0214 -1.24483,0.79797 -2.01088,3.00036 z m 11.26731,6.83062 q -2.68117,0.95756 -5.58577,1.69169 -3.95793,1.05332 -5.01125,2.07472 -1.08523,1.05332 -1.08523,2.3939 0,1.5321 1.05331,2.52158 1.08524,0.95757 3.15996,0.95757 2.17047,0 4.02176,-1.05332 1.88321,-1.05332 2.64926,-2.5535 0.79796,-1.5321 0.79796,-3.95793 l 0,-2.07471 z"
           style="font-style:normal;font-variant:normal;font-weight:normal;font-stretch:normal;font-family:'Arial Black';-inkscape-font-specification:'Arial Black, ';fill:#000000"
           id="path4458-7"
           inkscape:connector-curvature="0" />
        <path
           d="m -177.91203,397.27146 0,46.79287 -12.16105,0 0,-5.01124 q -2.55349,3.19187 -4.66013,4.30903 -2.80885,1.46826 -6.25608,1.46826 -6.92636,0 -10.59702,-5.26659 -3.63873,-5.26659 -3.63873,-12.79942 0,-8.42654 4.02176,-12.89517 4.05368,-4.46862 10.27783,-4.46862 3.03228,0 5.49003,1.0214 2.48966,1.0214 4.40478,3.0642 l 0,-16.21472 13.11861,0 z m -13.02285,29.74826 q 0,-3.98984 -1.69169,-5.93688 -1.6917,-1.97897 -4.27712,-1.97897 -2.26623,0 -3.79833,1.88321 -1.5321,1.88321 -1.5321,6.31991 0,4.14944 1.56402,6.09648 1.59594,1.91513 3.92601,1.91513 2.48966,0 4.14943,-1.94705 1.65978,-1.94704 1.65978,-6.35183 z"
           style="font-style:normal;font-variant:normal;font-weight:normal;font-stretch:normal;font-family:'Arial Black';-inkscape-font-specification:'Arial Black, ';fill:#000000"
           id="path4460-2"
           inkscape:connector-curvature="0" />
      </g>
      <rect
         style="opacity:1;fill:#ffffff;fill-opacity:1;stroke:#000000;stroke-width:7.94326973;stroke-linecap:round;stroke-linejoin:round;stroke-miterlimit:4;stroke-dasharray:none;stroke-dashoffset:0;stroke-opacity:1"
         id="rect4439-9-8"
         width="226.95056"
         height="56.73764"
         x="177.32384"
         y="-366.30292"
         ry="26.099314" />
      <g
         style="font-style:normal;font-weight:normal;font-size:65.36958313px;line-height:125%;font-family:sans-serif;letter-spacing:0px;word-spacing:0px;fill:#000000;fill-opacity:1;stroke:none;stroke-width:1px;stroke-linecap:butt;stroke-linejoin:miter;stroke-opacity:1"
         id="text4418-7-1"
         transform="translate(-51.947946,-530.92808)" />
      <text
         sodipodi:linespacing="125%"
         id="text4515-5"
         y="-326.70343"
         x="235.2834"
         style="font-style:normal;font-weight:normal;font-size:35.56852341px;line-height:125%;font-family:sans-serif;letter-spacing:0px;word-spacing:0px;fill:#000000;fill-opacity:1;stroke:none;stroke-width:1px;stroke-linecap:butt;stroke-linejoin:miter;stroke-opacity:1"
         xml:space="preserve"><tspan
           style="font-style:normal;font-variant:normal;font-weight:normal;font-stretch:normal;font-family:'Arial Black';-inkscape-font-specification:'Arial Black, ';fill:#000000"
           y="-326.70343"
           x="235.2834"
           id="tspan4517-2"
           sodipodi:role="line">Crear</tspan></text>
    </g>
  </g>
</svg>
