<?xml version="1.0" encoding="UTF-8" standalone="no"?>
<svg
   xmlns:dc="http://purl.org/dc/elements/1.1/"
   xmlns:cc="http://creativecommons.org/ns#"
   xmlns:rdf="http://www.w3.org/1999/02/22-rdf-syntax-ns#"
   xmlns:svg="http://www.w3.org/2000/svg"
   xmlns="http://www.w3.org/2000/svg"
   xmlns:sodipodi="http://sodipodi.sourceforge.net/DTD/sodipodi-0.dtd"
   xmlns:inkscape="http://www.inkscape.org/namespaces/inkscape"
   version="1.0"
   width="1323.8015pt"
   height="1611.7162pt"
   viewBox="0 0 1323.8015 1611.7162"
   preserveAspectRatio="xMidYMid meet"
   id="svg2"
   inkscape:version="0.91 r13725"
   sodipodi:docname="fpgawars.svg">
  <defs
     id="defs30" />
  <sodipodi:namedview
     pagecolor="#ffffff"
     bordercolor="#666666"
     borderopacity="1"
     objecttolerance="10"
     gridtolerance="10"
     guidetolerance="10"
     inkscape:pageopacity="0"
     inkscape:pageshadow="2"
     inkscape:window-width="1855"
     inkscape:window-height="1056"
     id="namedview28"
     showgrid="false"
     fit-margin-top="0"
     fit-margin-left="0"
     fit-margin-right="0"
     fit-margin-bottom="0"
     inkscape:zoom="0.2718358"
     inkscape:cx="600.98233"
     inkscape:cy="961.09711"
     inkscape:window-x="65"
     inkscape:window-y="24"
     inkscape:window-maximized="1"
     inkscape:current-layer="svg2" />
  <metadata
     id="metadata4">
Created by potrace 1.13, written by Peter Selinger 2001-2015
<rdf:RDF>
  <cc:Work
     rdf:about="">
    <dc:format>image/svg+xml</dc:format>
    <dc:type
       rdf:resource="http://purl.org/dc/dcmitype/StillImage" />
    <dc:title></dc:title>
  </cc:Work>
</rdf:RDF>
</metadata>
  <path
     inkscape:connector-curvature="0"
     style="fill:#008000;stroke:none"
     id="path8"
     d="m 320.403,0.925 c -22.6,3 -42.8,13.3 -58.6,29.6 -16.8,17.4 -25.6,36.2 -27.8,59.8 -2.9,29.6 7.6,58.3 29.1,79.8 l 7.8,7.8 0,67 0,66.9 62,0 62,0 0,-67.3 0,-67.3 7.1,-6.9 c 9.2,-9.1 14.9,-17.1 20.3,-28.6 6.1,-12.8 8.6,-23 9.3,-37.1 2,-40.5 -18.8,-75.9 -55.2,-93.9 -17,-8.4 -38.5,-12.2 -56,-9.8 z" />
  <path
     inkscape:connector-curvature="0"
     style="fill:#008000;stroke:none"
     id="path10"
     d="m 650.503,0.825 c -40.8,5 -73.1,33 -84.8,73.6 -2,6.8 -2.3,10.2 -2.3,24.9 0,14.6 0.3,18.2 2.3,25.5 4.7,17.2 16.8,37.4 28.8,47.7 l 5.4,4.7 0,67.3 0,67.3 62,0 62,0 0,-67.1 0,-67.1 7.3,-7.2 c 14.2,-13.9 23.8,-31.6 27.9,-51.6 1.6,-7.7 1.9,-12 1.5,-23 -0.6,-16.4 -2.8,-25.4 -9.7,-39.5 -13.1,-27 -36,-45.6 -65.4,-53 -10.6,-2.7 -25.1,-3.7 -35,-2.5 z" />
  <path
     inkscape:connector-curvature="0"
     style="fill:#008000;stroke:none"
     id="path12"
     d="m 979.80305,0.825 c -26.50005,3.1 -52.00005,17.7 -68.10005,39 -6.3,8.3 -14.1,24.2 -16.9,34.5 -3.2,12 -3.7,32 -1.1,44.5 4.1,20 13.5,37.4 27.9,51.6 l 7.3,7.2 0,67.1 0,67.1 62.00005,0 62.00005,0 0,-67.3 0,-67.3 5.4,-4.7 c 12,-10.3 24.1,-30.5 28.8,-47.7 2,-7.3 2.3,-10.9 2.3,-25.5 0,-14.7 -0.3,-18.1 -2.3,-24.9 -5.4,-18.7 -13.9,-33.1 -26.9,-45.7 -16.6,-16.2 -35.8,-25.2 -59,-27.9 -9.70005,-1.1 -11.80005,-1.1 -21.40005,0 z" />
  <path
     inkscape:connector-curvature="0"
     id="path3377"
     d="m 755.103,336.925 c -18.4,1.8 -51.5,9.5 -65,15.2 -16.1,6.9 -38.4,24.1 -47.8,36.9 -2,2.6 -3.9,4.8 -4.2,4.8 -0.4,-0.1 -2.5,-2.6 -4.7,-5.7 -8.4,-11.7 -29,-27.4 -43.7,-33.3 -7.9,-3.1 -30.5,-8.9 -43.8,-11.2 -5.7,-1 -27.2,-1.3 -91.5,-1.3 -46.2,0.1 -86.7,0.2 -90,0.3 -3.3,0.1 -57.2,-0.1 -119.8,-0.4 -111.8,-0.4 -114,-0.4 -122.4,1.6 -6.2,1.5 -9.9,3 -13.5,5.7 -13.199997,9.6 -16.799997,20.7 -16.799997,51.3 l 0,18.8 -20.7,0.5 c -22.9,0.5 -26.6,1.2 -38.5,7.4 -13.4,7 -23.3000002,18.4 -29.1000002,33.6 l -3.20000002,8.2 -0.3,333.3 c -0.2,369.6 -0.8,340.5 6.40000002,355.2 2.8,5.6 5.7000002,9.5 11.8000002,15.5 9.3,9.2 16.7,13.6 28.2,16.5 7.6,2 13.5,2 614.799997,2 529.0001,0 608.0001,-0.2 614.1001,-1.5 14.3,-3 29.7,-13.6 38.1,-26.2 2.1,-3.1 5.2,-9.6 6.8,-14.3 l 3.1,-8.5 0.3,-332.3 c 0.2,-370.4 0.8,-339.4 -6.9,-355.1 -7.3,-14.7 -20.9,-26.1 -37.9,-31.7 -5,-1.6 -10.7,-1.9 -58.2,-2.2 l -52.7,-0.3 -1.1,-3.7 c -0.5,-2 -3.8,-14.7 -7.2,-28.2 -5.5,-21.9 -6.6,-25 -9.9,-29.6 -5.8,-7.9 -11.9,-11.9 -22.2,-14.3 -8.4,-2 -11.5,-2.1 -64.7,-2.1 -53.2,0 -56.3001,0.1 -64.70005,2.1 -10.3,2.4 -16.4,6.4 -22.2,14.3 -3.3,4.6 -4.4001,7.8 -10.1001,30.1 -3.5,13.7 -6.6999,26.5 -7.19995,28.2 l -0.9,3.3 -18,0 -17.9,0 -1.1,-2.8 c -4.1,-10.8 -16.5,-29.7 -26.3,-40.1 -8.3,-8.7 -24.2,-20.3 -35.3,-25.8 -10.2,-4.9 -33.1,-11.1 -50.9,-13.8 -10.9,-1.6 -38.6,-1.8 -53.2,-0.4 z"
     style="fill:#008000;stroke:#000000" />
  <path
     inkscape:connector-curvature="0"
     id="path3375"
     d="m 813.103,375.325 c 33.9,6.2 56.9,22.8 70.4,51 9.1,18.9 13.4,38.2 13.4,59.6 l 0,12.9 -48.5,0 -48.5,0 0,-12.8 c 0,-17.1 -1.2,-24.2 -5.8,-33.2 -3.1,-6.2 -4.5,-7.9 -8.6,-10.5 -4.3,-2.6 -5.8,-3 -12,-2.9 -18.4,0.2 -28.1,13.1 -30.1,39.9 -0.3,4.4 -1.2,27.1 -2,50.5 -1.3,37.7 -1.3,47.1 0.1,83 1.5,40.9 3,57.1 5.9,66.9 2.2,7.3 10,15.1 16.8,17 9.8,2.8 22.2,-0.6 29.6,-8.1 7.7,-7.8 9.7,-16.7 10.7,-47.5 l 0.7,-21.3 -16.9,-0.2 -16.9,-0.3 0,-32 0,-32 62.8,-0.3 62.7,-0.2 0,101 0,101 -33.4,0 -33.3,0 -0.6,-3.8 c -0.3,-2 -0.9,-8.3 -1.3,-14 -0.4,-5.6 -1,-10.2 -1.4,-10.2 -0.4,0 -2.8,2.4 -5.4,5.4 -10.7,12.6 -26.5,22.6 -42.1,26.7 -11.2,3 -41.8,3.8 -56.2,1.5 -64.2,-10.1 -85.5,-54.6 -82.9,-173.1 2.2,-102.1 10.9,-151.2 31.2,-177.7 16.9,-21.8 49.3,-35.3 91.9,-38.2 12.2,-0.8 41.1,0.3 49.7,1.9 z"
     style="fill:#ffffff;stroke:none" />
  <path
     inkscape:connector-curvature="0"
     id="path3373"
     d="m 353.903,418.825 0,40 -62,0 -62,0 0,33.5 0,33.5 58,0 58,0 -0.2,37.7 -0.3,37.8 -57.7,0.3 -57.8,0.2 0,77.5 0,77.5 -50,0 -50,0 0,-189 0,-189 112,0 112,0 0,40 z"
     style="fill:#ffffff;stroke:none" />
  <path
     inkscape:connector-curvature="0"
     id="path3371"
     d="m 535.403,379.825 c 30.4,2.9 50.5,11.5 66.1,28.3 12.4,13.2 21.7,35.2 26.5,62.2 3.2,17.8 3.3,45.4 0.2,59.5 -9.6,44.1 -39.8,71.5 -88.3,80.1 -9.1,1.7 -17.5,2.2 -39.7,2.6 l -28.3,0.6 0,71.8 0,71.9 -50,0 -50,0 0,-189 0,-189 76.3,0 c 45.1,0 80.7,0.4 87.2,1 z"
     style="fill:#ffffff;stroke:none" />
  <path
     inkscape:connector-curvature="0"
     id="path3369"
     d="m 1120.8031,382.525 c 0.5,2.1 7.5,30.1 15.6,62.3 8.1,32.2 29.1,115.4 46.8,185 l 32.2,126.5 -51.4,0.3 c -28.3,0.1 -51.6,0.1 -51.8,-0.2 -0.2,-0.2 -2.6,-13.3 -5.3,-29.2 -2.8,-15.9 -5.3,-29.9 -5.5,-31.2 l -0.5,-2.2 -38,0 -38,0 -0.5,2.2 c -0.3,1.3 -2.7,15.3 -5.5,31.2 -2.7,15.9 -5.1,29.1 -5.3,29.3 -0.2,0.2 -23.50015,0.2 -51.80005,0.1 l -51.50005,-0.3 34.3,-134.5 c 18.79995,-74 39.90005,-157.2 46.80005,-185 6.9,-27.8 13.10005,-52.2 13.60005,-54.3 l 1,-3.7 56.9,0 56.9,0 1,3.7 z"
     style="fill:#ffffff;stroke:none" />
  <path
     inkscape:connector-curvature="0"
     id="path3367"
     d="m 667.403,827.925 c 25.2,1.8 45.4,5.8 59.9,11.6 20.5,8.3 33.1,23.1 39.4,46.1 l 2.7,9.7 0.5,104.5 0.5,104.5 3.1,8.7 3.2,8.8 -45.8,0 -45.7,0 -1.7,-5.8 c -1,-3.5 -1.6,-9.6 -1.6,-15.3 l 0,-9.4 -3.6,5.5 c -11.2,16.8 -26.8,25.8 -51.5,29.4 -58.3,8.7 -91.9,-22.9 -91.9,-86.4 0,-39.7 11.8,-61.4 41.5,-76.3 11.2,-5.6 22.7,-9.2 56.4,-17.8 17.4,-4.5 33,-8.7 34.7,-9.4 4.9,-2 10.1,-7.3 12,-12 1.2,-3.4 1.5,-6.7 1.2,-14.7 -0.3,-9.1 -0.7,-10.9 -3.1,-15 -4,-6.9 -9.9,-10 -19.7,-10.6 -11.9,-0.7 -18,2.1 -22.2,10.1 -1.8,3.4 -2.3,6.6 -2.7,16.2 l -0.6,12 -44.8,0.3 c -40.7,0.2 -44.8,0.1 -45.4,-1.4 -1.3,-3.5 1.6,-24.2 4.7,-33.6 9.2,-27.5 31.3,-47.3 62.6,-55.9 17.7,-4.9 31.8,-5.8 57.9,-3.8 z"
     style="fill:#ffffff;stroke:none" />
  <path
     inkscape:connector-curvature="0"
     id="path3365"
     d="m 989.70305,872.025 -0.3,45.3 -4.5,-0.5 c -9.2,-1 -29.20005,0 -38.50005,1.9 -20.9,4.3 -30.5,12.4 -35,29.8 -1.3,4.8 -1.5,18.5 -1.5,89.5 l 0,83.8 -48,0 -48,0 0,-143.5 0,-143.5 46,0 46,0 0,19.2 0,19.3 2.7,-4.5 c 8.6,-14.6 23.2,-29.9 33.4,-35.1 10.2,-5.1 18.59995,-6.8 34.20005,-6.8 l 13.7,-0.1 -0.2,45.2 z"
     style="fill:#ffffff;stroke:none" />
  <path
     inkscape:connector-curvature="0"
     id="path3363"
     d="m 1137.2031,828.325 c 37.4,4.9 60.6,17.1 72.1,37.9 6.2,11.1 7.8,18.2 8.4,36.4 l 0.4,16.2 -41.3,-0.2 -41.4,-0.3 -0.6,-9.5 c -0.9,-16.7 -6.6,-22.8 -22.2,-23.7 -17.7,-1.1 -25.9,5.2 -26.1,20.2 -0.1,8.5 2.5,14.2 8.3,18 2.1,1.4 21.7,9 43.7,16.9 21.9,7.9 42.1,15.3 44.7,16.5 12.4,5.4 26.2,17.1 31.9,27.1 9.1,15.7 11.1,46.8 4.8,72.9 -9.2,38.1 -34.1,61.3 -75.5,70.3 -20.7,4.5 -59.5,3.2 -82.9,-2.7 -44,-11.2 -66.60005,-39.1 -66.60005,-82.1 l 0,-10.4 42.90005,0 42.8,0 1,11.5 c 0.9,9.7 1.5,12.3 4.1,16.7 4.4,7.9 10,11 20.5,11.6 9.6,0.5 14.9,-0.7 20.4,-4.7 5.3,-3.8 7.6,-9 8.1,-17.7 0.3,-5.6 0,-8.1 -1.6,-11.6 -2.5,-5.7 -7.6,-11.4 -12.1,-13.7 -2,-1 -18.7,-7.4 -37.1,-14.1 -18.4,-6.7 -36.9,-14 -41.1,-16.1 -15.8,-7.9 -28.9,-21 -36.5,-36.6 -8.90005,-18.3 -11.30005,-42.9 -6.1,-62.4 6.2,-23.4 18,-40.4 35.2,-50.8 11.5,-7 34.3,-13.8 53,-15.9 12.8,-1.5 36.5,-1.3 48.8,0.3 z"
     style="fill:#ffffff;stroke:none" />
  <path
     inkscape:connector-curvature="0"
     id="path14"
     d="m 223.903,835.525 c -0.1,2.2 23.2,191 23.7,192.3 0.3,0.8 7.1,-42.2 15.2,-95.5 l 14.6,-97 48.4,-0.3 c 26.7,-0.1 48.8,0.1 49.2,0.5 0.4,0.5 7.4,44.6 15.5,98.1 8.2,53.6 15,97 15.1,96.5 0.4,-1.1 23.3,-192 23.3,-193.9 0,-1.2 7,-1.4 48,-1.4 37.8,0 48,0.3 48,1.2 -0.1,0.7 -13.5,65.2 -29.9,143.3 l -29.7,142 -54.6,0.3 -54.6,0.2 -0.6,-2.7 c -0.3,-1.6 -6.9,-45.1 -14.6,-96.7 -12.4,-82.7 -15,-99.2 -15,-93.6 0,1.6 -27.8,187.4 -28.5,190.7 l -0.5,2.3 -54.5,0 c -50.9,0 -54.4,-0.1 -54.9,-1.8 -0.6,-1.9 -59.6,-283.7 -59.6,-284.6 0,-0.3 21.6,-0.6 48,-0.6 26.4,0 48,0.3 48,0.7 z"
     style="fill:#ffffff;stroke:none" />
  <path
     inkscape:connector-curvature="0"
     style="fill:#008000;stroke:none"
     id="path16"
     d="m 471.903,496.325 0,44.7 14.8,-0.4 c 14.5,-0.3 14.8,-0.3 21,-3.7 11.5,-6.3 17.2,-15.2 20,-31.4 3.8,-22.3 -4,-42.9 -19.2,-51 -3.6,-1.9 -6,-2.2 -20.3,-2.5 l -16.3,-0.4 0,44.7 z" />
  <path
     inkscape:connector-curvature="0"
     style="fill:#008000;stroke:none"
     id="path18"
     d="m 1050.0031,540.125 c -6.7,39.1 -12.5,72.4 -12.8,73.9 l -0.5,2.8 26.2,0 26.2,0 -0.5,-2.3 c -0.3,-1.2 -6.1,-34.2 -12.8,-73.2 -6.7,-39.1 -12.5,-71.3 -12.8,-71.7 -0.4,-0.4 -6.2,31.3 -13,70.5 z" />
  <path
     inkscape:connector-curvature="0"
     style="fill:#008000;stroke:none"
     id="path20"
     d="m 663.103,988.925 c -17.4,7.3 -23,10.6 -28.2,16.5 -5.7,6.5 -8,12.8 -8,21.9 0,21.9 10.1,35.5 26.5,35.5 12.1,0 20.5,-6.9 24.6,-20 3.4,-10.9 5.6,-61.1 2.7,-60.9 -0.7,0.1 -8.6,3.2 -17.6,7 z" />
  <path
     inkscape:connector-curvature="0"
     style="fill:#008000;stroke:none"
     id="path22"
     d="m 270.903,1367.025 0,67.3 -6.4,6.2 c -22.5,21.6 -33.4,50.6 -30.5,81.2 5.8,62.7 68.4,104.3 128.4,85.4 15.2,-4.8 26.7,-11.7 38.9,-23.3 9.7,-9.3 15.3,-17 21,-29.1 18.3,-38.8 9.8,-84.6 -21.3,-114.2 l -6.1,-5.8 -0.2,-67.2 -0.3,-67.2 -61.7,-0.3 -61.8,-0.2 0,67.2 z" />
  <path
     inkscape:connector-curvature="0"
     style="fill:#008000;stroke:none"
     id="path24"
     d="m 600.603,1300.525 c -0.4,0.3 -0.7,30.6 -0.7,67.1 l 0,66.5 -8.8,9.1 c -14.3,14.8 -22.7,30.7 -26.8,50.7 -2.3,11.2 -1.5,33.1 1.5,44.4 5.1,18.8 18.4,39.1 33.5,51.2 10.1,8 27.1,16.5 39.1,19.5 12.8,3.2 34.2,3.2 46.9,0 37.3,-9.3 66,-39.3 73.8,-77.1 1.6,-7.8 1.9,-12.1 1.5,-23.1 -0.6,-15.7 -2.7,-24.8 -8.6,-37.5 -5.5,-11.7 -10.3,-18.7 -19.8,-28.6 l -8.3,-8.6 -0.2,-66.9 -0.3,-66.9 -61.1,-0.3 c -33.6,-0.1 -61.4,0.1 -61.7,0.5 z" />
  <path
     inkscape:connector-curvature="0"
     style="fill:#008000;stroke:none"
     id="path26"
     d="m 929.603,1300.525 c -0.4,0.3 -0.7,30.5 -0.7,67.1 l 0,66.5 -8.3,8.6 c -12.9,13.5 -21.1,27.7 -25.7,44.6 -3.3,12 -3.8,32 -1.2,44.6 7.8,37.7 36.6,67.8 73.80005,77.1 12.7,3.2 34.09995,3.2 46.90005,0 12,-3 29,-11.5 39.1,-19.5 15.1,-12.1 28.4,-32.4 33.5,-51.2 3,-11.3 3.8,-33.2 1.5,-44.4 -4.1,-20 -12.5,-35.9 -26.8,-50.7 l -8.8,-9.1 -0.2,-66.9 -0.3,-66.9 -61.10005,-0.3 c -33.60005,-0.1 -61.40005,0.1 -61.70005,0.5 z" />
</svg>
