<svg xmlns="http://www.w3.org/2000/svg" width="33.641" height="58.608" viewBox="0 0 31.538733 54.944538"><g stroke="#00f" stroke-linecap="round" stroke-linejoin="round"><path d="M21.822 33.91l4.092 8.992-3.772 9.727 4.181 1.311M13.356 34.68s-1.091 8.252-2.585 8.918C9.278 44.265 1 50.456 1 50.456l2.647 3.256" fill="none" stroke-width="2"/><path d="M19.787 2.504a11.65 17.168 28.167 0 0-14.101 10.6 11.65 17.168 28.167 0 0 2.166 20.634 11.65 17.168 28.167 0 0 18.373-9.636 11.65 17.168 28.167 0 0-2.166-20.633 11.65 17.168 28.167 0 0-4.272-.965zm-1.31 5.123a8.864 12.535 28.167 0 1 3.232.766 8.864 12.535 28.167 0 1 1.898 15.234 8.864 12.535 28.167 0 1-13.732 6.867A8.864 12.535 28.167 0 1 7.979 15.26a8.864 12.535 28.167 0 1 10.498-7.633z" fill="#00f" stroke-width="5"/></g></svg>