<?xml version="1.0" encoding="UTF-8" standalone="no"?>
<!-- Created with Inkscape (http://www.inkscape.org/) -->

<svg
   xmlns:dc="http://purl.org/dc/elements/1.1/"
   xmlns:cc="http://creativecommons.org/ns#"
   xmlns:rdf="http://www.w3.org/1999/02/22-rdf-syntax-ns#"
   xmlns:svg="http://www.w3.org/2000/svg"
   xmlns="http://www.w3.org/2000/svg"
   xmlns:sodipodi="http://sodipodi.sourceforge.net/DTD/sodipodi-0.dtd"
   xmlns:inkscape="http://www.inkscape.org/namespaces/inkscape"
   width="56.493877mm"
   height="112.15197mm"
   viewBox="0 0 200.17516 397.38887"
   id="svg2"
   version="1.1"
   inkscape:version="0.91 r13725"
   sodipodi:docname="0-torch-icon.svg">
  <defs
     id="defs4" />
  <sodipodi:namedview
     id="base"
     pagecolor="#ffffff"
     bordercolor="#666666"
     borderopacity="1.0"
     inkscape:pageopacity="0.0"
     inkscape:pageshadow="2"
     inkscape:zoom="0.49497475"
     inkscape:cx="-38.452736"
     inkscape:cy="347.20786"
     inkscape:document-units="px"
     inkscape:current-layer="layer1"
     showgrid="false"
     inkscape:window-width="1855"
     inkscape:window-height="1056"
     inkscape:window-x="65"
     inkscape:window-y="1048"
     inkscape:window-maximized="1"
     showguides="true"
     inkscape:guide-bbox="true"
     fit-margin-top="0"
     fit-margin-left="0"
     fit-margin-right="0"
     fit-margin-bottom="0" />
  <metadata
     id="metadata7">
    <rdf:RDF>
      <cc:Work
         rdf:about="">
        <dc:format>image/svg+xml</dc:format>
        <dc:type
           rdf:resource="http://purl.org/dc/dcmitype/StillImage" />
        <dc:title></dc:title>
      </cc:Work>
    </rdf:RDF>
  </metadata>
  <g
     inkscape:label="Layer 1"
     inkscape:groupmode="layer"
     id="layer1"
     style="display:inline"
     transform="translate(-222.88543,-294.90603)">
    <path
       style="display:inline;fill:#803300;stroke:#000000"
       d="m 300.73534,604.89553 c -0.65779,0.91666 -3.50871,5.00794 -6.33537,9.09174 -2.82666,4.08379 -5.86326,8.41011 -6.74799,9.61404 -0.88472,1.20394 -3.1399,4.42256 -5.0115,7.1525 -1.8716,2.72994 -3.62541,5.22479 -3.89734,5.5441 -0.27198,0.31929 -2.94885,4.15182 -5.9487,8.51672 -2.99984,4.3648 -5.6429,8.1413 -5.87347,8.3921 -0.2306,0.2509 -2.41385,3.3551 -4.85176,6.8984 -2.4379,3.5432 -4.65725,6.7022 -4.93188,7.0199 -0.27467,0.3178 -2.95419,4.1488 -5.95455,8.5133 -3.00039,4.3645 -5.71506,8.2532 -6.0326,8.6414 -0.31756,0.3882 -1.41589,1.8977 -2.44076,3.3543 -1.98792,2.8254 -2.7704,3.4944 -4.56735,3.905 -2.47841,0.5664 -3.15824,0.3713 -7.82775,-2.2455 -2.37525,-1.3309 -4.58019,-2.7056 -4.89955,-3.0553 l 8e-5,-1e-4 c -0.87654,-0.9583 -1.7173,-2.6565 -1.94256,-3.9239 -0.30313,-1.7056 -0.21207,-1.9322 6.83378,-16.9972 2.06418,-4.4135 3.78651,-8.0915 8.17228,-17.4519 2.03763,-4.3488 3.88017,-8.3513 4.09455,-8.8944 0.21436,-0.543 1.8782,-4.10307 3.69739,-7.91116 1.81918,-3.8081 4.11371,-8.71874 5.09895,-10.91253 0.98523,-2.19379 2.64601,-5.7556 3.69061,-7.91512 1.04459,-2.15952 2.3573,-4.98698 2.91711,-6.28324 0.55981,-1.29626 2.75278,-6.0317 4.87326,-10.52321 5.68411,-12.0398 11.05423,-23.56241 11.5765,-24.83963 0.25214,-0.61653 2.22805,-4.85376 4.39096,-9.41603 2.16291,-4.56227 4.42914,-9.4113 5.03607,-10.77562 0.60692,-1.36433 1.9573,-4.24797 3.00084,-6.4081 1.04355,-2.16013 2.35869,-4.98618 2.92254,-6.28011 0.56387,-1.29392 2.47673,-5.41166 4.25083,-9.15052 2.98798,-6.2971 6.35433,-13.56487 7.87727,-17.00661 l 0.63765,-1.44103 -12.66413,-7.40771 -12.66412,-7.4077 -0.34418,-1.1866 0.0406,-1.08313 c 0.0611,-2.5141 1.43252,-4.5303 2.2681,-5.96547 l 2.61794,-4.53441 -6.69176,-3.86349 c -3.68047,-2.12492 -7.02624,-4.20987 -7.43503,-4.63324 -0.4088,-0.42336 -0.91395,-1.36913 -1.12256,-2.10171 l -0.37929,-1.33195 7.99182,-13.84225 7.99183,-13.84225 67.3954,38.90613 c 53.35925,30.80352 67.37973,38.98635 67.31995,39.29155 -0.0416,0.21201 -4.28513,7.82778 -4.28513,7.82778 l -4.40391,7.68679 -3.45441,5.79462 c -2.25763,3.78714 -3.67199,5.92829 -4.08245,6.18048 -0.34542,0.21222 -1.22586,0.40538 -1.95651,0.42925 -1.27001,0.0415 -1.5814,-0.0977 -7.07484,-3.16282 l -7.40444,-4.21318 -1.34354,-0.77568 -0.79314,1.37376 -2.69429,4.66672 c -1.91063,3.30932 -2.41802,3.80292 -4.18995,4.07612 -1.03178,0.15909 -1.49174,0.0189 -3.58081,-1.09128 l -2.39695,-1.27384 c 0,0 -2.67373,-1.59056 -11.3216,-6.58341 l -2e-5,4e-5 c -5.12204,-2.95721 -9.36947,-5.27861 -9.43872,-5.15867 -0.0693,0.11994 -1.37953,1.97451 -2.91176,4.12126 -1.53222,2.14675 -4.50649,6.40474 -6.63674,9.44318 l -4.05913,5.78963 c -0.18396,0.34022 -1.03121,1.60051 -2.09105,3.05024 l 2e-5,1e-5 c -2.14239,2.9306 -8.9161,12.59616 -16.73408,23.87825 -2.82896,4.08247 -5.79797,8.29192 -6.59778,9.35436 -0.79982,1.06243 -2.70626,3.78092 -4.23653,6.04108 -1.53028,2.26017 -2.85486,4.1348 -3.09592,4.41722 z"
       id="path4148-0-9"
       inkscape:connector-curvature="0"
       sodipodi:nodetypes="sssscscscscsscccssscssssscsssssscccccccscscccscccssccccccsscccssscscssscs" />
    <path
       style="opacity:1;fill:#666666;fill-opacity:1;stroke:#000000;stroke-width:3;stroke-linecap:square;stroke-linejoin:miter;stroke-miterlimit:4;stroke-dasharray:none;stroke-dashoffset:0;stroke-opacity:1"
       d="m 358.64249,477.4063 c 0,0 -1.08104,-4.80302 -0.43237,-7.56839 0.64861,-2.76537 8.54021,-13.97239 6.16191,-21.83186 -2.37826,-7.85948 -16.43185,-13.82686 -35.02578,-14.11795 -18.59394,-0.29109 -41.51205,-2.91091 -43.78225,-18.7754 -2.27018,-15.86449 8.43214,-31.87453 25.51262,-38.71518 17.08048,-6.84065 30.1611,-2.47427 33.07992,-10.4793 2.91881,-8.00501 -5.62142,-11.78921 -19.35067,-14.99121 -13.72925,-3.20201 -24.10726,-5.53074 -22.5938,-19.93977 1.51346,-14.40903 15.1346,-37.8419 64.21396,-34.20325 49.07934,3.63863 55.2413,32.31115 55.13318,47.15682 -0.10812,14.84567 -4.21607,32.45671 -24.86397,39.734 -20.64796,7.27729 -54.16027,5.09411 -54.05216,14.70012 0.1081,9.60603 10.81042,13.9724 20.64791,19.93978 9.83749,5.96737 18.37777,11.35257 17.7291,20.66749 -0.64861,9.31493 -8.86452,19.3576 -8.86452,19.3576 z"
       id="path4318"
       inkscape:connector-curvature="0" />
  </g>
  <g
     inkscape:groupmode="layer"
     id="layer2"
     inkscape:label="Layer 2"
     style="display:inline"
     transform="translate(-222.88543,-294.90603)" />
</svg>
