<?xml version="1.0" encoding="UTF-8" standalone="no"?>
<!-- Created with Inkscape (http://www.inkscape.org/) -->

<svg
   xmlns:dc="http://purl.org/dc/elements/1.1/"
   xmlns:cc="http://creativecommons.org/ns#"
   xmlns:rdf="http://www.w3.org/1999/02/22-rdf-syntax-ns#"
   xmlns:svg="http://www.w3.org/2000/svg"
   xmlns="http://www.w3.org/2000/svg"
   xmlns:sodipodi="http://sodipodi.sourceforge.net/DTD/sodipodi-0.dtd"
   xmlns:inkscape="http://www.inkscape.org/namespaces/inkscape"
   width="35.646961mm"
   height="21.009916mm"
   viewBox="0 0 126.30812 74.444584"
   id="svg2"
   version="1.1"
   inkscape:version="0.91 r13725"
   sodipodi:docname="beep1.svg">
  <defs
     id="defs4">
    <marker
       inkscape:stockid="Arrow2Mend"
       orient="auto"
       refY="0"
       refX="0"
       id="Arrow2Mend"
       style="overflow:visible"
       inkscape:isstock="true">
      <path
         id="path4237"
         style="fill:#0000ff;fill-opacity:1;fill-rule:evenodd;stroke:#0000ff;stroke-width:0.625;stroke-linejoin:round;stroke-opacity:1"
         d="M 8.7185878,4.0337352 -2.2072895,0.01601326 8.7185884,-4.0017078 c -1.7454984,2.3720609 -1.7354408,5.6174519 -6e-7,8.035443 z"
         transform="scale(-0.6,-0.6)"
         inkscape:connector-curvature="0" />
    </marker>
    <marker
       inkscape:isstock="true"
       style="overflow:visible"
       id="Arrow2Sstart"
       refX="0"
       refY="0"
       orient="auto"
       inkscape:stockid="Arrow2Sstart">
      <path
         inkscape:connector-curvature="0"
         transform="matrix(0.3,0,0,0.3,-0.69,0)"
         d="M 8.7185878,4.0337352 -2.2072895,0.01601326 8.7185884,-4.0017078 c -1.7454984,2.3720609 -1.7354408,5.6174519 -6e-7,8.035443 z"
         style="fill:#0000ff;fill-opacity:1;fill-rule:evenodd;stroke:#0000ff;stroke-width:0.625;stroke-linejoin:round;stroke-opacity:1"
         id="path4321" />
    </marker>
    <marker
       inkscape:isstock="true"
       style="overflow:visible"
       id="Arrow1Sstart"
       refX="0"
       refY="0"
       orient="auto"
       inkscape:stockid="Arrow1Sstart">
      <path
         inkscape:connector-curvature="0"
         transform="matrix(0.2,0,0,0.2,1.2,0)"
         style="fill:#000000;fill-opacity:1;fill-rule:evenodd;stroke:#000000;stroke-width:1pt;stroke-opacity:1"
         d="M 0,0 5,-5 -12.5,0 5,5 0,0 Z"
         id="path4303" />
    </marker>
    <marker
       inkscape:isstock="true"
       style="overflow:visible"
       id="Arrow2Send"
       refX="0"
       refY="0"
       orient="auto"
       inkscape:stockid="Arrow2Send">
      <path
         inkscape:connector-curvature="0"
         transform="matrix(-0.3,0,0,-0.3,0.69,0)"
         d="M 8.7185878,4.0337352 -2.2072895,0.01601326 8.7185884,-4.0017078 c -1.7454984,2.3720609 -1.7354408,5.6174519 -6e-7,8.035443 z"
         style="fill:#0000ff;fill-opacity:1;fill-rule:evenodd;stroke:#0000ff;stroke-width:0.625;stroke-linejoin:round;stroke-opacity:1"
         id="path4324" />
    </marker>
    <marker
       inkscape:isstock="true"
       style="overflow:visible"
       id="Arrow1Send"
       refX="0"
       refY="0"
       orient="auto"
       inkscape:stockid="Arrow1Send">
      <path
         inkscape:connector-curvature="0"
         transform="matrix(-0.2,0,0,-0.2,-1.2,0)"
         style="fill:#000000;fill-opacity:1;fill-rule:evenodd;stroke:#000000;stroke-width:1pt;stroke-opacity:1"
         d="M 0,0 5,-5 -12.5,0 5,5 0,0 Z"
         id="path4306" />
    </marker>
    <marker
       inkscape:isstock="true"
       style="overflow:visible"
       id="Arrow1Mend"
       refX="0"
       refY="0"
       orient="auto"
       inkscape:stockid="Arrow1Mend">
      <path
         inkscape:connector-curvature="0"
         transform="matrix(-0.4,0,0,-0.4,-4,0)"
         style="fill:#000000;fill-opacity:1;fill-rule:evenodd;stroke:#000000;stroke-width:1pt;stroke-opacity:1"
         d="M 0,0 5,-5 -12.5,0 5,5 0,0 Z"
         id="path4300" />
    </marker>
  </defs>
  <sodipodi:namedview
     id="base"
     pagecolor="#ffffff"
     bordercolor="#666666"
     borderopacity="1.0"
     inkscape:pageopacity="0.0"
     inkscape:pageshadow="2"
     inkscape:zoom="3.959798"
     inkscape:cx="75.799768"
     inkscape:cy="10.48588"
     inkscape:document-units="px"
     inkscape:current-layer="g4240"
     showgrid="false"
     fit-margin-top="0"
     fit-margin-left="0"
     fit-margin-right="0"
     fit-margin-bottom="0"
     inkscape:window-width="1855"
     inkscape:window-height="1056"
     inkscape:window-x="69"
     inkscape:window-y="1048"
     inkscape:window-maximized="1" />
  <metadata
     id="metadata7">
    <rdf:RDF>
      <cc:Work
         rdf:about="">
        <dc:format>image/svg+xml</dc:format>
        <dc:type
           rdf:resource="http://purl.org/dc/dcmitype/StillImage" />
        <dc:title />
      </cc:Work>
    </rdf:RDF>
  </metadata>
  <g
     inkscape:label="Layer 1"
     inkscape:groupmode="layer"
     id="layer1"
     transform="translate(-300.67658,-452.18168)">
    <g
       id="g4240"
       transform="translate(556.02513,57.199615)">
      <text
         sodipodi:linespacing="125%"
         id="text4155-5-3"
         y="461.26718"
         x="-176.01561"
         style="font-style:normal;font-weight:normal;font-size:29.4849472px;line-height:125%;font-family:sans-serif;letter-spacing:0px;word-spacing:0px;fill:#ff0000;fill-opacity:1;stroke:none;stroke-width:1px;stroke-linecap:butt;stroke-linejoin:miter;stroke-opacity:1"
         xml:space="preserve"><tspan
           style="font-style:normal;font-variant:normal;font-weight:bold;font-stretch:normal;font-size:16.84854126px;font-family:sans-serif;-inkscape-font-specification:'sans-serif Bold';fill:#ff0000"
           y="461.26718"
           x="-176.01561"
           id="tspan4157-6-6"
           sodipodi:role="line">Beep</tspan></text>
      <g
         id="layer1-3"
         inkscape:label="Layer 1"
         transform="matrix(0.16905861,0,0,0.16905861,-276.11533,347.99)">
        <path
           inkscape:connector-curvature="0"
           id="path4147-5"
           d="m 336.06753,716.15501 c -2.61709,-1.21862 -6.83584,-4.30886 -9.375,-6.86717 -2.53917,-2.55832 -27.39792,-30.45469 -55.24167,-61.99194 l -50.625,-57.34045 -41.71875,-0.0226 c -38.44486,-0.0208 -42.01608,-0.1576 -45.50753,-1.74355 -4.62364,-2.10023 -8.46851,-6.49399 -9.76371,-11.15755 -1.33081,-4.79178 -1.33081,-153.11875 0,-157.91053 1.2952,-4.66353 5.14007,-9.05728 9.76371,-11.15752 3.4895,-1.58506 7.08422,-1.72412 45.50753,-1.76049 l 41.71875,-0.0395 50.15625,-56.8586 c 55.31737,-62.70941 58.34093,-65.9691 63.74971,-68.72845 12.39008,-6.32095 24.3956,-0.79843 27.15281,12.49028 0.70415,3.39369 0.93132,65.6139 0.75536,206.88457 l -0.25163,202.03123 -2.15517,4.67582 c -2.63895,5.72543 -5.33817,8.75728 -9.29909,10.445 -4.41972,1.88323 -9.47827,1.56046 -14.86657,-0.94858 z M 476.4307,679.88594 c -7.20609,-2.88621 -11.38609,-9.0572 -11.38609,-16.80942 0,-9.19536 3.06976,-12.72471 19.02764,-21.87638 39.22562,-22.49546 69.20557,-64.35735 78.54409,-109.67345 2.94505,-14.29118 4.01248,-31.66676 2.81805,-45.87205 -1.96232,-23.33754 -6.68427,-40.40268 -16.92638,-61.17187 -15.35736,-31.14206 -38.15243,-54.98703 -69.26388,-72.45403 -10.29045,-5.77741 -13.32628,-9.56293 -13.95551,-17.40185 -0.70639,-8.8002 2.7148,-14.74861 10.30706,-17.92087 6.3143,-2.63828 11.01645,-1.91812 20.84444,3.19241 22.29525,11.59349 45.11826,30.64409 61.96025,51.71885 45.46911,56.89648 56.63271,133.90574 29.37619,202.64406 -16.85153,42.49792 -51.64971,81.35623 -91.33644,101.99327 -9.25559,4.81288 -14.62604,5.78752 -20.00942,3.63133 z m -45.87539,-71.30515 c -6.60854,-1.90585 -13.21135,-11.97145 -11.93724,-18.19762 0.20686,-1.01084 0.61855,-2.99032 0.91487,-4.39883 0.77474,-3.68261 5.29489,-8.43546 13.56569,-14.26405 8.17676,-5.76233 18.87549,-16.31194 24.29485,-23.95627 5.22837,-7.37494 11.04821,-19.38267 13.50175,-27.85738 1.78767,-6.17476 2.11311,-9.53685 2.11311,-21.83012 0,-12.29327 -0.32544,-15.65536 -2.11311,-21.83012 -5.73307,-19.80242 -19.82944,-39.09797 -37.88874,-51.86323 -3.95689,-2.79695 -8.26988,-6.36353 -9.5844,-7.92576 -9.82584,-11.67735 -1.22675,-29.67986 14.01777,-29.34674 5.62237,0.12286 8.59985,1.5388 19.07141,9.06934 21.34359,15.34911 39.35007,39.55402 47.4592,63.79629 16.86811,50.42722 -1.71407,106.0406 -46.59036,139.43728 -12.75544,9.49251 -18.67828,11.5166 -26.8248,9.16721 z"
           style="fill:#000000" />
      </g>
      <path
         style="fill:#0000ff;fill-rule:evenodd;stroke:#0000ff;stroke-width:2.99999952;stroke-linecap:butt;stroke-linejoin:miter;stroke-miterlimit:4;stroke-dasharray:none;stroke-opacity:1;marker-end:url(#Arrow2Mend)"
         d="m -152.59653,399.61538 0,37.37565"
         id="path4204"
         inkscape:connector-curvature="0" />
    </g>
  </g>
</svg>
