<?xml version="1.0" encoding="UTF-8" standalone="no"?>
<svg
   xmlns:dc="http://purl.org/dc/elements/1.1/"
   xmlns:cc="http://creativecommons.org/ns#"
   xmlns:rdf="http://www.w3.org/1999/02/22-rdf-syntax-ns#"
   xmlns:svg="http://www.w3.org/2000/svg"
   xmlns="http://www.w3.org/2000/svg"
   xmlns:sodipodi="http://sodipodi.sourceforge.net/DTD/sodipodi-0.dtd"
   xmlns:inkscape="http://www.inkscape.org/namespaces/inkscape"
   viewBox="-252 400.9 70.563453 59.187547"
   width="70.563454"
   height="59.187546"
   id="svg4332"
   version="1.1"
   inkscape:version="0.91 r13725"
   sodipodi:docname="MotorBit-icon.svg">
  <metadata
     id="metadata4340">
    <rdf:RDF>
      <cc:Work
         rdf:about="">
        <dc:format>image/svg+xml</dc:format>
        <dc:type
           rdf:resource="http://purl.org/dc/dcmitype/StillImage" />
        <dc:title></dc:title>
      </cc:Work>
    </rdf:RDF>
  </metadata>
  <defs
     id="defs4338">
    <marker
       inkscape:stockid="Arrow2Sstart"
       orient="auto"
       refY="0"
       refX="0"
       id="Arrow2Sstart"
       style="overflow:visible"
       inkscape:isstock="true">
      <path
         id="path4321"
         style="fill:#0000ff;fill-opacity:1;fill-rule:evenodd;stroke:#0000ff;stroke-width:0.625;stroke-linejoin:round;stroke-opacity:1"
         d="M 8.7185878,4.0337352 -2.2072895,0.01601326 8.7185884,-4.0017078 c -1.7454984,2.3720609 -1.7354408,5.6174519 -6e-7,8.035443 z"
         transform="matrix(0.3,0,0,0.3,-0.69,0)"
         inkscape:connector-curvature="0" />
    </marker>
    <marker
       inkscape:stockid="Arrow1Sstart"
       orient="auto"
       refY="0"
       refX="0"
       id="Arrow1Sstart"
       style="overflow:visible"
       inkscape:isstock="true">
      <path
         id="path4303"
         d="M 0,0 5,-5 -12.5,0 5,5 0,0 Z"
         style="fill:#000000;fill-opacity:1;fill-rule:evenodd;stroke:#000000;stroke-width:1pt;stroke-opacity:1"
         transform="matrix(0.2,0,0,0.2,1.2,0)"
         inkscape:connector-curvature="0" />
    </marker>
    <marker
       inkscape:stockid="Arrow2Send"
       orient="auto"
       refY="0"
       refX="0"
       id="Arrow2Send"
       style="overflow:visible"
       inkscape:isstock="true">
      <path
         id="path4324"
         style="fill:#0000ff;fill-opacity:1;fill-rule:evenodd;stroke:#0000ff;stroke-width:0.625;stroke-linejoin:round;stroke-opacity:1"
         d="M 8.7185878,4.0337352 -2.2072895,0.01601326 8.7185884,-4.0017078 c -1.7454984,2.3720609 -1.7354408,5.6174519 -6e-7,8.035443 z"
         transform="matrix(-0.3,0,0,-0.3,0.69,0)"
         inkscape:connector-curvature="0" />
    </marker>
    <marker
       inkscape:stockid="Arrow1Send"
       orient="auto"
       refY="0"
       refX="0"
       id="Arrow1Send"
       style="overflow:visible"
       inkscape:isstock="true">
      <path
         id="path4306"
         d="M 0,0 5,-5 -12.5,0 5,5 0,0 Z"
         style="fill:#000000;fill-opacity:1;fill-rule:evenodd;stroke:#000000;stroke-width:1pt;stroke-opacity:1"
         transform="matrix(-0.2,0,0,-0.2,-1.2,0)"
         inkscape:connector-curvature="0" />
    </marker>
    <marker
       inkscape:stockid="Arrow1Mend"
       orient="auto"
       refY="0"
       refX="0"
       id="Arrow1Mend"
       style="overflow:visible"
       inkscape:isstock="true">
      <path
         id="path4300"
         d="M 0,0 5,-5 -12.5,0 5,5 0,0 Z"
         style="fill:#000000;fill-opacity:1;fill-rule:evenodd;stroke:#000000;stroke-width:1pt;stroke-opacity:1"
         transform="matrix(-0.4,0,0,-0.4,-4,0)"
         inkscape:connector-curvature="0" />
    </marker>
  </defs>
  <sodipodi:namedview
     pagecolor="#ffffff"
     bordercolor="#666666"
     borderopacity="1"
     objecttolerance="10"
     gridtolerance="10"
     guidetolerance="10"
     inkscape:pageopacity="0"
     inkscape:pageshadow="2"
     inkscape:window-width="1855"
     inkscape:window-height="1056"
     id="namedview4336"
     showgrid="false"
     inkscape:zoom="5.2029091"
     inkscape:cx="-27.955457"
     inkscape:cy="18.2719"
     inkscape:window-x="65"
     inkscape:window-y="24"
     inkscape:window-maximized="1"
     inkscape:current-layer="svg4332"
     showguides="true"
     inkscape:guide-bbox="true"
     fit-margin-top="0"
     fit-margin-left="0"
     fit-margin-right="0"
     fit-margin-bottom="0" />
  <text
     xml:space="preserve"
     style="font-style:normal;font-weight:normal;font-size:17.5px;line-height:125%;font-family:sans-serif;letter-spacing:0px;word-spacing:0px;fill:#000000;fill-opacity:1;stroke:none;stroke-width:1px;stroke-linecap:butt;stroke-linejoin:miter;stroke-opacity:1"
     x="-241.20757"
     y="459.94592"
     id="text4155"
     sodipodi:linespacing="125%"><tspan
       sodipodi:role="line"
       id="tspan4157"
       x="-241.20757"
       y="459.94592"
       style="font-style:normal;font-variant:normal;font-weight:bold;font-stretch:normal;font-size:10px;font-family:sans-serif;-inkscape-font-specification:'sans-serif Bold'">MotorBit</tspan></text>
  <path
     style="fill:#808080;fill-rule:evenodd;stroke:#191919;stroke-width:1;stroke-miterlimit:4;stroke-dasharray:none"
     d="m -242.67246,437.86 0,-0.39507 -8.13064,0 a 0.69691229,0.6772642 0 0 1 -0.6969,-0.67726 l 0,-19.07628 a 0.69691229,0.6772642 0 0 1 0.6969,-0.67727 l 8.13064,0 0,-0.39505 a 0.69691229,0.6772642 0 0 1 0.6969,-0.67728 l 45.41547,0 a 0.69691229,0.6772642 0 0 1 0.69691,0.67728 l 0,0.39505 8.13063,0 a 0.69691229,0.6772642 0 0 1 0.69692,0.67727 l 0,19.07628 a 0.69691229,0.6772642 0 0 1 -0.69692,0.67726 l -8.13063,0 0,0.39507 a 0.69691229,0.6772642 0 0 1 -0.69691,0.67726 l -45.41547,0 a 0.69691229,0.6772642 0 0 1 -0.6969,-0.67726"
     id="Fusion009002001_cs_w0000"
     inkscape:connector-curvature="0" />
  <ellipse
     id="circle4163"
     style="fill:#ffffff;stroke:#191919;stroke-width:1;stroke-miterlimit:4;stroke-dasharray:none"
     cy="-421.54929"
     cx="-247.66698"
     transform="scale(1,-1)"
     rx="2.4972694"
     ry="2.4268634" />
  <ellipse
     id="circle4165"
     style="fill:#ffffff;stroke:#191919;stroke-width:1;stroke-miterlimit:4;stroke-dasharray:none"
     cy="-432.94986"
     cx="-247.66698"
     transform="scale(1,-1)"
     rx="2.4972694"
     ry="2.4268634" />
  <ellipse
     id="circle4167"
     style="fill:#ffffff;stroke:#191919;stroke-width:1;stroke-miterlimit:4;stroke-dasharray:none"
     cy="-421.54929"
     cx="-190.86864"
     transform="scale(1,-1)"
     rx="2.4972694"
     ry="2.4268634" />
  <ellipse
     id="circle4169"
     style="fill:#ffffff;stroke:#191919;stroke-width:1;stroke-miterlimit:4;stroke-dasharray:none"
     cy="-432.94986"
     cx="-190.86864"
     transform="scale(1,-1)"
     rx="2.4972694"
     ry="2.4268634" />
  <g
     id="Fusion009002001_cs001"
     transform="matrix(1.1615205,0,0,-1.1287737,-219.26783,427.24953)"
     style="fill:#4d4d4d;stroke-width:1.1842587;stroke-miterlimit:4;stroke-dasharray:none">
    <circle
       cx="9.4499998"
       cy="0"
       r="7.078846"
       style="fill:#4d4d4d;stroke:#191919;stroke-width:0.87333947;stroke-miterlimit:4;stroke-dasharray:none"
       id="circle4174" />
    <title
       id="title4176">Fusion009002001_cs001</title>
  </g>
  <path
     d="m 291.08643,396.22919 a 24.939188,24.871426 0 0 1 -21.17122,-23.76086 24.939188,24.871426 0 0 1 19.54051,-25.11189 24.939188,24.871426 0 0 1 28.33588,14.55342 24.939188,24.871426 0 0 1 -9.15098,30.448"
     sodipodi:open="true"
     sodipodi:end="0.98441961"
     sodipodi:start="1.7219039"
     sodipodi:ry="24.871426"
     sodipodi:rx="24.939188"
     sodipodi:cy="371.64117"
     sodipodi:cx="294.84061"
     sodipodi:type="arc"
     transform="matrix(-0.97619614,0.21688958,0.21647258,0.9762887,0,0)"
     id="path4285"
     style="opacity:1;fill:none;fill-opacity:1;stroke:#0000ff;stroke-width:2;stroke-linecap:round;stroke-linejoin:round;stroke-miterlimit:4;stroke-dasharray:none;stroke-dashoffset:0;stroke-opacity:1;marker-start:url(#Arrow2Sstart);marker-end:url(#Arrow2Send)" />
  <text
     xml:space="preserve"
     style="font-style:normal;font-weight:normal;font-size:17.5px;line-height:125%;font-family:sans-serif;letter-spacing:0px;word-spacing:0px;fill:#ff0000;fill-opacity:1;stroke:none;stroke-width:1px;stroke-linecap:butt;stroke-linejoin:miter;stroke-opacity:1"
     x="-199.94774"
     y="459.79236"
     id="text4155-5"
     sodipodi:linespacing="125%"><tspan
       sodipodi:role="line"
       id="tspan4157-6"
       x="-199.94774"
       y="459.79236"
       style="font-style:normal;font-variant:normal;font-weight:bold;font-stretch:normal;font-size:10px;font-family:sans-serif;-inkscape-font-specification:'sans-serif Bold';fill:#ff0000" /></text>
</svg>
